<mxfile host="app.diagrams.net" modified="2021-01-05T09:42:20.908Z" agent="5.0 (Windows)" etag="kDmNdiEYH9YJ44E5Q_mg" version="14.1.8" type="github">
  <diagram name="Page-1" id="74b105a0-9070-1c63-61bc-23e55f88626e">
    <mxGraphModel dx="782" dy="1723.5" grid="1" gridSize="10" guides="1" tooltips="1" connect="1" arrows="1" fold="1" page="1" pageScale="1.5" pageWidth="1169" pageHeight="827" background="none" math="0" shadow="0">
      <root>
        <mxCell id="0" style=";html=1;" />
        <mxCell id="1" style=";html=1;" parent="0" />
        <mxCell id="10b056a9c633e61c-6" value="Frotend" style="strokeWidth=2;dashed=0;align=center;fontSize=12;shape=rect;verticalLabelPosition=top;verticalAlign=bottom;fillColor=#dae8fc;labelPosition=center;strokeColor=#6c8ebf;" parent="1" vertex="1">
          <mxGeometry x="1040" y="170" width="150" height="90" as="geometry" />
        </mxCell>
        <mxCell id="10b056a9c633e61c-8" value="Main" style="strokeWidth=2;dashed=0;align=center;fontSize=12;shape=rect;verticalLabelPosition=bottom;verticalAlign=top;fillColor=#ffe6cc;strokeColor=#d79b00;" parent="1" vertex="1">
          <mxGeometry x="810" y="400" width="150" height="90" as="geometry" />
        </mxCell>
        <mxCell id="w6qTvtTmNooETmaVql6n-1" value="Admin" style="strokeWidth=2;dashed=0;align=center;fontSize=12;shape=rect;verticalLabelPosition=bottom;verticalAlign=top;fillColor=#ffe6cc;strokeColor=#d79b00;" parent="1" vertex="1">
          <mxGeometry x="1280" y="400" width="150" height="90" as="geometry" />
        </mxCell>
        <mxCell id="w6qTvtTmNooETmaVql6n-2" value="" style="rounded=1;whiteSpace=wrap;html=1;" parent="1" vertex="1">
          <mxGeometry x="930" y="570" width="410" height="60" as="geometry" />
        </mxCell>
        <mxCell id="w6qTvtTmNooETmaVql6n-3" value="" style="shape=cylinder3;whiteSpace=wrap;html=1;boundedLbl=1;backgroundOutline=1;size=15;" parent="1" vertex="1">
          <mxGeometry x="819" y="570" width="60" height="80" as="geometry" />
        </mxCell>
        <mxCell id="w6qTvtTmNooETmaVql6n-4" value="" style="shape=cylinder3;whiteSpace=wrap;html=1;boundedLbl=1;backgroundOutline=1;size=15;" parent="1" vertex="1">
          <mxGeometry x="1360" y="550" width="60" height="80" as="geometry" />
        </mxCell>
        <mxCell id="w6qTvtTmNooETmaVql6n-5" value="Event" style="text;html=1;strokeColor=none;fillColor=none;align=center;verticalAlign=middle;whiteSpace=wrap;rounded=0;" parent="1" vertex="1">
          <mxGeometry x="1119" y="630" width="40" height="20" as="geometry" />
        </mxCell>
        <mxCell id="w6qTvtTmNooETmaVql6n-7" value="DB" style="text;html=1;strokeColor=none;fillColor=none;align=center;verticalAlign=middle;whiteSpace=wrap;rounded=0;" parent="1" vertex="1">
          <mxGeometry x="1370" y="630" width="40" height="20" as="geometry" />
        </mxCell>
        <mxCell id="w6qTvtTmNooETmaVql6n-9" value="DB" style="text;html=1;strokeColor=none;fillColor=none;align=center;verticalAlign=middle;whiteSpace=wrap;rounded=0;" parent="1" vertex="1">
          <mxGeometry x="828" y="650" width="40" height="20" as="geometry" />
        </mxCell>
        <mxCell id="w6qTvtTmNooETmaVql6n-10" value="" style="endArrow=none;html=1;exitX=1;exitY=0.5;exitDx=0;exitDy=0;entryX=0;entryY=0.5;entryDx=0;entryDy=0;" parent="1" source="10b056a9c633e61c-8" target="w6qTvtTmNooETmaVql6n-1" edge="1">
          <mxGeometry width="50" height="50" relative="1" as="geometry">
            <mxPoint x="1110" y="490" as="sourcePoint" />
            <mxPoint x="1160" y="440" as="targetPoint" />
          </mxGeometry>
        </mxCell>
        <mxCell id="w6qTvtTmNooETmaVql6n-11" value="" style="endArrow=classic;startArrow=classic;html=1;entryX=0.25;entryY=1;entryDx=0;entryDy=0;exitX=0.5;exitY=0;exitDx=0;exitDy=0;exitPerimeter=0;" parent="1" source="w6qTvtTmNooETmaVql6n-3" target="10b056a9c633e61c-8" edge="1">
          <mxGeometry width="50" height="50" relative="1" as="geometry">
            <mxPoint x="750" y="630" as="sourcePoint" />
            <mxPoint x="800" y="580" as="targetPoint" />
          </mxGeometry>
        </mxCell>
        <mxCell id="w6qTvtTmNooETmaVql6n-12" value="" style="endArrow=classic;startArrow=classic;html=1;entryX=0.25;entryY=1;entryDx=0;entryDy=0;exitX=0.5;exitY=0;exitDx=0;exitDy=0;exitPerimeter=0;" parent="1" edge="1">
          <mxGeometry width="50" height="50" relative="1" as="geometry">
            <mxPoint x="952.5" y="570" as="sourcePoint" />
            <mxPoint x="950" y="490" as="targetPoint" />
          </mxGeometry>
        </mxCell>
        <mxCell id="w6qTvtTmNooETmaVql6n-13" value="" style="endArrow=classic;startArrow=classic;html=1;exitX=0.954;exitY=0.05;exitDx=0;exitDy=0;exitPerimeter=0;" parent="1" source="w6qTvtTmNooETmaVql6n-2" edge="1">
          <mxGeometry width="50" height="50" relative="1" as="geometry">
            <mxPoint x="1320" y="560" as="sourcePoint" />
            <mxPoint x="1318" y="490" as="targetPoint" />
          </mxGeometry>
        </mxCell>
        <mxCell id="w6qTvtTmNooETmaVql6n-14" value="" style="endArrow=classic;startArrow=classic;html=1;entryX=0.25;entryY=1;entryDx=0;entryDy=0;exitX=0.5;exitY=0;exitDx=0;exitDy=0;exitPerimeter=0;" parent="1" edge="1">
          <mxGeometry width="50" height="50" relative="1" as="geometry">
            <mxPoint x="1391.25" y="570" as="sourcePoint" />
            <mxPoint x="1388.75" y="490" as="targetPoint" />
          </mxGeometry>
        </mxCell>
        <mxCell id="w6qTvtTmNooETmaVql6n-15" value="" style="endArrow=classic;startArrow=classic;html=1;exitX=0.5;exitY=0;exitDx=0;exitDy=0;" parent="1" source="10b056a9c633e61c-8" edge="1">
          <mxGeometry width="50" height="50" relative="1" as="geometry">
            <mxPoint x="864.95" y="402.97" as="sourcePoint" />
            <mxPoint x="1040" y="220" as="targetPoint" />
          </mxGeometry>
        </mxCell>
        <mxCell id="w6qTvtTmNooETmaVql6n-17" value="" style="endArrow=classic;startArrow=classic;html=1;entryX=0.5;entryY=0;entryDx=0;entryDy=0;exitX=1;exitY=0.5;exitDx=0;exitDy=0;" parent="1" source="10b056a9c633e61c-6" target="w6qTvtTmNooETmaVql6n-1" edge="1">
          <mxGeometry width="50" height="50" relative="1" as="geometry">
            <mxPoint x="1190" y="250" as="sourcePoint" />
            <mxPoint x="1240" y="200" as="targetPoint" />
          </mxGeometry>
        </mxCell>
        <mxCell id="w6qTvtTmNooETmaVql6n-21" value="" style="shape=image;verticalLabelPosition=bottom;labelBackgroundColor=#ffffff;verticalAlign=top;aspect=fixed;imageAspect=0;image=data:image/png,iVBORw0KGgoAAAANSUhEUgAAAgAAAAIACAYAAAD0eNT6AAAABHNCSVQICAgIfAhkiAAAAAlwSFlzAAAN1wAADdcBQiibeAAAABl0RVh0U29mdHdhcmUAd3d3Lmlua3NjYXBlLm9yZ5vuPBoAACAASURBVHic7d13nB1lof/xz2zfTS8kAUNIgAABQZp0HdqlCgYscBUpAqI43h9iBa9X1GuB6xW8jihVmg0x1IReRkMLCRBaEtILKZtNsr2e3fn9MSeQhC3nnD1znpk53/frta9Nwu4539XkPN/zzDPPY/m+j4hEm+V41cCYAT6GAJVARfpzJr+2gM4sPlqBzdt8bNnh91s/GnzX1ouLSIRZKgAi5liOVwHsCkwBJm/zeQLbD+7VZhLmrBuoB2qBVcDKHT6vAtb4rp0yllCkyKkAiITIcrwSYBLbD+7bft4FKDGTzrgeYC3bl4IlwDvAAt+1txjMJpJ4KgAieWI53ljgAGD/9OcDgP2I37v3qFhPUAa2fiwA3vFdu9ZoKpGEUAEQyVJ62n4aHwzyWwf8nU3mKiKb+KAUzAPmAG/5rt1tNJVIzKgAiAzAcrw9gKOBY4AjgX2AMqOhZEetwKsEZWAOMMd37eVmI4lEmwqAyDYsxysDDuKDAf9oggV5Ej8b2aYQAC9rXYHIB1QApKhZjjec4F391gH/cKDGaCgJSw/BLMHT6Y/Zvmu3mY0kYo4KgBSV9Kr8w4BTgVOAQyneVfjFrgN4AXiKoBDM1ToCKSYqAJJ4luNNAE4mGPBPAkabTSQR1QA8R1AGnvRde6HZOCLhUgGQxElfxz+KYMA/BTiQYMc7kWwsAR5Mfzzvu3aP4TwieaUCIIlgOd4IYDpwJnAiMNxsIkmYOuBhgjLwpO/arYbziAyaCoDEluV4wwgG/HMIpvgrzCaSItEGPElQBh7RxkQSVyoAEiuW4w0BPkUw6J8KVJlNJEWuh2Ah4Z+Be33X3mQ4j0jGVAAk8tIn4Z1GMOifjm7Tk2jqAmYBdxPMDHQYziPSLxUAiaT07XonAecDZwBDzSYSyUo98HeCMjBbRyNLFKkASKRYjjcR+DJwMcEpeiJxtwL4E3C379qLDGcReZ8KgBhnOV4pwdT+pQTX9UvNJhIJzRzgD8BftQuhmKYCIMZYjjeF4J3+RcAuhuOIFNJm4I/AH3zXXmI6jBQnFQApKMvxyoFPA18huF9fG/RIMfOBJ4AbgZnailgKSQVACsJyvLHA5cDXgXGG44hE0SrgJuBW7S0ghaACIKGyHG8qcCVwAVBtOI5IHHQC9wG/8V17jukwklwqABIKy/GOAb5FsFOfTtsTyc2zwC99137CdBBJHhUAyZv0av6zgG8DhxuOI5IkrwHXAvdpnYDkiwqADFp6e94vA1cAuxuOI5JkS4H/Ae7QToMyWCoAkjPL8YYTDPpXAKMMxxEpJuuBG4Df+67daDqMxJMKgGQt/Y7fAb4LjDYcR6SYNRDcQvg/vmtvMR1G4kUFQDJmOV4V8DXg++hWPpEoaSC4NHCD79otpsNIPKgAyIAsx6sALgF+gHbsE4myWuDnBDsMao2A9EsFQPpkOV4ZcCHwQ3Qwj0icrAJ+DNypuwakLyoA8iHpo3i/CPwI2MNwHBHJ3SKCAn+fjiSWHakAyHYsxzuWYHXxxwxHEZH8eQ242nftx0wHkehQARDg/ZP5fgWcbTqLiITmUeAK37XfNR1EzFMBKHKW4w0FribYr7/ScBwRCV8X8BvgJ75rN5kOI+aoABQpy/EsggN6fgFMMBxHRApvPXAVwUJBDQRFSAWgCFmOdzTBdf5DTWcREePmAN/QyYPFRwWgiFiON4ngQJFzTWcRkUjxgTuBq3zXXm86jBSGCkARSJ/S902C+4JrDMcRkehqIniduEH7BySfCkDCWY53IHArcIjpLCISG68CF/uu/brpIBIeFYCESu/bfw3wLaDMbBoRiaEU8L/ANb5rt5sOI/mnApBA6c18bgamGo4iIvG3BLjUd+3nTAeR/FIBSBDL8UYSnAh2MWAZjiMiyeEDtwHf8V273nQYyQ8VgISwHO9swAV2Np1FRBJrHeD4rj3DdBAZPBWAmLMcbwJwI3CW6SwiUjTuBy7XLYPxpgIQY5bjnUkwLTfWdBYRKTp1wCW+az9oOojkRgUghizHqwF+DVxmOouIFL1bgG/6rt1iOohkRwUgZizHOxj4M7C36SwiImnvAuf5rv2K6SCSORWAmLAcrwT4NvDfQLnhOCIiO0oR7D3yC9+1ewxnkQyoAMSA5XgTgbuA40xnEREZwGyC2YCVpoNI/0pMB5D+WY73OeANNPiLSDwcA7xhOd55poNI/zQDEFGW4w0FfgtcaDiKiEiu7gEu81271XQQ+TAVgAiyHG9vgvtsp5nOIiIySG8Bn/Fd+13TQWR7ugQQMZbjTQfmoMFfRJLho8ArluNps7KI0QxARKRX+f838H20j7+IJNN1wNW+a3ebDiIqAJFgOd4Ygnv7TzKdRUQkZM8B5/iuXWs6SLFTATAsvbHPDGA301lERApkLfA537VfMB2kmGkNgEGW410IPI8GfxEpLrsAz1mO9x+mgxQzzQAYYDleBXAD8DXTWUREDLuH4FChDtNBio0KQIFZjjee4Ba/I01nERGJiNnAWb5r15kOUkxUAArIcrxpwCxgsuEoIiJRsxQ43XftRaaDFAutASgQy/GOA15Ag7+ISG/2AF60HO9400GKhQpAAViOdz7wODDSdBYRkQgbBTxmOd7FpoMUA10CCJnleNcAPzKdQ0QkZq4FrvJdW4NUSFQAQpJe6X8r8CXTWUREYmoGwdHCbaaDJJEKQAgsxxtJsNL/WMNRRETibi5wmu/aG00HSRoVgDyzHG8KMBMd5iMiki/vACf4rr3edJAk0SLAPLIc7xDgJTT4i4jk077APy3Hm2g6SJKoAOSJ5XjHAM8A40xnERFJoKkEJUBbp+eJCkAeWI73bwS3+Q03nUVEJMGmEJSAPUwHSQIVgEGyHO/TwMNAjeksIiJFYBJBCdjbdJC4UwEYBMvx/h24D6g0nUVEpIjsAniW433UdJA4UwHIkeV4lxCcYlVmOouISBEaDzxrOd6BpoPElQpADizHuwK4Gf3vJyJi0ljgGcvxPm46SBxpAMuS5Xj/CVwPWKaziIgIo4CnLMc7ynSQuNFGQFmwHO9a4Lumc4iIyIc0A5/yXdszHSQuNAOQIQ3+IiKRNhSYZTneiaaDxIUKQAbS0/4a/EVEoq0GeNhyvNNMB4kDXQIYQHrB3/Wmc4iISMY6gXN8137AdJAoUwHoR/pWv5vRgj8RkbhJAV/0Xfte00GiSgWgD+lNfu5Bl0lEROKqG7jQd+17TAeJIhWAXqS3970PbfIjIhJ3PQQl4G7TQaJGBWAH6YN9Hkbb+4qIJEUKONN37UdNB4kSFYBtpI/0fRwd7CMikjQtwAm+a79sOkhUqACkWY53CPAMOtJXRCSp6oBjfNdeZDpIFKgAAJbjTQFeAsaZziIiIqFaCRzlu/Za00FMK/oV7pbjjQRmosFfRKQY7AY8ZjneCNNBTCvqAmA5XgVwPzDNdBYRESmY/YGHLMerMh3EpKIuAMCtwLGmQ4iISMF9EviT5XhFOw4W7Q9uOd41wJdM5xAREWPOBn5nOoQpRbkI0HK884E7TecQEZFIuNJ37aI786XoCoDleMcR3OtfbjqLiIhEQjdwuu/aj5sOUkhFVQAsx5sGvACMNJ1FREQipQE4vJj2CCiaNQCW440HZqHBX0REPmwEwZ0BRTNGFEUB2OZ2v8mGo4iISHTtBdxrOV6p6SCFUBQFALgBONJ0CBERibx/A35tOkQhJH4NgOV4FwJ/NJ1DRERi5VLftW81HSJMiS4AluMdDDwPFPVuTyIikrUugtMD/2U6SFgSWwAsxxsDzCPY91lERCRbG4FDfddeZTpIGBK5BiC9teOf0eAvIiK52wn4m+V4idw3JpEFAPhv4CTTIUREJPaOAK41HSIMibsEYDnedGAGYJnOIiIiiXGW79oPmA6RT4kqAJbj7Q3MAYabziISR6NqyvjohGrTMbL28spmOruT81omkVQPHOy79nLTQfIlMQXAcryhBIP/NNNZROLqxL2GM+OiPU3HyNrUn7/JhqYu0zEk+eYCR/uu3Wk6SD4kaQ3Ab9HgLyIi4TkU+F/TIfIlEQXAcrzPAReaziEiIonnpMec2It9AbAcbyJwk+kcIiJSNG61HC9+18p2EOsCkL7f/y5glOksIiJSNIYDf7ccr9J0kMGIdQEAvg0cZzqEiIgUnQOBn5gOMRixLQDpff7/23QOEREpWt+2HO8Y0yFyFcsCYDleDcFWv4ncnlFERGKhBLgzfRt67MSyABCc1by36RAiIlL0diemtwbGrgBYjncmcJnpHCIiImlfsRzvVNMhshWrAmA53gTgNtM5REREdnCb5XijTYfIRqwKAHAjMNZ0CBERkR3sTDBGxUZsCoDleGcDZ5nOISIi0odzLMc713SITMWiAFiONxJwTecQEREZwO8sx9vFdIhMxKIAAP9DML0iIiISZaOB35kOkYnIFwDL8Y4FLjadQ0REJEPTLcc7w3SIgUS6AFiOVwXcDFims4iIiGTBtRxviOkQ/Yl0AQCuAaaaDiEiIpKlScCPTIfoT2QLgOV4BwLfMp1DREQkR9+0HG9/0yH6EskCYDleKXArUGY6i4iISI7KgJssx4vkZexIFgDgm8AhpkOIiIgM0pHApaZD9CZyBcByvEnAj03nEBERyZNfWo43znSIHUWuAADXAjWmQ4iIiOTJKCJ4YmCkCoDleEcDsdlGUUREJEPnWY53vOkQ24pMAUgvkrjBdA4REZGQ3JBe5B4JkSkAwAXAoaZDiIiIhGR/IrSzbSQKgOV4Q4FfmM4hIiISsp9ajjfcdAiISAEArgYmmA4hIiISsnEEY55xxguA5XhTgCtN5xARESmQK9Jjn1HGCwDwK6DSdAgREZECqSS45d0oowUgfdTv2SYziIiIGPC59K3vxhgrAJbjlaDb/kREpHhdb/KcAJMzAF8EPmbw+UVEREz6OMFYaISRAmA5XhkRPydZRESkAH5hOV61iSc2NQNwIbCHoecWERGJionAV008ccELgOV4FcAPC/28IiIiEfU9E7MAJmYALgEmGXheERGRKBoPXF7oJy1oAbAcrwr4QSGfU0REJAa+azleTSGfsNAzAF8Ddinwc4qIiETdOODrhXzCghUAy/GGAN8v1POJiIjEzHfSY2VBFHIGwCFoOCIiIvJhOwHfKNSTWb7vh/8kwdGHy4HRoT+ZiOSsotRiVE2Z6RhZ29jcRU/4L2UihbAJmOy7dnPYT1Sof+lXoMFfJPI6u302NHWZjiFSzMYA/wH8POwnCn0GIH09YzUwKtQnEhERSYbNBLMATWE+SSHWAHwZDf4iIiKZGg18JewnCXUGwHK8UmAxMCW0JxEREUme1cDuvmunwnqCsGcAzkKDv4iISLZ2BT4X5hOEXQC+HfLji4iIJNW3wnzw0AqA5XjHAIeH9fgiIiIJd4jleHZYDx7mDECozUVERKQIhDaWhrII0HK8qcBCzJw2KCIikhQ+MM137UX5fuCwBugrQ3xsERGRYmEB3wzlgfM9A2A53lhgFVCd1weWSJsyppLj9xxmOkbW7nhlE90Z7iEb15/x7rmb6OzO7GecOKKCk/cZHnKi/Pvzq5tp6+oxHUMkLG3AJN+16/L5oGFsBXw5GvyLziETa7h++iTTMbL2p3mbMy4Acf0Z75u/hc7u7oy+dp/xVbH8GR95p0EFQJKsmmBs/Uk+HzSv0/SW45VT4POMRUREisDX02Ns3uT7Ov2n0ZG/IiIi+TYOmJ7PB8x3AQh972IREZEidWk+HyxvBcByvCnAifl6PBEREdnOiZbj7Z6vB8vnDMDFBLcriIiISP5ZBGNtXuSlAKRP/bsoH48lIiIifbrIcry83MGXrxmA04Fd8vRYIiIi0rudgU/l44HyVQDyujBBRERE+pSXBfeDLgCW400ETs1DFhERKWIn7DWciw8fy6RRFaajRN3JluMNeseufFxH+DJQmofHERGRIvWZA0Zx8+cnU14arCVfvLGdJ99t5Ml3G3luSVPGO3YWiRKCxYA/GuyD5MxyvK0hREREcnLqtBHccs4Hgz/A1J2quPzocdx/0Z7Mu3Jfzj1oNKUlutFsG19OL8DP2WAvAZwExG/jcBERiYSjJg/lzi9MoayfwX33MZXc/PnJzLliGp/92CjUAwCYCJwwmAcYbAE4f5DfLyIiRWr/nau594I9qCrLbCiaulMVt587hX9+Yxp77VQVcrpY+PfBfHPOBcByvGrgjME8uYiIFKfJoyuZcdGeDK/Kfhb7gJ2r8Zx9OOeg0SEki5WzLMerzPWbBzMDcBowdBDfLyIiRaiqrIS/nr8744flfrjdkIoSbvn8ZH579iSqy/N9rE1sjGAQd+EN5n+1cwbxvSIiUqT++7SPsO/46rw81gUfH8uTX9ubsUPysjleHJ2b6zfmVAAsxxtCsPufiIhIxk6dNoKvHLlTXh/zgJ2rmXnpXuw0tChLwBnpMTlruc4AfAqoyfF7RUSkCE0YVs6Nn9ktlMeeNr6KmZfuxbihuV9WiKka4MxcvjHXAqDpfxERyZhlwU2fn8yYEKfq9xlXxcxLpw5qbUFM5XQ3QNYFwHK8YWjrXxERycI3jhnPcXsOC/159h5Xxb3n70FlWVFtFnCy5Xijsv2mXGYAzgR0A6aIiGTkY7vU8KOTC3dg7EETa7h+elHtUVcBnJ3tN+VSADT9LyIiGfvfT++63Ta/hXDeIWO4+PCxBX1Ow7K+GyCrAmA53gjg5GyfREREitPJ+4zgsEk5LVIftGvP2NXYcxtwXLaXAbKdAZhOMNUgIiLSL8uCH55UuKn/HVWUWtzxhSkMrSyKA2tLyfINerYFIKdbDUREpPhM/+goDtg5Pxv+5GriiAp+ZLCEFNinsvnijAuA5XhlwIlZxxERkaJTWmLxg3/b2XQMAC49cicO3bUoLgWcYjlexuN6NjMARwHDs88jIiLF5pwDR0fmxL4SC3579qSCL0Q0YAxwRKZfnE0BOCX7LCIiUmzKSy2uPjEa7/632m9CNc4x40zHKISMLwOoAIiISF5d8PGxTBoVvfXiVx47Iafjh2Mm43N6MioAluNNAA7MOY6IiBSF6vISvnPcBNMxejWiqpSvHpXfg4gi6ADL8XbN5AsznQE4GUj8xRMRERmcCw8by87Do7sX/9ePHlcMtwWelskXZVoANP0vIiIDuvDj0d59b1RNGZfl+TjiCMpoHcCABSB9S8FJg44jIiKJduBHapg2Phor//vjHDOOIRW5HoYbC8dbjjfg/xGZ/C9wGDB68HlERCTJzjtkjOkIGRkzpIxLj0j0LEAN8ImBviiTAqCjf0VEpF8VpRaf/VjWJ9Ia841PjKe6PNGzAPZAX5DJT6/r/yIi0q9T9hnB6Joy0zEyttPQsqSfFvjJgb6g3wJgOd5w4NC8xRERkUT67IHxu1L8/z6Z6FmAwwZaBzDQT35kBl8jIiJFrLTE4rg9h5mOkbXxw8o5J4bFJUOVwOH9fcFAg/vR+csiIiJJdPDEGkbEdIe9cw9ObAGAAdYBDHTB5pg8BpEEa+vqoba5y3SMrPn4GX9tXH/Gnsx/RDpTfix/xu5sfkjJu+P3jO85cUfuNpRJoypYtaXTdJQw9FsALN/v/R9O+vjfBoLbCURERHr1+GV7ceTkoaZj5OwnT6zlV8+uNx0jDK3ASN+1e231/V0COAgN/iIi0o+hlaV8fNIQ0zEGJcHrAGqAj/f1H/srALr+LyIi/frE7kMpK4n3UTF7j6viY7sk9v1un7cD9lcAdP1fRET6dWBCBs5zD0rsLECf6wA0AyAiIjnbe1z09/7PxGc/NorSmM9k9OHo9Jk+H9LrH1qOtwcQzQOdRUQkMpJSAMYPK8feI357GWRgGLBXb/+hrxkAvfsXEZF+lZZY7Dk2GQUA4PMHxucsgywd0tsf9lUAdP1fRET6NWV0BZVlyZk2P3Gv4VjJ+XG2dXBvf9hXATgyxCAiIpIASZn+32rc0HI+OqHadIwwZFYALMerAPYJPY6IiMTaPuOSN1gePzW+uxr24yDL8T40t9HbDMA0Bt4iWEREityEYeWmI+RdQgvACGCPHf+wt4H+gPCzFJfDdxvC2QfE7x7T7z28OuOv/dguNXzhkDEhpgnHD2auIZXhPvJx/Rmveew92rp6MvravXaq4uIjdgo5Uf799In3aO7I7GfcfUwllx01LuRE+ffLp9aypa3bdIztDI/pAUD9OWryUKrLSzL+NxMjhwBLtv0DFYAC+OiEGr52VPxeVLMpAFN3qorlz/ijx97LuADE9Wf8+ZNracvwfJ9Joypi+TP++rn1GReAj4yI58/4u9kbIlcARlQnrwBUllkcNWUoT7/baDpKvh0M/G3bP+jtEsD+hckiIiJxlsQZAIATknkZ4EMLAXsrAJoBEBGRAY1IaAE4ds9EbgjUfwGwHG8ssHPB4oiISGwltQDsO76amor+dsqPpdGW403e9g92/An17l9ERDKSxDUAACUWST0dcLsxfscCoOv/IiKSkaHJe5f8voM+ksgCsN2ZAJoBEBGRnHR2Z3YHTRwdPFEFQEREpFeZ3noZRwcmcwZg721/8/4+AOnzgvcreBwREYml1uRtlvO+qWOrGFpZSnNHZnsvlJZYDKssYVhlafBRFfy6rMSivauH9pRPW1cPHame9Gef1q4eGtsLurfDdjMA224ENAlI3sbOIiISikwHxziyLDhwl2pmL2+mrMRi11EVTBldyZTRFUwZU8mU0ZVMHl3JuKFlDK8qpbo8t/UQbV09rG/s4r3GLtY1dLK2sYu1jV28V9/J/LWtrNzSmc8fa4LleMN8126C7QvA5Hw+i4iIJFtrZ3JnAAD+7+zdKCuBiSMrKCsJ55zg6vKSoFCMqez1v29sTjF3dQuvrG5h7qoW5q1ppWlwxWsvYB5sXwCmDOYRRUSkuDQnvADsObb3QbmQdhpaxqnTRnDqtBEA9PiwqLY9KAWrWpi7uoUFte10Z7ilOX0UgMn5DC0iIsmW9BmAKCqxYNr4KqaNr+JLhwaHk7V09vDqmhaeXtzEffM3s6r/ywbvLwTUDICIiOSkpTO5awDiZEhFCZ/YfRif2H0Y15y8C3NWtXDv65t54M16aps/dBLY+wsBNQMgIiI5WdeY4TGTUlCHTRrCYZOGcO2nJvLPpU3cO38LD79dv/WOg14LgGYAREQkY0vqOkxHkH6UllgcN3U4x00dzg3TJ/HEogZmvLFl363/vQTAcrwKYBdjKUVEJHaW1LWbjiAZqiyzOGO/kfzx36dU/9dDi3eDD3YC3JXejwYWERHp1eKNmgGIo8pS66PwwaCv6X8REclKbXPXYO9JFwMqy0v2gQ8KwGRzUUREJK6WaBYgdqrKrD1AMwAiIjIIWgcQP9XlJRNBMwAiIjIIi3UnQOwMqSjZGT4oABMMZhERkZjSDED8DK0sHQsfFIAxBrOIiEhMzV3dajqCZGl4VekIUAEQEZFBWLG5g9X1eT2yVkI2srp0CKgAiIjIID23pMl0BMnC2CFl5QAlluNVA9WG84iISEx5S1UA4mRYZan1nw++O7oEvfsXEZFB+KcKQOxUlpbsrwIgIiKDsr6pi0W1uhsgTirLrGkqACIiMmi6DBAvVeUle6gAiIjIoKkAxEtZiaU1ACIiMnj/WtZEj286hWSqvNQargIgIiKDVt/WzWtrWkzHkAyVlVjDVABERCQv7p2/xXQEyVB5qTVEBUBERPLivvmbSek6QCxsLQBDTAcREZH429ic4ul3G03HkAyUl1rVJUCl6SAiIpIMf3lts+kIkoGKdAGoMB1ERESSYdY7DTS2d5uOIQOoKLUqNQMgIiJ5057qYcabWgwYdZVlJSoAIiKSX395VZcBoq6yzCovQ5cAQreusZPZy5K9S9bG5q5Y/ow9WaxYjuvPmM2q7C2tqVj+jJ2pnoy/tqG9O5Y/Y0cqPqvrX1zRzIrNHUwerfeXUVVZVlJm8fXn3gL2Mx1GRESS46oTd+aqE3Y2HUP68F5DZ0qXAEREJO/+oU2BIq26vKREdwGIiEjenbDXcNMRpB+pHt/SDICIiOTVMVOG8l8n7WI6hvShtbOHL96zTJcAREQkf75w8Bj+cdGeDKkoMR1FetHZ7fOFe5bx8soWS3cBiIjIoE0eXcn1n95VU/8R1t3jc/Ffl/PM4kaAkjI0AyAiIjmy9xjGV47cidOmjaC0xDIdR/rxH/ev4sG36rf+tqTMZBgREYmXyjKLwyYN5ZN7DGX6R0ex97gq05FkAN09Pt9+aDV3z9203R+XAR1AjZlYIiISVRWlFpNGVTB5dCUHfaSGT+4xjMN3G0JVma7vx0VzRzcX/GU5Ty760CmNHWVAJwktADsNLaPE0pSUiEipBVXlJdSUl1Bdkf5cXkJNRQlVZcHn0TWlTB5dmf6oYJfhFWhWP77WNHTy+TuW8tb6tt7+c+fWGYBEWvj9/Skv1d9eEREpLq+taeWcu5ayvqmrry/pSGwBGF5VqsFfRESKzj3zNvGtB1fT1tXvGRnvXwJInNE1Wt8oIiLFo7a5i/+YsYpZCxoy+fLkXgIYM0QFQEREisMDb9XzzQdWsakllem3JPcSwOiaUtMRREREQrW5NcV3Hl7D31/fnO236hKAiIhI3HR2+9z0Qi3XPbOehvbunB4isTMAlVoAKCIiCfTAW/X816PvsWLzoIbv5F4C0JaUIiKSJC+saOaax9by0srmfDxcci8BlKkAiIhIzDV1dPPX1zZz+8t1vN37hj65Su4lAM0AiIhIXM1f28ptL9Vx7/zNtHb2ez9/rjrKgJYwHtm0Um1VLSIiMdLW1cM/3tjCbS/XMW916ENzSxmwacAviyFdAhARkThYVNvObS/X8ZdXN+W6oj8XmxJbAHQJQEREoqg91cOLK1p4dnEjzy5pYv7aVhMxklsAdFqliIhEge/DG+taeXZJE88ubuTFFS20p0K5A7ZmNQAAIABJREFUrp+N5BYAzQCIiIgpq7Z08tzSJp5bErzLz2KL3kJJcAGwVABERCQ8PT6s2tLBwtp2FtW2v/95UW07TR0Fu5afq+QWAF0CEBGRXHX3+GxqTbGxOcXGlhR1zSk2NnexsSXFis0dvFvbzuK6joGO3I2yBBcAbQUsIiJ9OO+eZSyua6e7B7p9n1S3T7cfDPztKZ/6thS+bzplqJJbAHQJQEREelPXkuLhd+qTPsAPZFOJ79ptQF73F4wC7QMgIiK9eXZxY7EP/m2+a7dtvVKeuFkA7QQoIiK9eXpxk+kIpm0CSGwBSPUUd70TEZHePbuk0XQE05JdAJo7YrsyU0REQvLOhjbWNXaZjmHadgVgvcEgoWgJ5/QkERGJsWc0/Q/pMX9rAVhhLkc4YrAJg4iIFNjTi4t++h/SY/7WArDcXI5waAZARES21Z7q4YXlzaZjRMFySPAMQItmAEREZBsvrmiJ8859+bQCEjwD0KwZABER2cbT72r6P227GYDVQKJGTN0FICIiW/k+3P/mFtMxoqCHYMwPCoDv2p3AWpOJ8q2lU5cAREQk8PKqZlbXd5qOEQVr02M+2+6Xl6jLALoEICIiW/39db37T3t/rN+2AKwofI7wNLZrBkBERIKdYWdo+n+rFVt/kdgZgM2tKbq6tR2wiEixe2ZxI5taUqZjREXyZwB8H2qb9X+4iEixu1fT/9tasfUXiZ0BANjQVPT7PYuIFLW2rh4eeafedIwoSf4MAMB6FQARkaI2850GWrUofFsrtv5i2wKwCmgreJQQrdeJTyIiRe3e1zebjhAlbQRjPbBNAfBduwd420SisOgSgIhI8drcmtLhP9t7Oz3WA9vPAAC8UeAwodIlABGR4nXX3E26G2x7243xKgAiIpI4qR6fm16oNR0javotAG8WMEjoVABERIrTA2/W816DxoAdbDfGJ3oGYIMWAYqIFCV39gbTEaKo7xkA37XrgHUFjROi2uYUPbr8IyJSVF5c0cyra1pNx4iadekx/n07zgBAgmYBUj2+LgOIiBSZ383Wtf9efGhs760AJGodwKLadtMRRESkQFZu6dTOf7370Nie6BkAgEW1idrbSERE+nHj87W69Nu7jGYAElYANAMgIlIMmjq6uXvuJtMxoiqjArAASMwxeioAIiLF4Y45dTR3dJuOEUUpgrF9Ox8qAL5rdwILC5GoEBZtVAEQEUm61s4ebvinbv3rw8L02L6d3mYAAF4MOUzBbGxOsaU1MRMaIiLSC3d2LRub9Vrfh17H9L4KwOwQgxTcQl0GEBFJrC2tKf7vX3r3349ex/S+CsDzIQYpOF0GEBFJruu9DTS269p/P3od03stAL5rLwXWhxqngLQQUEQkmdY1dnHTixtNx4iy9ekx/UP6mgGABM0CqACIiCTTdc+so62rZ+AvLF59juX9FYDErANQARARSZ7lmzq4S/f9D6TPsbwoZgDWNHTS2qmGKCKSJD97ah1d3dr2bwA5zQC8BiTiOCXfh/lrE/GjiIgI8Pb6Nu6bv9l0jKhrJRjLe9VnAfBdOwW8HEYiE15a2WI6goiI5MkPZr2nPf8H9nJ6LO9VfzMAkKB1AC+uaDYdQURE8uAfb2zhmcWNpmPEQb9j+EAFIDHrAF5a2YyvtigiEmtNHd1c9cga0zHiot8xfKAC8CKQiNVz9W3d2hFQRCTmfvLEWtY3dZmOEQc9DLCtf78FwHftRmBuPhOZpMsAIiLx9fp7rdyiTX8yNTc9hvdpoBkAgMfyFMa4F1eqAIiIxFGPD//vgVVa+Je5AcfuTArAo3kIEgmaARARiadbX9rIa2t0O3cWBhy7MykAc4BE3Gy5aksn6xp17UhEJE7WN3XxkyfWmo4RJ5sJxu5+DVgAfNfuAZ7IR6Io0CyAiEi8XD1zjU77y84T6bG7X5nMAIDWAYiIiAGPL2zgvvlbTMeIm4zG7EwLwONAIpZevLRCOwKKiMRBbXMXl/9jpekYceMTjNkDyqgA+K69Hnh9MImi4q31bTR3aCpJRCTKfB+++veVbGzucydb6d3r6TF7QJnOAEBCLgN09/g6F0BEJOL+8EItT72r7X5zkPFYXXQFAGDmO/WmI4iISB/eWt/Gfz32nukYcRVKAXgBSEQde+SdBm0mISISQW1dPVz81+V0pPQinYNGgrE6IxkXgPSRgk/lkihqNjR18bLuBhARiZz/nPUeCzbo3JYcPdXf8b87ymYGAOChLL8+sh56W5cBRESi5LGFDdzykvb6H4SsxuhsC8ADQGeW3xNJD72lAiAiEhUbmrq4/D7d8jcInQRjdMayKgC+azeQ4f2FUbe6vpP5a7WvtIiIaakeny//dQV1LbrlbxAeT4/RGct2BgDgbzl8TyQ9qFkAERHjvv/IGv61rMl0jLjLemzOpQA8BCRihYYuA4iImHXX3E3c/KKu+w9SOzms0cu6APiu3URCjgh+d2M7i2oT0WVERGJnzqoWrnxglekYSfBoemzOSi4zAJCgywC6G0BEpPDWNnbxxXuW0dmt+/3zIKcxOdcC8AiQiBV0ugwgIlJY7akevnD3UjY0dZmOkgStBGNy1nIqAL5rtwAzc/neqJm/tpVVWxJxZ6OISCz8v/tX8eqaRLyHjIKZ6TE5a7nOAIAuA4iISJZ+N7uWv7y62XSMJMl5LB5MAZgFJGI/3fvm6y+jiEjYnn63kf98VIf85FEzwVick5wLgO/abcDDuX5/lLy6ppW5q3VEsIhIWOatbuGLf1pGt05iy6eH02NxTgYzAwBw1yC/PzJufL7WdAQRkUR6d2M7n7ljKa2dPaajJM2gxuDBFoAngETcxPngW/Wsa9SKVBGRfHqvoYvpty1hc6u2+c2zVQRjcM4GVQB81+4BbhvMY0RFV7fPbS9rNyoRkXzZ3Jpi+u2LWdOgO61CcFt6DM7ZYGcAAG4HuvPwOMbd/nIdHSldnxIRGazWzh4+e8dS7bYajm6CsXdQBl0AfNdeQ0K2Bq5rSfF33REgIjIoXd0+X/zTMi2uDs+j6bF3UPIxAwBwS54ex7g/aDGgiEjOfB8u+/sKnn630XSUJMvLmJuvAjATWJunxzLqjXVtPL88EdsbiIgU3HceXs1987eYjpFka8nTTrx5KQC+a3cDf8zHY0XBH17QLICISDZ8H7714God7Ru+P6bH3EHL1wwABHcDJGIF3SPvNLC6XqtWRUQy0ePDf9y/ilte0uAfMp883nmXtwLgu/Zy4Kl8PZ5J3T2+WqyISAa6e3y++vcV3PlKnekoxeCp9FibF/mcAQC4Oc+PZ8ydr9TR1qVdq0RE+pLq8bnkbyv462u6e6pA8jrG5rsAPAgk4gJ6fVu3TqwSEelDV7fPhX9ezj/e0IK/AqklGGPzJq8FwHftLuB3+XxMk37zrw10didiWYOISN50pHy+eM8yHaVeWL9Lj7F5k+8ZAIAbgZxPJ4qS5Zs6uEl3BIiIvK+tq4dz7lrKYwsbTEcpJm0EY2te5b0A+K5dB9yZ78c15dpn1rOpRYdYiIg0tHfzmT8u4ZnF2uSnwO5Mj615FcYMAMCvgUSsoGts7+ZnT60zHUNExKhVWzo58feLmK2N0gqth2BMzbtQCoDv2ouBh8J4bBP+OKeOBRt0oIWIFKfX1rRy/I2LdLCPGQ+lx9S8C2sGAOB/Q3zsguru8blq5qDPXRARiZ1ZCxo45eZ3qW3O6/ozyVxoY2loBcB37dnAy2E9fqE9s7iRx7XoRUSKyE0vbOQLdy/VnijmvJweS0MR5gwAwK9CfvyC+sGs90j16LZAEUm2Hh+umrmG7zy8Gr3kGRXqGBp2AbgfyNu2haa9u7GdW7XXtYgkWFtXD+f/aRm/m61boA1bTjCGhibUApA+sej6MJ+j0H7x9Hq2tOq2QBFJng1NXZx+y2Jt8BMN1+fr1L++hD0DAHA7kJi9Ire0pvjF0+tNxxARyauXVjbzid8uZO7qFtNRJBgzbw/7SUIvAL5rtwA3hP08hXTrSxtZvFG3w4hIMtz0wkZOv2Ux65u00j8ibkiPnaEqxAwABAUgMSfrpHp8rp71nukYIiKD0tbVwyV/W8F3Hl5Nl849iYrNFOhNc0EKgO/ajcB1hXiuQnl8YQNPvavtMEUknpZv6uCEGxdx7+uJeW+WFNelx8zQFWoGAMAlIUcFb/WNGSupbwt1jYaISN49vrCBT7oLeWt9Is5tS5JagrGyIApWANLXM35ZqOcrhPcauvjmA6tMxxARyUiPDz9/ah2fv2spDe168xJBvyzEtf+tCjkDAPB7YG2BnzNU/3hji6bQRCTy6lpSfO7OJfzy6XX4utwfRWsJxsiCKWgB8F27HfhZIZ+zEK58cDVr6jtNxxAR6dWTixo54oYFPLlI65Yi7GfpMbJgCj0DAHArkKh588b2br5y7wptmSkikdKe6uE7D6/mM3cs0WE+0baKYGwsqIIXAN+1O4GfFvp5wzZ7eTO//dcG0zFERAB4c10btruQm17Q9uUx8NP02FhQJmYAAO4Alhp67tD89Im1vLxSu2iJiDm+D+7sWo6/cSELNmjDshhYSjAmFpyRAuC7dgr4sYnnDlNnt895f1rGukZNtYlI4a1r7GL67Yu5euYaOlK6JhkTP06PiQVnagYA4E/AfIPPH4oNTV188Z5l+scnIgX10Nv1HPGbBTy7pMl0FMncfIKx0AhjBcB37R7gClPPH6a5q1u0P4CIFMTG5hRf/utyzrtnmU4qjZ8r0mOhESZnAPBd+zlghskMYbln3iYtvhGRUP1p3iYOvf4d7pufmANXi8mM9BhojNECkPZtoMN0iDBcNXMN/1qm6TgRya9lmzo449bFfO2+lXrXH08dBGOfUcYLgO/ay4Ffm84RhlSPzwV/Xs6yTYnsNyJSYKken+u9DRz5mwV4S/XmIsZ+nR77jDJeANJ+Dqw3HSIMdS0pzrxtMWt1Z4CIDMKra1qx3YX86LH3aOsydtlYBm89wZhnXCQKgO/azcBVpnOEZdWWTqbftpjNmqoTkSy1dvbw/UfWcMLvF/HmOp3elwBXpcc84yJRANLuBOaaDhGWhbXtfOaOpbR0qrmLSGZmvLGFQ69/hxufr6Vbe40nwVyCsS4SLD9Cx0JZjnc0MNt0jjAdt+cw7r1gTyrLLNNRRCSi5q9t5XsPr+GFFZF4oyj5c4zv2s+bDrFVpAoAgOV4fwHONZ0jTGfuN5I7vzCF0hKVABH5wMbmFD95Yi13z63T4WLJ81fftf/ddIhtRekSwFbfA1pNhwjTQ2/Xc/k/VmpKT0SAYBvx//vXBg781dvc+YoG/wRqJRjbIiVyMwAAluN9G/gf0znCdsZ+I7n93Cm6HCBSxB5d0MDVs9awtE63CyfYd3zX/pXpEDuK4gwAwPXAPNMhwvbw2/V89o4lWhgoUoQW1rYz/fYlnHPXUg3+yTaPYEyLnEjOAABYjncg8ApQZjpL2A6eWMOMi/ZkdE3if1SRorewtp3/eXY9/5i/WVP9yZcCPu679uumg/QmsgUAwHK8XxLB6yZh2GdcFQ9cPJVdhpebjiIiIXh7fRvXPbOeB9/aooG/eFzru/b3TYfoS9QLQBXwBjDVdJZCmDSqgocunsruYypNRxGRPJm/tpXrnlnPI+/UE+GXW8m/xcABvmu3mw7Sl0gXAADL8Y4FngGKYqXcmCFl3PmFKXxy92Gmo4jIILy6ppVrn1nHowsaTEeRwvOB402f9jeQyBcAAMvxbgEuMZ2jUMpKLH522kf42tHjTEcRkSzNWdXCtc+s48lFjaajiDm3+q59qekQA4lLARgJvAPsbDpLIZ170Gh+c9YkqsujerOGiGz1wopmrn16Hc8u0Sl9RW4dsK/v2vWmgwwkFgUAwHK8s4F/mM5RaB/bpYa/fGl3Jo6sMB1FRHrxz2VNXPv0ev61TAO/APAZ37VnmA6RidgUAADL8WYAZ5nOUWhjh5Rxh9YFiETKs4sb+eUz63lR+/XLB+73Xfts0yEyFbe55cuBOtMhCq2uJcX025Zwwz836PYhEcOeXNTICb9fxKdvX6LBX7ZVRzBGxUasZgAALMc7E3jQdA5TDt9tCH/47GT2GKtbBUUKadaCBq59Zh2vrUn0USWSu0/7rv2Q6RDZiF0BALAc7w/AZaZzmFJdXsKPT9mFy44ch1UUN0eKmFHf1s29r2/m9pfreGdDm+k4El03+a79VdMhshXXAlADvArsbTqLSZ/YfRg3fnY3dhulBYIi+fT88mbueKWOB9+spz2lszqkX4uAg33Xjt3UUCwLAIDleAcDLwFFvXfukIoSfnbaRL58+FjTUURibWNzij+/uok7X6ljiQ7nkcx0AUf4rv2q6SC5iG0BALAc77vAtaZzRMFxew7jujN2Ze9xVaajiMRGjx+s5r/zlTpmLmigqzu+r4dixPd8177OdIhcxb0AlABPAceZzhIFZSUWXz58LFefuLNOFhTpx3sNXdwzr467XtnE6vpO03Eknp4FTvRdO7bXiGJdAAAsx5tIcGDQKNNZomJkdSnfP2FnLj1iJ8pLtUpQBCDV4/P4wkbueKWOp95tpFv31EruthAc9LPGdJDBiH0BALAc73PAvaZzRM2eYyv52WkTOXXaCNNRRIxZsbmDO1/ZxJ/mbWJ9U5fpOJIMn/dd+++mQwxWIgoAgOV4fwQuNJ0jio7bcxg/P30i+02oNh1FpCA6Uj4Pv13PXa/U4S1r0jG8kk93+K59kekQ+ZCkAjAUmANMM50liiwLPrXvSK60x3PIrkNMxxEJxZvr2vjzq5v4y6ub2dyaMh1HkmcBcJjv2onYAjIxBQDAcry9CUrAcNNZoszeYxhXHjuB4/bU2QISb13dPrOXNzNrQT2z3mnQgj4JUyPB4L/IdJB8SVQBALAcbzowA9DqtwEcNLGGK+0JnLHfSEr0v5bERH1bN08uamDWggaeWNRIU0e36UiSfD5wtu/aD5gOkk+JKwAAluP9HLjKdI64mLpTFVd8cjznHDSaCt01IBG0YnMHsxY0MOudBl5Y0UxKK/ilsH7hu/bVpkPkW1ILQAnwKHCS6SxxMnZIGeccNJrzDhmjBYNiVI8P81a3BIP+gnoWbGg3HUmK1xPAqXG+378viSwAAJbjjQHmAbuZzhJHB36khvMOGcPnDxzNyOpS03GkCLR19fDskiZmvVPPYwsbqW3WLXti3ErgEN+1N5kOEobEFgB4/7yA5wHtj5ujyjKL0/cdyXmHjOH4qcO1VkDyakNTF48tDK7nP7ekibauxL3JkvhqB46O6z7/mUh0AQCwHO9C4I+mcyTBLsPLOeeg0Xxq35EcsusQlQHJWkfK5/X3WvnnsiYeXdDAvDUtukdfouoi37XvMB0iTIkvAACW490IfM10jiQZO6SMk/YewSnTRnDC1GEMq9RlAvmwNQ2dzFnZwpxVwccba1vp1IE7En2/9137ctMhwlYsBaACeA440nCURCovtTh68lBOmTaCU/YZwe5jKk1HEgM6Uj7z17YGg/3KZuasamFto67jS+y8CBzru3biN5UoigIAYDneeOAlYLLhKIk3dacqTtp7OEdNHsrhuw1h3NBy05EkBGsbu5izqoWX04P9G2tb6UgVx+uJJNYK4AjftTeYDlIIRVMAACzHmwa8AIw0naWYTBlTyRG7DeHwSUM5YvIQ9hlXrfUDMdPZ7fPG1nf3q1qYs7KFNQ2Jf4MkxaUeOMp37QWmgxRKURUAAMvxjgMeB/S21JDhVaUcNmkIh+82hCN2G8rBE2u0hiBCOrt9VmzuYMGG9vSA38zr7+ndvSRaF3Cy79rPmg5SSEVXAAAsxzsfuNN0DvnAriMr2G9CNR/duZp9x1ez34Rqpu5USZmmCkKxdZBftqmDpXXB5yWbOlhW187q+k600Z4UmQt8177LdIhCK8oCAGA53jXAj0znkL5VlFrsPa6KfScEhWC/8dXsObaSXUdVqBhkYOsgv3WAX7r1o66dNRrkRbb6se/a15gOYULRFgAAy/HuAr5kOodkp7TE4iMjypk8qpLJoyvYbXQlU0ZXstuoCiaPrmSnoWWmIxZMR2qbd/Kbtr6jb2fppg4N8iIDu9t37fNNhzCleF4pe3cJsCtwrOEckoXuHp9VWzpZtaWTfy778H+vqShh8qhKxg8vZ+yQMsYOKWNMTfB57NDtfz+qpsz4gsQeH5o6uqlv66a+LZX+3E1D+we/b2jrZktbKv1n3e//WV1LlwZ5kdw8RzAGFK2ingEAsBxvJMGdAdNMZ5HCK7FgVE0ZwypLKS+1KC+xKC+1KC1hu9+XbfPr8lKLsh1+ve3vy0vSX5/+dWtXT3rATm0zsKcH9LZuGju6tRueSGEtIFjxX286iElFXwAALMebQrBHwDjTWUREJFS1BPf6LzcdxLQS0wGiIP0X4TSg0XQWEREJTSNwmgb/gApAmu/a84DTgVbTWUREJO9agdPTr/WCCsB2fNeeDUwHOkxnERGRvOkApqdf4yVNBWAHvms/CZwDpExnERGRQUsB56Rf22UbKgC98F37QeB8oMd0FhERyVkPcH76NV12oALQB9+1/wJcBug2CRGR+PGBy9Kv5dILFYB++K59K3Cl6RwiIpK1K9Ov4dIHFYAB+K59A/BD0zlERCRjP0y/dks/tBFQhizHuxb4rukcIiLSr+t81/6e6RBxoBmADKX/Ql1nOoeIiPRJg38WVACykP6LpcsBIiLR80MN/tnRJYAcWI53BfBrQIfSi4iY5RMs+NM1/yypAOTIcrxLgJvQLIqIiCk9BLf6abV/DlQABsFyvH8H7gLKTGcRESkyKYJNfnSff45UAAbJcrxPA38DKk1nEREpEh0E2/tqh79BUAHIA8vx/g14AKgxnUVEJOFaCQ720d7+g6QCkCeW4x0DzASGm84iIpJQjQRH+upUvzzQArY8Sf+FPB6oNZ1FRCSBaoHjNfjnjwpAHvmuPQ84AlhgOouISIIsAI5Iv8ZKnqgA5Jnv2suBo4DnDEcREUmC54Cj0q+tkkcqACHwXbseOBm423QWEZEYuxs4Of2aKnmmRYAhsxzvGuBHpnOIiMTMj33XvsZ0iCRTASgAy/HOB24Fyk1nERGJuC7gEt+17zIdJOlUAArEcrzjgBnASNNZREQiqh4423ftZ00HKQYqAAVkOd40YBYw2XAUEZGoWQGc5ru27qIqEC0CLKD0X+wjgBdNZxERiZAXCW7z0+BfQCoABea79gbgWOD3hqOIiETB74Fj06+NUkC6BGCQ5XgXEvzlrzIcRUSk0NqBr/mufYfpIMVKBcAwy/EOJlgcuJvpLCIiBbKSYLHfq6aDFDNdAjAs/Q/gEOAJ01lERArgCeAQDf7mqQBEgO/am4BTgV8AmpIRkSTyCV7jTk2/5olhugQQMZbjTQfuRMcKi0hyNAIX+K79gOkg8gEVgAiyHG9v4H5gmuksIiKDtAA4y3ftRaaDyPZ0CSCC0v9QDgPuMBxFRGQw7gAO0+AfTZoBiDjL8T4H3ASMMp1FRCRDW4DLfNf+u+kg0jcVgBiwHG8icBdwnOksIiIDeBY433ftNaaDSP90CSAG0v+QTgS+R3BSlohI1HQRvEadqME/HjQDEDPpjYP+DOxtOouISNoi4Au6tz9eNAMQM+l/YAcTrAsQETHtJuBgDf7xoxmAGLMc70zgNmCs6SwiUnTqgIt9137IdBDJjWYAYiz9D29/gj0DREQK5X5gfw3+8aYZgISwHO9swAV2Np1FRBJrHeD4rj3DdBAZPM0AJET6H+S+wK3oPAERyS+f4LVlXw3+yaEZgASyHO9Y4GZgquEoIhJ/i4Gv+K79nOkgkl+aAUig9D/UA4BrgZTZNCISUymC15ADNPgnk2YAEs5yvAMJpu4OMZ1FRGJjHnCJ79qvmw4i4dEMQMKl/wEfDnwHaDUcR0SirZXgteJwDf7JpxmAImI53iSCKb1zTWcRkcj5K/A937VXmQ4ihaECUIQsxzsauAE41HQWETFuLnCF79rPmw4ihaVLAEUo/Q/9MOAiYL3hOCJixnqC14DDNPgXJ80AFDnL8YYCVwNXApWG44hI+DqAXwM/91272XQYMUcFQACwHG8K8CvgbNNZRCQ0M4Bv+6693HQQMU8FQLaT3kToBuBjhqOISP7MJ7jO/5zpIBIdWgMg20m/QBwMnA8sNZtGRAZpKcG/5YM1+MuONAMgfbIcrwy4EPghMMlsGhHJwirgp8AdvmtrN1DplQqADMhyvArgEuAHwC6G44hI39YCPwNu9V2703QYiTYVAMmY5XhVwNeA7wPjDMcRkQ/UAr8Efu+7drvpMBIPKgCSNcvxhgAO8F1gtOE4IsVsM3Ad4Pqu3WI6jMSLCoDkzHK84cAV6Y9RhuOIFJMtBHfr3OC7dqPpMBJPKgAyaOkZgS8TFIHdDccRSbLlwPXA7XrHL4OlAiB5YzleKXAW8G2CEwhFJD9eJtio637ftbtNh5FkUAGQUFiOdwzwLeBMtN+ESC56gIeA//Vde7bpMJI8KgASKsvxphKcM3ABUG04jkgctAF3Ar/2XXux6TCSXCoAUhCW440FLge+jm4hFOlNLfA74EbftetMh5HkUwGQgrIcrxz4NPAV4ETAMptIxCgfeAq4GXjQd+0uw3mkiKgAiDHpEwgvJjiTXDsMSjFZC/wRuE0n84kpKgBiXPrugdOBS4FTgVKziURC0Q08CtwCzNRqfjFNBUAixXK8iQR7ClyMDiCSZFgF3EZw7/4a02FEtlIBkEiyHK8EOIngKNMzgKFmE4lkpRl4GLgLeMJ37R7DeUQ+RAVAIs9yvGrgNOAcgksFNWYTifSqFZgJ/A2Y5bt2m+E8Iv1SAZBYSW87/CmCMnAqUGU2kRS5doLr+n8DHtH2vBInKgASW5bjDSPYafAc4GSgwmwiKRKdwOMEg/5Dvms3Gc4jkhMVAEkEy/FGANPnn3byAAABrUlEQVQJCsGJwHCziSRhGgnu138IeMB37QbDeUQGTQVAEsdyvDLgKOCU9MeBaMMhyY4PvA48lv54wXftlNlIIvmlAiCJZzneBIJLBKcQ3Fkw2mwiiajNwBMEA/7jvmuvN5xHJFQqAFJU0rcXHkawgPAU4FB0WmGx6gHmEgz4jwJzdLueFBMVAClqluMNB44EjgaOAQ5HtxkmVSvwMjAbeB540XftRrORRMxRARDZRnr9wEF8UAiOBiYYDSW5Wk8w0G8d8F/TdXyRD6gAiAzAcrw9+KAQHAnsA5QZDSU7SgELgRdJD/i+ay81G0kk2lQARLJkOV4FMA04IP2xf/rzziZzFZF1wBvAm+nPbwALfNfuNJpKJGZUAETyxHK8sWxfCA4A9gOqTeaKsTbgbT4Y5N8E3vBdu85oKpGEUAEQCVH6roNJwGRgSi+fd6F470LoAdYCy4EVvXxepVX5IuFRARAxKH05YVc+XA4mAGO2+YjbLEIbsGmbj/V8eJBfrWl7EXNUAERiIH0i4pgBPoYAlQRnIlRm+GuADoL97Tsy/HUL2w/uH/rQSXgi0ff/AbQW0hxsrYR9AAAAAElFTkSuQmCC;" parent="1" vertex="1">
          <mxGeometry x="110" y="-280" width="82" height="82" as="geometry" />
        </mxCell>
        <mxCell id="w6qTvtTmNooETmaVql6n-22" value="" style="shape=image;verticalLabelPosition=bottom;labelBackgroundColor=#ffffff;verticalAlign=top;aspect=fixed;imageAspect=0;image=data:image/png,iVBORw0KGgoAAAANSUhEUgAAAgAAAAIACAYAAAD0eNT6AAAABHNCSVQICAgIfAhkiAAAAAlwSFlzAAAN1wAADdcBQiibeAAAABl0RVh0U29mdHdhcmUAd3d3Lmlua3NjYXBlLm9yZ5vuPBoAACAASURBVHic7d13nB1lof/xz2zfTS8kAUNIgAABQZp0HdqlCgYscBUpAqI43h9iBa9X1GuB6xW8jihVmg0x1IReRkMLCRBaEtILKZtNsr2e3fn9MSeQhC3nnD1znpk53/frta9Nwu4539XkPN/zzDPPY/m+j4hEm+V41cCYAT6GAJVARfpzJr+2gM4sPlqBzdt8bNnh91s/GnzX1ouLSIRZKgAi5liOVwHsCkwBJm/zeQLbD+7VZhLmrBuoB2qBVcDKHT6vAtb4rp0yllCkyKkAiITIcrwSYBLbD+7bft4FKDGTzrgeYC3bl4IlwDvAAt+1txjMJpJ4KgAieWI53ljgAGD/9OcDgP2I37v3qFhPUAa2fiwA3vFdu9ZoKpGEUAEQyVJ62n4aHwzyWwf8nU3mKiKb+KAUzAPmAG/5rt1tNJVIzKgAiAzAcrw9gKOBY4AjgX2AMqOhZEetwKsEZWAOMMd37eVmI4lEmwqAyDYsxysDDuKDAf9oggV5Ej8b2aYQAC9rXYHIB1QApKhZjjec4F391gH/cKDGaCgJSw/BLMHT6Y/Zvmu3mY0kYo4KgBSV9Kr8w4BTgVOAQyneVfjFrgN4AXiKoBDM1ToCKSYqAJJ4luNNAE4mGPBPAkabTSQR1QA8R1AGnvRde6HZOCLhUgGQxElfxz+KYMA/BTiQYMc7kWwsAR5Mfzzvu3aP4TwieaUCIIlgOd4IYDpwJnAiMNxsIkmYOuBhgjLwpO/arYbziAyaCoDEluV4wwgG/HMIpvgrzCaSItEGPElQBh7RxkQSVyoAEiuW4w0BPkUw6J8KVJlNJEWuh2Ah4Z+Be33X3mQ4j0jGVAAk8tIn4Z1GMOifjm7Tk2jqAmYBdxPMDHQYziPSLxUAiaT07XonAecDZwBDzSYSyUo98HeCMjBbRyNLFKkASKRYjjcR+DJwMcEpeiJxtwL4E3C379qLDGcReZ8KgBhnOV4pwdT+pQTX9UvNJhIJzRzgD8BftQuhmKYCIMZYjjeF4J3+RcAuhuOIFNJm4I/AH3zXXmI6jBQnFQApKMvxyoFPA18huF9fG/RIMfOBJ4AbgZnailgKSQVACsJyvLHA5cDXgXGG44hE0SrgJuBW7S0ghaACIKGyHG8qcCVwAVBtOI5IHHQC9wG/8V17jukwklwqABIKy/GOAb5FsFOfTtsTyc2zwC99137CdBBJHhUAyZv0av6zgG8DhxuOI5IkrwHXAvdpnYDkiwqADFp6e94vA1cAuxuOI5JkS4H/Ae7QToMyWCoAkjPL8YYTDPpXAKMMxxEpJuuBG4Df+67daDqMxJMKgGQt/Y7fAb4LjDYcR6SYNRDcQvg/vmtvMR1G4kUFQDJmOV4V8DXg++hWPpEoaSC4NHCD79otpsNIPKgAyIAsx6sALgF+gHbsE4myWuDnBDsMao2A9EsFQPpkOV4ZcCHwQ3Qwj0icrAJ+DNypuwakLyoA8iHpo3i/CPwI2MNwHBHJ3SKCAn+fjiSWHakAyHYsxzuWYHXxxwxHEZH8eQ242nftx0wHkehQARDg/ZP5fgWcbTqLiITmUeAK37XfNR1EzFMBKHKW4w0FribYr7/ScBwRCV8X8BvgJ75rN5kOI+aoABQpy/EsggN6fgFMMBxHRApvPXAVwUJBDQRFSAWgCFmOdzTBdf5DTWcREePmAN/QyYPFRwWgiFiON4ngQJFzTWcRkUjxgTuBq3zXXm86jBSGCkARSJ/S902C+4JrDMcRkehqIniduEH7BySfCkDCWY53IHArcIjpLCISG68CF/uu/brpIBIeFYCESu/bfw3wLaDMbBoRiaEU8L/ANb5rt5sOI/mnApBA6c18bgamGo4iIvG3BLjUd+3nTAeR/FIBSBDL8UYSnAh2MWAZjiMiyeEDtwHf8V273nQYyQ8VgISwHO9swAV2Np1FRBJrHeD4rj3DdBAZPBWAmLMcbwJwI3CW6SwiUjTuBy7XLYPxpgIQY5bjnUkwLTfWdBYRKTp1wCW+az9oOojkRgUghizHqwF+DVxmOouIFL1bgG/6rt1iOohkRwUgZizHOxj4M7C36SwiImnvAuf5rv2K6SCSORWAmLAcrwT4NvDfQLnhOCIiO0oR7D3yC9+1ewxnkQyoAMSA5XgTgbuA40xnEREZwGyC2YCVpoNI/0pMB5D+WY73OeANNPiLSDwcA7xhOd55poNI/zQDEFGW4w0FfgtcaDiKiEiu7gEu81271XQQ+TAVgAiyHG9vgvtsp5nOIiIySG8Bn/Fd+13TQWR7ugQQMZbjTQfmoMFfRJLho8ArluNps7KI0QxARKRX+f838H20j7+IJNN1wNW+a3ebDiIqAJFgOd4Ygnv7TzKdRUQkZM8B5/iuXWs6SLFTATAsvbHPDGA301lERApkLfA537VfMB2kmGkNgEGW410IPI8GfxEpLrsAz1mO9x+mgxQzzQAYYDleBXAD8DXTWUREDLuH4FChDtNBio0KQIFZjjee4Ba/I01nERGJiNnAWb5r15kOUkxUAArIcrxpwCxgsuEoIiJRsxQ43XftRaaDFAutASgQy/GOA15Ag7+ISG/2AF60HO9400GKhQpAAViOdz7wODDSdBYRkQgbBTxmOd7FpoMUA10CCJnleNcAPzKdQ0QkZq4FrvJdW4NUSFQAQpJe6X8r8CXTWUREYmoGwdHCbaaDJJEKQAgsxxtJsNL/WMNRRETibi5wmu/aG00HSRoVgDyzHG8KMBMd5iMiki/vACf4rr3edJAk0SLAPLIc7xDgJTT4i4jk077APy3Hm2g6SJKoAOSJ5XjHAM8A40xnERFJoKkEJUBbp+eJCkAeWI73bwS3+Q03nUVEJMGmEJSAPUwHSQIVgEGyHO/TwMNAjeksIiJFYBJBCdjbdJC4UwEYBMvx/h24D6g0nUVEpIjsAniW433UdJA4UwHIkeV4lxCcYlVmOouISBEaDzxrOd6BpoPElQpADizHuwK4Gf3vJyJi0ljgGcvxPm46SBxpAMuS5Xj/CVwPWKaziIgIo4CnLMc7ynSQuNFGQFmwHO9a4Lumc4iIyIc0A5/yXdszHSQuNAOQIQ3+IiKRNhSYZTneiaaDxIUKQAbS0/4a/EVEoq0GeNhyvNNMB4kDXQIYQHrB3/Wmc4iISMY6gXN8137AdJAoUwHoR/pWv5vRgj8RkbhJAV/0Xfte00GiSgWgD+lNfu5Bl0lEROKqG7jQd+17TAeJIhWAXqS3970PbfIjIhJ3PQQl4G7TQaJGBWAH6YN9Hkbb+4qIJEUKONN37UdNB4kSFYBtpI/0fRwd7CMikjQtwAm+a79sOkhUqACkWY53CPAMOtJXRCSp6oBjfNdeZDpIFKgAAJbjTQFeAsaZziIiIqFaCRzlu/Za00FMK/oV7pbjjQRmosFfRKQY7AY8ZjneCNNBTCvqAmA5XgVwPzDNdBYRESmY/YGHLMerMh3EpKIuAMCtwLGmQ4iISMF9EviT5XhFOw4W7Q9uOd41wJdM5xAREWPOBn5nOoQpRbkI0HK884E7TecQEZFIuNJ37aI786XoCoDleMcR3OtfbjqLiIhEQjdwuu/aj5sOUkhFVQAsx5sGvACMNJ1FREQipQE4vJj2CCiaNQCW440HZqHBX0REPmwEwZ0BRTNGFEUB2OZ2v8mGo4iISHTtBdxrOV6p6SCFUBQFALgBONJ0CBERibx/A35tOkQhJH4NgOV4FwJ/NJ1DRERi5VLftW81HSJMiS4AluMdDDwPFPVuTyIikrUugtMD/2U6SFgSWwAsxxsDzCPY91lERCRbG4FDfddeZTpIGBK5BiC9teOf0eAvIiK52wn4m+V4idw3JpEFAPhv4CTTIUREJPaOAK41HSIMibsEYDnedGAGYJnOIiIiiXGW79oPmA6RT4kqAJbj7Q3MAYabziISR6NqyvjohGrTMbL28spmOruT81omkVQPHOy79nLTQfIlMQXAcryhBIP/NNNZROLqxL2GM+OiPU3HyNrUn7/JhqYu0zEk+eYCR/uu3Wk6SD4kaQ3Ab9HgLyIi4TkU+F/TIfIlEQXAcrzPAReaziEiIonnpMec2It9AbAcbyJwk+kcIiJSNG61HC9+18p2EOsCkL7f/y5glOksIiJSNIYDf7ccr9J0kMGIdQEAvg0cZzqEiIgUnQOBn5gOMRixLQDpff7/23QOEREpWt+2HO8Y0yFyFcsCYDleDcFWv4ncnlFERGKhBLgzfRt67MSyABCc1by36RAiIlL0diemtwbGrgBYjncmcJnpHCIiImlfsRzvVNMhshWrAmA53gTgNtM5REREdnCb5XijTYfIRqwKAHAjMNZ0CBERkR3sTDBGxUZsCoDleGcDZ5nOISIi0odzLMc713SITMWiAFiONxJwTecQEREZwO8sx9vFdIhMxKIAAP9DML0iIiISZaOB35kOkYnIFwDL8Y4FLjadQ0REJEPTLcc7w3SIgUS6AFiOVwXcDFims4iIiGTBtRxviOkQ/Yl0AQCuAaaaDiEiIpKlScCPTIfoT2QLgOV4BwLfMp1DREQkR9+0HG9/0yH6EskCYDleKXArUGY6i4iISI7KgJssx4vkZexIFgDgm8AhpkOIiIgM0pHApaZD9CZyBcByvEnAj03nEBERyZNfWo43znSIHUWuAADXAjWmQ4iIiOTJKCJ4YmCkCoDleEcDsdlGUUREJEPnWY53vOkQ24pMAUgvkrjBdA4REZGQ3JBe5B4JkSkAwAXAoaZDiIiIhGR/IrSzbSQKgOV4Q4FfmM4hIiISsp9ajjfcdAiISAEArgYmmA4hIiISsnEEY55xxguA5XhTgCtN5xARESmQK9Jjn1HGCwDwK6DSdAgREZECqSS45d0oowUgfdTv2SYziIiIGPC59K3vxhgrAJbjlaDb/kREpHhdb/KcAJMzAF8EPmbw+UVEREz6OMFYaISRAmA5XhkRPydZRESkAH5hOV61iSc2NQNwIbCHoecWERGJionAV008ccELgOV4FcAPC/28IiIiEfU9E7MAJmYALgEmGXheERGRKBoPXF7oJy1oAbAcrwr4QSGfU0REJAa+azleTSGfsNAzAF8Ddinwc4qIiETdOODrhXzCghUAy/GGAN8v1POJiIjEzHfSY2VBFHIGwCFoOCIiIvJhOwHfKNSTWb7vh/8kwdGHy4HRoT+ZiOSsotRiVE2Z6RhZ29jcRU/4L2UihbAJmOy7dnPYT1Sof+lXoMFfJPI6u302NHWZjiFSzMYA/wH8POwnCn0GIH09YzUwKtQnEhERSYbNBLMATWE+SSHWAHwZDf4iIiKZGg18JewnCXUGwHK8UmAxMCW0JxEREUme1cDuvmunwnqCsGcAzkKDv4iISLZ2BT4X5hOEXQC+HfLji4iIJNW3wnzw0AqA5XjHAIeH9fgiIiIJd4jleHZYDx7mDECozUVERKQIhDaWhrII0HK8qcBCzJw2KCIikhQ+MM137UX5fuCwBugrQ3xsERGRYmEB3wzlgfM9A2A53lhgFVCd1weWSJsyppLj9xxmOkbW7nhlE90Z7iEb15/x7rmb6OzO7GecOKKCk/cZHnKi/Pvzq5tp6+oxHUMkLG3AJN+16/L5oGFsBXw5GvyLziETa7h++iTTMbL2p3mbMy4Acf0Z75u/hc7u7oy+dp/xVbH8GR95p0EFQJKsmmBs/Uk+HzSv0/SW45VT4POMRUREisDX02Ns3uT7Ov2n0ZG/IiIi+TYOmJ7PB8x3AQh972IREZEidWk+HyxvBcByvCnAifl6PBEREdnOiZbj7Z6vB8vnDMDFBLcriIiISP5ZBGNtXuSlAKRP/bsoH48lIiIifbrIcry83MGXrxmA04Fd8vRYIiIi0rudgU/l44HyVQDyujBBRERE+pSXBfeDLgCW400ETs1DFhERKWIn7DWciw8fy6RRFaajRN3JluMNeseufFxH+DJQmofHERGRIvWZA0Zx8+cnU14arCVfvLGdJ99t5Ml3G3luSVPGO3YWiRKCxYA/GuyD5MxyvK0hREREcnLqtBHccs4Hgz/A1J2quPzocdx/0Z7Mu3Jfzj1oNKUlutFsG19OL8DP2WAvAZwExG/jcBERiYSjJg/lzi9MoayfwX33MZXc/PnJzLliGp/92CjUAwCYCJwwmAcYbAE4f5DfLyIiRWr/nau594I9qCrLbCiaulMVt587hX9+Yxp77VQVcrpY+PfBfHPOBcByvGrgjME8uYiIFKfJoyuZcdGeDK/Kfhb7gJ2r8Zx9OOeg0SEki5WzLMerzPWbBzMDcBowdBDfLyIiRaiqrIS/nr8744flfrjdkIoSbvn8ZH579iSqy/N9rE1sjGAQd+EN5n+1cwbxvSIiUqT++7SPsO/46rw81gUfH8uTX9ubsUPysjleHJ2b6zfmVAAsxxtCsPufiIhIxk6dNoKvHLlTXh/zgJ2rmXnpXuw0tChLwBnpMTlruc4AfAqoyfF7RUSkCE0YVs6Nn9ktlMeeNr6KmZfuxbihuV9WiKka4MxcvjHXAqDpfxERyZhlwU2fn8yYEKfq9xlXxcxLpw5qbUFM5XQ3QNYFwHK8YWjrXxERycI3jhnPcXsOC/159h5Xxb3n70FlWVFtFnCy5Xijsv2mXGYAzgR0A6aIiGTkY7vU8KOTC3dg7EETa7h+elHtUVcBnJ3tN+VSADT9LyIiGfvfT++63Ta/hXDeIWO4+PCxBX1Ow7K+GyCrAmA53gjg5GyfREREitPJ+4zgsEk5LVIftGvP2NXYcxtwXLaXAbKdAZhOMNUgIiLSL8uCH55UuKn/HVWUWtzxhSkMrSyKA2tLyfINerYFIKdbDUREpPhM/+goDtg5Pxv+5GriiAp+ZLCEFNinsvnijAuA5XhlwIlZxxERkaJTWmLxg3/b2XQMAC49cicO3bUoLgWcYjlexuN6NjMARwHDs88jIiLF5pwDR0fmxL4SC3579qSCL0Q0YAxwRKZfnE0BOCX7LCIiUmzKSy2uPjEa7/632m9CNc4x40zHKISMLwOoAIiISF5d8PGxTBoVvfXiVx47Iafjh2Mm43N6MioAluNNAA7MOY6IiBSF6vISvnPcBNMxejWiqpSvHpXfg4gi6ADL8XbN5AsznQE4GUj8xRMRERmcCw8by87Do7sX/9ePHlcMtwWelskXZVoANP0vIiIDuvDj0d59b1RNGZfl+TjiCMpoHcCABSB9S8FJg44jIiKJduBHapg2Phor//vjHDOOIRW5HoYbC8dbjjfg/xGZ/C9wGDB68HlERCTJzjtkjOkIGRkzpIxLj0j0LEAN8ImBviiTAqCjf0VEpF8VpRaf/VjWJ9Ia841PjKe6PNGzAPZAX5DJT6/r/yIi0q9T9hnB6Joy0zEyttPQsqSfFvjJgb6g3wJgOd5w4NC8xRERkUT67IHxu1L8/z6Z6FmAwwZaBzDQT35kBl8jIiJFrLTE4rg9h5mOkbXxw8o5J4bFJUOVwOH9fcFAg/vR+csiIiJJdPDEGkbEdIe9cw9ObAGAAdYBDHTB5pg8BpEEa+vqoba5y3SMrPn4GX9tXH/Gnsx/RDpTfix/xu5sfkjJu+P3jO85cUfuNpRJoypYtaXTdJQw9FsALN/v/R9O+vjfBoLbCURERHr1+GV7ceTkoaZj5OwnT6zlV8+uNx0jDK3ASN+1e231/V0COAgN/iIi0o+hlaV8fNIQ0zEGJcHrAGqAj/f1H/srALr+LyIi/frE7kMpK4n3UTF7j6viY7sk9v1un7cD9lcAdP1fRET6dWBCBs5zD0rsLECf6wA0AyAiIjnbe1z09/7PxGc/NorSmM9k9OHo9Jk+H9LrH1qOtwcQzQOdRUQkMpJSAMYPK8feI357GWRgGLBXb/+hrxkAvfsXEZF+lZZY7Dk2GQUA4PMHxucsgywd0tsf9lUAdP1fRET6NWV0BZVlyZk2P3Gv4VjJ+XG2dXBvf9hXATgyxCAiIpIASZn+32rc0HI+OqHadIwwZFYALMerAPYJPY6IiMTaPuOSN1gePzW+uxr24yDL8T40t9HbDMA0Bt4iWEREityEYeWmI+RdQgvACGCPHf+wt4H+gPCzFJfDdxvC2QfE7x7T7z28OuOv/dguNXzhkDEhpgnHD2auIZXhPvJx/Rmveew92rp6MvravXaq4uIjdgo5Uf799In3aO7I7GfcfUwllx01LuRE+ffLp9aypa3bdIztDI/pAUD9OWryUKrLSzL+NxMjhwBLtv0DFYAC+OiEGr52VPxeVLMpAFN3qorlz/ijx97LuADE9Wf8+ZNracvwfJ9Joypi+TP++rn1GReAj4yI58/4u9kbIlcARlQnrwBUllkcNWUoT7/baDpKvh0M/G3bP+jtEsD+hckiIiJxlsQZAIATknkZ4EMLAXsrAJoBEBGRAY1IaAE4ds9EbgjUfwGwHG8ssHPB4oiISGwltQDsO76amor+dsqPpdGW403e9g92/An17l9ERDKSxDUAACUWST0dcLsxfscCoOv/IiKSkaHJe5f8voM+ksgCsN2ZAJoBEBGRnHR2Z3YHTRwdPFEFQEREpFeZ3noZRwcmcwZg721/8/4+AOnzgvcreBwREYml1uRtlvO+qWOrGFpZSnNHZnsvlJZYDKssYVhlafBRFfy6rMSivauH9pRPW1cPHame9Gef1q4eGtsLurfDdjMA224ENAlI3sbOIiISikwHxziyLDhwl2pmL2+mrMRi11EVTBldyZTRFUwZU8mU0ZVMHl3JuKFlDK8qpbo8t/UQbV09rG/s4r3GLtY1dLK2sYu1jV28V9/J/LWtrNzSmc8fa4LleMN8126C7QvA5Hw+i4iIJFtrZ3JnAAD+7+zdKCuBiSMrKCsJ55zg6vKSoFCMqez1v29sTjF3dQuvrG5h7qoW5q1ppWlwxWsvYB5sXwCmDOYRRUSkuDQnvADsObb3QbmQdhpaxqnTRnDqtBEA9PiwqLY9KAWrWpi7uoUFte10Z7ilOX0UgMn5DC0iIsmW9BmAKCqxYNr4KqaNr+JLhwaHk7V09vDqmhaeXtzEffM3s6r/ywbvLwTUDICIiOSkpTO5awDiZEhFCZ/YfRif2H0Y15y8C3NWtXDv65t54M16aps/dBLY+wsBNQMgIiI5WdeY4TGTUlCHTRrCYZOGcO2nJvLPpU3cO38LD79dv/WOg14LgGYAREQkY0vqOkxHkH6UllgcN3U4x00dzg3TJ/HEogZmvLFl363/vQTAcrwKYBdjKUVEJHaW1LWbjiAZqiyzOGO/kfzx36dU/9dDi3eDD3YC3JXejwYWERHp1eKNmgGIo8pS66PwwaCv6X8REclKbXPXYO9JFwMqy0v2gQ8KwGRzUUREJK6WaBYgdqrKrD1AMwAiIjIIWgcQP9XlJRNBMwAiIjIIi3UnQOwMqSjZGT4oABMMZhERkZjSDED8DK0sHQsfFIAxBrOIiEhMzV3dajqCZGl4VekIUAEQEZFBWLG5g9X1eT2yVkI2srp0CKgAiIjIID23pMl0BMnC2CFl5QAlluNVA9WG84iISEx5S1UA4mRYZan1nw++O7oEvfsXEZFB+KcKQOxUlpbsrwIgIiKDsr6pi0W1uhsgTirLrGkqACIiMmi6DBAvVeUle6gAiIjIoKkAxEtZiaU1ACIiMnj/WtZEj286hWSqvNQargIgIiKDVt/WzWtrWkzHkAyVlVjDVABERCQv7p2/xXQEyVB5qTVEBUBERPLivvmbSek6QCxsLQBDTAcREZH429ic4ul3G03HkAyUl1rVJUCl6SAiIpIMf3lts+kIkoGKdAGoMB1ERESSYdY7DTS2d5uOIQOoKLUqNQMgIiJ5057qYcabWgwYdZVlJSoAIiKSX395VZcBoq6yzCovQ5cAQreusZPZy5K9S9bG5q5Y/ow9WaxYjuvPmM2q7C2tqVj+jJ2pnoy/tqG9O5Y/Y0cqPqvrX1zRzIrNHUwerfeXUVVZVlJm8fXn3gL2Mx1GRESS46oTd+aqE3Y2HUP68F5DZ0qXAEREJO/+oU2BIq26vKREdwGIiEjenbDXcNMRpB+pHt/SDICIiOTVMVOG8l8n7WI6hvShtbOHL96zTJcAREQkf75w8Bj+cdGeDKkoMR1FetHZ7fOFe5bx8soWS3cBiIjIoE0eXcn1n95VU/8R1t3jc/Ffl/PM4kaAkjI0AyAiIjmy9xjGV47cidOmjaC0xDIdR/rxH/ev4sG36rf+tqTMZBgREYmXyjKLwyYN5ZN7DGX6R0ex97gq05FkAN09Pt9+aDV3z9203R+XAR1AjZlYIiISVRWlFpNGVTB5dCUHfaSGT+4xjMN3G0JVma7vx0VzRzcX/GU5Ty760CmNHWVAJwktADsNLaPE0pSUiEipBVXlJdSUl1Bdkf5cXkJNRQlVZcHn0TWlTB5dmf6oYJfhFWhWP77WNHTy+TuW8tb6tt7+c+fWGYBEWvj9/Skv1d9eEREpLq+taeWcu5ayvqmrry/pSGwBGF5VqsFfRESKzj3zNvGtB1fT1tXvGRnvXwJInNE1Wt8oIiLFo7a5i/+YsYpZCxoy+fLkXgIYM0QFQEREisMDb9XzzQdWsakllem3JPcSwOiaUtMRREREQrW5NcV3Hl7D31/fnO236hKAiIhI3HR2+9z0Qi3XPbOehvbunB4isTMAlVoAKCIiCfTAW/X816PvsWLzoIbv5F4C0JaUIiKSJC+saOaax9by0srmfDxcci8BlKkAiIhIzDV1dPPX1zZz+8t1vN37hj65Su4lAM0AiIhIXM1f28ptL9Vx7/zNtHb2ez9/rjrKgJYwHtm0Um1VLSIiMdLW1cM/3tjCbS/XMW916ENzSxmwacAviyFdAhARkThYVNvObS/X8ZdXN+W6oj8XmxJbAHQJQEREoqg91cOLK1p4dnEjzy5pYv7aVhMxklsAdFqliIhEge/DG+taeXZJE88ubuTFFS20p0K5A7ZmNQAAIABJREFUrp+N5BYAzQCIiIgpq7Z08tzSJp5bErzLz2KL3kJJcAGwVABERCQ8PT6s2tLBwtp2FtW2v/95UW07TR0Fu5afq+QWAF0CEBGRXHX3+GxqTbGxOcXGlhR1zSk2NnexsSXFis0dvFvbzuK6joGO3I2yBBcAbQUsIiJ9OO+eZSyua6e7B7p9n1S3T7cfDPztKZ/6thS+bzplqJJbAHQJQEREelPXkuLhd+qTPsAPZFOJ79ptQF73F4wC7QMgIiK9eXZxY7EP/m2+a7dtvVKeuFkA7QQoIiK9eXpxk+kIpm0CSGwBSPUUd70TEZHePbuk0XQE05JdAJo7YrsyU0REQvLOhjbWNXaZjmHadgVgvcEgoWgJ5/QkERGJsWc0/Q/pMX9rAVhhLkc4YrAJg4iIFNjTi4t++h/SY/7WArDcXI5waAZARES21Z7q4YXlzaZjRMFySPAMQItmAEREZBsvrmiJ8859+bQCEjwD0KwZABER2cbT72r6P227GYDVQKJGTN0FICIiW/k+3P/mFtMxoqCHYMwPCoDv2p3AWpOJ8q2lU5cAREQk8PKqZlbXd5qOEQVr02M+2+6Xl6jLALoEICIiW/39db37T3t/rN+2AKwofI7wNLZrBkBERIKdYWdo+n+rFVt/kdgZgM2tKbq6tR2wiEixe2ZxI5taUqZjREXyZwB8H2qb9X+4iEixu1fT/9tasfUXiZ0BANjQVPT7PYuIFLW2rh4eeafedIwoSf4MAMB6FQARkaI2850GWrUofFsrtv5i2wKwCmgreJQQrdeJTyIiRe3e1zebjhAlbQRjPbBNAfBduwd420SisOgSgIhI8drcmtLhP9t7Oz3WA9vPAAC8UeAwodIlABGR4nXX3E26G2x7243xKgAiIpI4qR6fm16oNR0javotAG8WMEjoVABERIrTA2/W816DxoAdbDfGJ3oGYIMWAYqIFCV39gbTEaKo7xkA37XrgHUFjROi2uYUPbr8IyJSVF5c0cyra1pNx4iadekx/n07zgBAgmYBUj2+LgOIiBSZ383Wtf9efGhs760AJGodwKLadtMRRESkQFZu6dTOf7370Nie6BkAgEW1idrbSERE+nHj87W69Nu7jGYAElYANAMgIlIMmjq6uXvuJtMxoiqjArAASMwxeioAIiLF4Y45dTR3dJuOEUUpgrF9Ox8qAL5rdwILC5GoEBZtVAEQEUm61s4ebvinbv3rw8L02L6d3mYAAF4MOUzBbGxOsaU1MRMaIiLSC3d2LRub9Vrfh17H9L4KwOwQgxTcQl0GEBFJrC2tKf7vX3r3349ex/S+CsDzIQYpOF0GEBFJruu9DTS269p/P3od03stAL5rLwXWhxqngLQQUEQkmdY1dnHTixtNx4iy9ekx/UP6mgGABM0CqACIiCTTdc+so62rZ+AvLF59juX9FYDErANQARARSZ7lmzq4S/f9D6TPsbwoZgDWNHTS2qmGKCKSJD97ah1d3dr2bwA5zQC8BiTiOCXfh/lrE/GjiIgI8Pb6Nu6bv9l0jKhrJRjLe9VnAfBdOwW8HEYiE15a2WI6goiI5MkPZr2nPf8H9nJ6LO9VfzMAkKB1AC+uaDYdQURE8uAfb2zhmcWNpmPEQb9j+EAFIDHrAF5a2YyvtigiEmtNHd1c9cga0zHiot8xfKAC8CKQiNVz9W3d2hFQRCTmfvLEWtY3dZmOEQc9DLCtf78FwHftRmBuPhOZpMsAIiLx9fp7rdyiTX8yNTc9hvdpoBkAgMfyFMa4F1eqAIiIxFGPD//vgVVa+Je5AcfuTArAo3kIEgmaARARiadbX9rIa2t0O3cWBhy7MykAc4BE3Gy5aksn6xp17UhEJE7WN3XxkyfWmo4RJ5sJxu5+DVgAfNfuAZ7IR6Io0CyAiEi8XD1zjU77y84T6bG7X5nMAIDWAYiIiAGPL2zgvvlbTMeIm4zG7EwLwONAIpZevLRCOwKKiMRBbXMXl/9jpekYceMTjNkDyqgA+K69Hnh9MImi4q31bTR3aCpJRCTKfB+++veVbGzucydb6d3r6TF7QJnOAEBCLgN09/g6F0BEJOL+8EItT72r7X5zkPFYXXQFAGDmO/WmI4iISB/eWt/Gfz32nukYcRVKAXgBSEQde+SdBm0mISISQW1dPVz81+V0pPQinYNGgrE6IxkXgPSRgk/lkihqNjR18bLuBhARiZz/nPUeCzbo3JYcPdXf8b87ymYGAOChLL8+sh56W5cBRESi5LGFDdzykvb6H4SsxuhsC8ADQGeW3xNJD72lAiAiEhUbmrq4/D7d8jcInQRjdMayKgC+azeQ4f2FUbe6vpP5a7WvtIiIaakeny//dQV1LbrlbxAeT4/RGct2BgDgbzl8TyQ9qFkAERHjvv/IGv61rMl0jLjLemzOpQA8BCRihYYuA4iImHXX3E3c/KKu+w9SOzms0cu6APiu3URCjgh+d2M7i2oT0WVERGJnzqoWrnxglekYSfBoemzOSi4zAJCgywC6G0BEpPDWNnbxxXuW0dmt+/3zIKcxOdcC8AiQiBV0ugwgIlJY7akevnD3UjY0dZmOkgStBGNy1nIqAL5rtwAzc/neqJm/tpVVWxJxZ6OISCz8v/tX8eqaRLyHjIKZ6TE5a7nOAIAuA4iISJZ+N7uWv7y62XSMJMl5LB5MAZgFJGI/3fvm6y+jiEjYnn63kf98VIf85FEzwVick5wLgO/abcDDuX5/lLy6ppW5q3VEsIhIWOatbuGLf1pGt05iy6eH02NxTgYzAwBw1yC/PzJufL7WdAQRkUR6d2M7n7ljKa2dPaajJM2gxuDBFoAngETcxPngW/Wsa9SKVBGRfHqvoYvpty1hc6u2+c2zVQRjcM4GVQB81+4BbhvMY0RFV7fPbS9rNyoRkXzZ3Jpi+u2LWdOgO61CcFt6DM7ZYGcAAG4HuvPwOMbd/nIdHSldnxIRGazWzh4+e8dS7bYajm6CsXdQBl0AfNdeQ0K2Bq5rSfF33REgIjIoXd0+X/zTMi2uDs+j6bF3UPIxAwBwS54ex7g/aDGgiEjOfB8u+/sKnn630XSUJMvLmJuvAjATWJunxzLqjXVtPL88EdsbiIgU3HceXs1987eYjpFka8nTTrx5KQC+a3cDf8zHY0XBH17QLICISDZ8H7714God7Ru+P6bH3EHL1wwABHcDJGIF3SPvNLC6XqtWRUQy0ePDf9y/ilte0uAfMp883nmXtwLgu/Zy4Kl8PZ5J3T2+WqyISAa6e3y++vcV3PlKnekoxeCp9FibF/mcAQC4Oc+PZ8ydr9TR1qVdq0RE+pLq8bnkbyv462u6e6pA8jrG5rsAPAgk4gJ6fVu3TqwSEelDV7fPhX9ezj/e0IK/AqklGGPzJq8FwHftLuB3+XxMk37zrw10didiWYOISN50pHy+eM8yHaVeWL9Lj7F5k+8ZAIAbgZxPJ4qS5Zs6uEl3BIiIvK+tq4dz7lrKYwsbTEcpJm0EY2te5b0A+K5dB9yZ78c15dpn1rOpRYdYiIg0tHfzmT8u4ZnF2uSnwO5Mj615FcYMAMCvgUSsoGts7+ZnT60zHUNExKhVWzo58feLmK2N0gqth2BMzbtQCoDv2ouBh8J4bBP+OKeOBRt0oIWIFKfX1rRy/I2LdLCPGQ+lx9S8C2sGAOB/Q3zsguru8blq5qDPXRARiZ1ZCxo45eZ3qW3O6/ozyVxoY2loBcB37dnAy2E9fqE9s7iRx7XoRUSKyE0vbOQLdy/VnijmvJweS0MR5gwAwK9CfvyC+sGs90j16LZAEUm2Hh+umrmG7zy8Gr3kGRXqGBp2AbgfyNu2haa9u7GdW7XXtYgkWFtXD+f/aRm/m61boA1bTjCGhibUApA+sej6MJ+j0H7x9Hq2tOq2QBFJng1NXZx+y2Jt8BMN1+fr1L++hD0DAHA7kJi9Ire0pvjF0+tNxxARyauXVjbzid8uZO7qFtNRJBgzbw/7SUIvAL5rtwA3hP08hXTrSxtZvFG3w4hIMtz0wkZOv2Ux65u00j8ibkiPnaEqxAwABAUgMSfrpHp8rp71nukYIiKD0tbVwyV/W8F3Hl5Nl849iYrNFOhNc0EKgO/ajcB1hXiuQnl8YQNPvavtMEUknpZv6uCEGxdx7+uJeW+WFNelx8zQFWoGAMAlIUcFb/WNGSupbwt1jYaISN49vrCBT7oLeWt9Is5tS5JagrGyIApWANLXM35ZqOcrhPcauvjmA6tMxxARyUiPDz9/ah2fv2spDe168xJBvyzEtf+tCjkDAPB7YG2BnzNU/3hji6bQRCTy6lpSfO7OJfzy6XX4utwfRWsJxsiCKWgB8F27HfhZIZ+zEK58cDVr6jtNxxAR6dWTixo54oYFPLlI65Yi7GfpMbJgCj0DAHArkKh588b2br5y7wptmSkikdKe6uE7D6/mM3cs0WE+0baKYGwsqIIXAN+1O4GfFvp5wzZ7eTO//dcG0zFERAB4c10btruQm17Q9uUx8NP02FhQJmYAAO4Alhp67tD89Im1vLxSu2iJiDm+D+7sWo6/cSELNmjDshhYSjAmFpyRAuC7dgr4sYnnDlNnt895f1rGukZNtYlI4a1r7GL67Yu5euYaOlK6JhkTP06PiQVnagYA4E/AfIPPH4oNTV188Z5l+scnIgX10Nv1HPGbBTy7pMl0FMncfIKx0AhjBcB37R7gClPPH6a5q1u0P4CIFMTG5hRf/utyzrtnmU4qjZ8r0mOhESZnAPBd+zlghskMYbln3iYtvhGRUP1p3iYOvf4d7pufmANXi8mM9BhojNECkPZtoMN0iDBcNXMN/1qm6TgRya9lmzo449bFfO2+lXrXH08dBGOfUcYLgO/ay4Ffm84RhlSPzwV/Xs6yTYnsNyJSYKken+u9DRz5mwV4S/XmIsZ+nR77jDJeANJ+Dqw3HSIMdS0pzrxtMWt1Z4CIDMKra1qx3YX86LH3aOsydtlYBm89wZhnXCQKgO/azcBVpnOEZdWWTqbftpjNmqoTkSy1dvbw/UfWcMLvF/HmOp3elwBXpcc84yJRANLuBOaaDhGWhbXtfOaOpbR0qrmLSGZmvLGFQ69/hxufr6Vbe40nwVyCsS4SLD9Cx0JZjnc0MNt0jjAdt+cw7r1gTyrLLNNRRCSi5q9t5XsPr+GFFZF4oyj5c4zv2s+bDrFVpAoAgOV4fwHONZ0jTGfuN5I7vzCF0hKVABH5wMbmFD95Yi13z63T4WLJ81fftf/ddIhtRekSwFbfA1pNhwjTQ2/Xc/k/VmpKT0SAYBvx//vXBg781dvc+YoG/wRqJRjbIiVyMwAAluN9G/gf0znCdsZ+I7n93Cm6HCBSxB5d0MDVs9awtE63CyfYd3zX/pXpEDuK4gwAwPXAPNMhwvbw2/V89o4lWhgoUoQW1rYz/fYlnHPXUg3+yTaPYEyLnEjOAABYjncg8ApQZjpL2A6eWMOMi/ZkdE3if1SRorewtp3/eXY9/5i/WVP9yZcCPu679uumg/QmsgUAwHK8XxLB6yZh2GdcFQ9cPJVdhpebjiIiIXh7fRvXPbOeB9/aooG/eFzru/b3TYfoS9QLQBXwBjDVdJZCmDSqgocunsruYypNRxGRPJm/tpXrnlnPI+/UE+GXW8m/xcABvmu3mw7Sl0gXAADL8Y4FngGKYqXcmCFl3PmFKXxy92Gmo4jIILy6ppVrn1nHowsaTEeRwvOB402f9jeQyBcAAMvxbgEuMZ2jUMpKLH522kf42tHjTEcRkSzNWdXCtc+s48lFjaajiDm3+q59qekQA4lLARgJvAPsbDpLIZ170Gh+c9YkqsujerOGiGz1wopmrn16Hc8u0Sl9RW4dsK/v2vWmgwwkFgUAwHK8s4F/mM5RaB/bpYa/fGl3Jo6sMB1FRHrxz2VNXPv0ev61TAO/APAZ37VnmA6RidgUAADL8WYAZ5nOUWhjh5Rxh9YFiETKs4sb+eUz63lR+/XLB+73Xfts0yEyFbe55cuBOtMhCq2uJcX025Zwwz836PYhEcOeXNTICb9fxKdvX6LBX7ZVRzBGxUasZgAALMc7E3jQdA5TDt9tCH/47GT2GKtbBUUKadaCBq59Zh2vrUn0USWSu0/7rv2Q6RDZiF0BALAc7w/AZaZzmFJdXsKPT9mFy44ch1UUN0eKmFHf1s29r2/m9pfreGdDm+k4El03+a79VdMhshXXAlADvArsbTqLSZ/YfRg3fnY3dhulBYIi+fT88mbueKWOB9+spz2lszqkX4uAg33Xjt3UUCwLAIDleAcDLwFFvXfukIoSfnbaRL58+FjTUURibWNzij+/uok7X6ljiQ7nkcx0AUf4rv2q6SC5iG0BALAc77vAtaZzRMFxew7jujN2Ze9xVaajiMRGjx+s5r/zlTpmLmigqzu+r4dixPd8177OdIhcxb0AlABPAceZzhIFZSUWXz58LFefuLNOFhTpx3sNXdwzr467XtnE6vpO03Eknp4FTvRdO7bXiGJdAAAsx5tIcGDQKNNZomJkdSnfP2FnLj1iJ8pLtUpQBCDV4/P4wkbueKWOp95tpFv31EruthAc9LPGdJDBiH0BALAc73PAvaZzRM2eYyv52WkTOXXaCNNRRIxZsbmDO1/ZxJ/mbWJ9U5fpOJIMn/dd+++mQwxWIgoAgOV4fwQuNJ0jio7bcxg/P30i+02oNh1FpCA6Uj4Pv13PXa/U4S1r0jG8kk93+K59kekQ+ZCkAjAUmANMM50liiwLPrXvSK60x3PIrkNMxxEJxZvr2vjzq5v4y6ub2dyaMh1HkmcBcJjv2onYAjIxBQDAcry9CUrAcNNZoszeYxhXHjuB4/bU2QISb13dPrOXNzNrQT2z3mnQgj4JUyPB4L/IdJB8SVQBALAcbzowA9DqtwEcNLGGK+0JnLHfSEr0v5bERH1bN08uamDWggaeWNRIU0e36UiSfD5wtu/aD5gOkk+JKwAAluP9HLjKdI64mLpTFVd8cjznHDSaCt01IBG0YnMHsxY0MOudBl5Y0UxKK/ilsH7hu/bVpkPkW1ILQAnwKHCS6SxxMnZIGeccNJrzDhmjBYNiVI8P81a3BIP+gnoWbGg3HUmK1xPAqXG+378viSwAAJbjjQHmAbuZzhJHB36khvMOGcPnDxzNyOpS03GkCLR19fDskiZmvVPPYwsbqW3WLXti3ErgEN+1N5kOEobEFgB4/7yA5wHtj5ujyjKL0/cdyXmHjOH4qcO1VkDyakNTF48tDK7nP7ekibauxL3JkvhqB46O6z7/mUh0AQCwHO9C4I+mcyTBLsPLOeeg0Xxq35EcsusQlQHJWkfK5/X3WvnnsiYeXdDAvDUtukdfouoi37XvMB0iTIkvAACW490IfM10jiQZO6SMk/YewSnTRnDC1GEMq9RlAvmwNQ2dzFnZwpxVwccba1vp1IE7En2/9137ctMhwlYsBaACeA440nCURCovtTh68lBOmTaCU/YZwe5jKk1HEgM6Uj7z17YGg/3KZuasamFto67jS+y8CBzru3biN5UoigIAYDneeOAlYLLhKIk3dacqTtp7OEdNHsrhuw1h3NBy05EkBGsbu5izqoWX04P9G2tb6UgVx+uJJNYK4AjftTeYDlIIRVMAACzHmwa8AIw0naWYTBlTyRG7DeHwSUM5YvIQ9hlXrfUDMdPZ7fPG1nf3q1qYs7KFNQ2Jf4MkxaUeOMp37QWmgxRKURUAAMvxjgMeB/S21JDhVaUcNmkIh+82hCN2G8rBE2u0hiBCOrt9VmzuYMGG9vSA38zr7+ndvSRaF3Cy79rPmg5SSEVXAAAsxzsfuNN0DvnAriMr2G9CNR/duZp9x1ez34Rqpu5USZmmCkKxdZBftqmDpXXB5yWbOlhW187q+k600Z4UmQt8177LdIhCK8oCAGA53jXAj0znkL5VlFrsPa6KfScEhWC/8dXsObaSXUdVqBhkYOsgv3WAX7r1o66dNRrkRbb6se/a15gOYULRFgAAy/HuAr5kOodkp7TE4iMjypk8qpLJoyvYbXQlU0ZXstuoCiaPrmSnoWWmIxZMR2qbd/Kbtr6jb2fppg4N8iIDu9t37fNNhzCleF4pe3cJsCtwrOEckoXuHp9VWzpZtaWTfy778H+vqShh8qhKxg8vZ+yQMsYOKWNMTfB57NDtfz+qpsz4gsQeH5o6uqlv66a+LZX+3E1D+we/b2jrZktbKv1n3e//WV1LlwZ5kdw8RzAGFK2ingEAsBxvJMGdAdNMZ5HCK7FgVE0ZwypLKS+1KC+xKC+1KC1hu9+XbfPr8lKLsh1+ve3vy0vSX5/+dWtXT3rATm0zsKcH9LZuGju6tRueSGEtIFjxX286iElFXwAALMebQrBHwDjTWUREJFS1BPf6LzcdxLQS0wGiIP0X4TSg0XQWEREJTSNwmgb/gApAmu/a84DTgVbTWUREJO9agdPTr/WCCsB2fNeeDUwHOkxnERGRvOkApqdf4yVNBWAHvms/CZwDpExnERGRQUsB56Rf22UbKgC98F37QeB8oMd0FhERyVkPcH76NV12oALQB9+1/wJcBug2CRGR+PGBy9Kv5dILFYB++K59K3Cl6RwiIpK1K9Ov4dIHFYAB+K59A/BD0zlERCRjP0y/dks/tBFQhizHuxb4rukcIiLSr+t81/6e6RBxoBmADKX/Ql1nOoeIiPRJg38WVACykP6LpcsBIiLR80MN/tnRJYAcWI53BfBrQIfSi4iY5RMs+NM1/yypAOTIcrxLgJvQLIqIiCk9BLf6abV/DlQABsFyvH8H7gLKTGcRESkyKYJNfnSff45UAAbJcrxPA38DKk1nEREpEh0E2/tqh79BUAHIA8vx/g14AKgxnUVEJOFaCQ720d7+g6QCkCeW4x0DzASGm84iIpJQjQRH+upUvzzQArY8Sf+FPB6oNZ1FRCSBaoHjNfjnjwpAHvmuPQ84AlhgOouISIIsAI5Iv8ZKnqgA5Jnv2suBo4DnDEcREUmC54Cj0q+tkkcqACHwXbseOBm423QWEZEYuxs4Of2aKnmmRYAhsxzvGuBHpnOIiMTMj33XvsZ0iCRTASgAy/HOB24Fyk1nERGJuC7gEt+17zIdJOlUAArEcrzjgBnASNNZREQiqh4423ftZ00HKQYqAAVkOd40YBYw2XAUEZGoWQGc5ru27qIqEC0CLKD0X+wjgBdNZxERiZAXCW7z0+BfQCoABea79gbgWOD3hqOIiETB74Fj06+NUkC6BGCQ5XgXEvzlrzIcRUSk0NqBr/mufYfpIMVKBcAwy/EOJlgcuJvpLCIiBbKSYLHfq6aDFDNdAjAs/Q/gEOAJ01lERArgCeAQDf7mqQBEgO/am4BTgV8AmpIRkSTyCV7jTk2/5olhugQQMZbjTQfuRMcKi0hyNAIX+K79gOkg8gEVgAiyHG9v4H5gmuksIiKDtAA4y3ftRaaDyPZ0CSCC0v9QDgPuMBxFRGQw7gAO0+AfTZoBiDjL8T4H3ASMMp1FRCRDW4DLfNf+u+kg0jcVgBiwHG8icBdwnOksIiIDeBY433ftNaaDSP90CSAG0v+QTgS+R3BSlohI1HQRvEadqME/HjQDEDPpjYP+DOxtOouISNoi4Au6tz9eNAMQM+l/YAcTrAsQETHtJuBgDf7xoxmAGLMc70zgNmCs6SwiUnTqgIt9137IdBDJjWYAYiz9D29/gj0DREQK5X5gfw3+8aYZgISwHO9swAV2Np1FRBJrHeD4rj3DdBAZPM0AJET6H+S+wK3oPAERyS+f4LVlXw3+yaEZgASyHO9Y4GZgquEoIhJ/i4Gv+K79nOkgkl+aAUig9D/UA4BrgZTZNCISUymC15ADNPgnk2YAEs5yvAMJpu4OMZ1FRGJjHnCJ79qvmw4i4dEMQMKl/wEfDnwHaDUcR0SirZXgteJwDf7JpxmAImI53iSCKb1zTWcRkcj5K/A937VXmQ4ihaECUIQsxzsauAE41HQWETFuLnCF79rPmw4ihaVLAEUo/Q/9MOAiYL3hOCJixnqC14DDNPgXJ80AFDnL8YYCVwNXApWG44hI+DqAXwM/91272XQYMUcFQACwHG8K8CvgbNNZRCQ0M4Bv+6693HQQMU8FQLaT3kToBuBjhqOISP7MJ7jO/5zpIBIdWgMg20m/QBwMnA8sNZtGRAZpKcG/5YM1+MuONAMgfbIcrwy4EPghMMlsGhHJwirgp8AdvmtrN1DplQqADMhyvArgEuAHwC6G44hI39YCPwNu9V2703QYiTYVAMmY5XhVwNeA7wPjDMcRkQ/UAr8Efu+7drvpMBIPKgCSNcvxhgAO8F1gtOE4IsVsM3Ad4Pqu3WI6jMSLCoDkzHK84cAV6Y9RhuOIFJMtBHfr3OC7dqPpMBJPKgAyaOkZgS8TFIHdDccRSbLlwPXA7XrHL4OlAiB5YzleKXAW8G2CEwhFJD9eJtio637ftbtNh5FkUAGQUFiOdwzwLeBMtN+ESC56gIeA//Vde7bpMJI8KgASKsvxphKcM3ABUG04jkgctAF3Ar/2XXux6TCSXCoAUhCW440FLge+jm4hFOlNLfA74EbftetMh5HkUwGQgrIcrxz4NPAV4ETAMptIxCgfeAq4GXjQd+0uw3mkiKgAiDHpEwgvJjiTXDsMSjFZC/wRuE0n84kpKgBiXPrugdOBS4FTgVKziURC0Q08CtwCzNRqfjFNBUAixXK8iQR7ClyMDiCSZFgF3EZw7/4a02FEtlIBkEiyHK8EOIngKNMzgKFmE4lkpRl4GLgLeMJ37R7DeUQ+RAVAIs9yvGrgNOAcgksFNWYTifSqFZgJ/A2Y5bt2m+E8Iv1SAZBYSW87/CmCMnAqUGU2kRS5doLr+n8DHtH2vBInKgASW5bjDSPYafAc4GSgwmwiKRKdwOMEg/5Dvms3Gc4jkhMVAEkEy/FGANPnn3byAAABrUlEQVQJCsGJwHCziSRhGgnu138IeMB37QbDeUQGTQVAEsdyvDLgKOCU9MeBaMMhyY4PvA48lv54wXftlNlIIvmlAiCJZzneBIJLBKcQ3Fkw2mwiiajNwBMEA/7jvmuvN5xHJFQqAFJU0rcXHkawgPAU4FB0WmGx6gHmEgz4jwJzdLueFBMVAClqluMNB44EjgaOAQ5HtxkmVSvwMjAbeB540XftRrORRMxRARDZRnr9wEF8UAiOBiYYDSW5Wk8w0G8d8F/TdXyRD6gAiAzAcrw9+KAQHAnsA5QZDSU7SgELgRdJD/i+ay81G0kk2lQARLJkOV4FMA04IP2xf/rzziZzFZF1wBvAm+nPbwALfNfuNJpKJGZUAETyxHK8sWxfCA4A9gOqTeaKsTbgbT4Y5N8E3vBdu85oKpGEUAEQCVH6roNJwGRgSi+fd6F470LoAdYCy4EVvXxepVX5IuFRARAxKH05YVc+XA4mAGO2+YjbLEIbsGmbj/V8eJBfrWl7EXNUAERiIH0i4pgBPoYAlQRnIlRm+GuADoL97Tsy/HUL2w/uH/rQSXgi0ff/AbQW0hxsrYR9AAAAAElFTkSuQmCC;" parent="1" vertex="1">
          <mxGeometry x="859" y="410" width="50" height="50" as="geometry" />
        </mxCell>
        <mxCell id="w6qTvtTmNooETmaVql6n-23" value="" style="shape=image;verticalLabelPosition=bottom;labelBackgroundColor=#ffffff;verticalAlign=top;aspect=fixed;imageAspect=0;image=data:image/png,iVBORw0KGgoAAAANSUhEUgAAAgAAAAIACAYAAAD0eNT6AAAABHNCSVQICAgIfAhkiAAAAAlwSFlzAAAN1wAADdcBQiibeAAAABl0RVh0U29mdHdhcmUAd3d3Lmlua3NjYXBlLm9yZ5vuPBoAACAASURBVHic7d13nB1lof/xz2zfTS8kAUNIgAABQZp0HdqlCgYscBUpAqI43h9iBa9X1GuB6xW8jihVmg0x1IReRkMLCRBaEtILKZtNsr2e3fn9MSeQhC3nnD1znpk53/frta9Nwu4539XkPN/zzDPPY/m+j4hEm+V41cCYAT6GAJVARfpzJr+2gM4sPlqBzdt8bNnh91s/GnzX1ouLSIRZKgAi5liOVwHsCkwBJm/zeQLbD+7VZhLmrBuoB2qBVcDKHT6vAtb4rp0yllCkyKkAiITIcrwSYBLbD+7bft4FKDGTzrgeYC3bl4IlwDvAAt+1txjMJpJ4KgAieWI53ljgAGD/9OcDgP2I37v3qFhPUAa2fiwA3vFdu9ZoKpGEUAEQyVJ62n4aHwzyWwf8nU3mKiKb+KAUzAPmAG/5rt1tNJVIzKgAiAzAcrw9gKOBY4AjgX2AMqOhZEetwKsEZWAOMMd37eVmI4lEmwqAyDYsxysDDuKDAf9oggV5Ej8b2aYQAC9rXYHIB1QApKhZjjec4F391gH/cKDGaCgJSw/BLMHT6Y/Zvmu3mY0kYo4KgBSV9Kr8w4BTgVOAQyneVfjFrgN4AXiKoBDM1ToCKSYqAJJ4luNNAE4mGPBPAkabTSQR1QA8R1AGnvRde6HZOCLhUgGQxElfxz+KYMA/BTiQYMc7kWwsAR5Mfzzvu3aP4TwieaUCIIlgOd4IYDpwJnAiMNxsIkmYOuBhgjLwpO/arYbziAyaCoDEluV4wwgG/HMIpvgrzCaSItEGPElQBh7RxkQSVyoAEiuW4w0BPkUw6J8KVJlNJEWuh2Ah4Z+Be33X3mQ4j0jGVAAk8tIn4Z1GMOifjm7Tk2jqAmYBdxPMDHQYziPSLxUAiaT07XonAecDZwBDzSYSyUo98HeCMjBbRyNLFKkASKRYjjcR+DJwMcEpeiJxtwL4E3C379qLDGcReZ8KgBhnOV4pwdT+pQTX9UvNJhIJzRzgD8BftQuhmKYCIMZYjjeF4J3+RcAuhuOIFNJm4I/AH3zXXmI6jBQnFQApKMvxyoFPA18huF9fG/RIMfOBJ4AbgZnailgKSQVACsJyvLHA5cDXgXGG44hE0SrgJuBW7S0ghaACIKGyHG8qcCVwAVBtOI5IHHQC9wG/8V17jukwklwqABIKy/GOAb5FsFOfTtsTyc2zwC99137CdBBJHhUAyZv0av6zgG8DhxuOI5IkrwHXAvdpnYDkiwqADFp6e94vA1cAuxuOI5JkS4H/Ae7QToMyWCoAkjPL8YYTDPpXAKMMxxEpJuuBG4Df+67daDqMxJMKgGQt/Y7fAb4LjDYcR6SYNRDcQvg/vmtvMR1G4kUFQDJmOV4V8DXg++hWPpEoaSC4NHCD79otpsNIPKgAyIAsx6sALgF+gHbsE4myWuDnBDsMao2A9EsFQPpkOV4ZcCHwQ3Qwj0icrAJ+DNypuwakLyoA8iHpo3i/CPwI2MNwHBHJ3SKCAn+fjiSWHakAyHYsxzuWYHXxxwxHEZH8eQ242nftx0wHkehQARDg/ZP5fgWcbTqLiITmUeAK37XfNR1EzFMBKHKW4w0FribYr7/ScBwRCV8X8BvgJ75rN5kOI+aoABQpy/EsggN6fgFMMBxHRApvPXAVwUJBDQRFSAWgCFmOdzTBdf5DTWcREePmAN/QyYPFRwWgiFiON4ngQJFzTWcRkUjxgTuBq3zXXm86jBSGCkARSJ/S902C+4JrDMcRkehqIniduEH7BySfCkDCWY53IHArcIjpLCISG68CF/uu/brpIBIeFYCESu/bfw3wLaDMbBoRiaEU8L/ANb5rt5sOI/mnApBA6c18bgamGo4iIvG3BLjUd+3nTAeR/FIBSBDL8UYSnAh2MWAZjiMiyeEDtwHf8V273nQYyQ8VgISwHO9swAV2Np1FRBJrHeD4rj3DdBAZPBWAmLMcbwJwI3CW6SwiUjTuBy7XLYPxpgIQY5bjnUkwLTfWdBYRKTp1wCW+az9oOojkRgUghizHqwF+DVxmOouIFL1bgG/6rt1iOohkRwUgZizHOxj4M7C36SwiImnvAuf5rv2K6SCSORWAmLAcrwT4NvDfQLnhOCIiO0oR7D3yC9+1ewxnkQyoAMSA5XgTgbuA40xnEREZwGyC2YCVpoNI/0pMB5D+WY73OeANNPiLSDwcA7xhOd55poNI/zQDEFGW4w0FfgtcaDiKiEiu7gEu81271XQQ+TAVgAiyHG9vgvtsp5nOIiIySG8Bn/Fd+13TQWR7ugQQMZbjTQfmoMFfRJLho8ArluNps7KI0QxARKRX+f838H20j7+IJNN1wNW+a3ebDiIqAJFgOd4Ygnv7TzKdRUQkZM8B5/iuXWs6SLFTATAsvbHPDGA301lERApkLfA537VfMB2kmGkNgEGW410IPI8GfxEpLrsAz1mO9x+mgxQzzQAYYDleBXAD8DXTWUREDLuH4FChDtNBio0KQIFZjjee4Ba/I01nERGJiNnAWb5r15kOUkxUAArIcrxpwCxgsuEoIiJRsxQ43XftRaaDFAutASgQy/GOA15Ag7+ISG/2AF60HO9400GKhQpAAViOdz7wODDSdBYRkQgbBTxmOd7FpoMUA10CCJnleNcAPzKdQ0QkZq4FrvJdW4NUSFQAQpJe6X8r8CXTWUREYmoGwdHCbaaDJJEKQAgsxxtJsNL/WMNRRETibi5wmu/aG00HSRoVgDyzHG8KMBMd5iMiki/vACf4rr3edJAk0SLAPLIc7xDgJTT4i4jk077APy3Hm2g6SJKoAOSJ5XjHAM8A40xnERFJoKkEJUBbp+eJCkAeWI73bwS3+Q03nUVEJMGmEJSAPUwHSQIVgEGyHO/TwMNAjeksIiJFYBJBCdjbdJC4UwEYBMvx/h24D6g0nUVEpIjsAniW433UdJA4UwHIkeV4lxCcYlVmOouISBEaDzxrOd6BpoPElQpADizHuwK4Gf3vJyJi0ljgGcvxPm46SBxpAMuS5Xj/CVwPWKaziIgIo4CnLMc7ynSQuNFGQFmwHO9a4Lumc4iIyIc0A5/yXdszHSQuNAOQIQ3+IiKRNhSYZTneiaaDxIUKQAbS0/4a/EVEoq0GeNhyvNNMB4kDXQIYQHrB3/Wmc4iISMY6gXN8137AdJAoUwHoR/pWv5vRgj8RkbhJAV/0Xfte00GiSgWgD+lNfu5Bl0lEROKqG7jQd+17TAeJIhWAXqS3970PbfIjIhJ3PQQl4G7TQaJGBWAH6YN9Hkbb+4qIJEUKONN37UdNB4kSFYBtpI/0fRwd7CMikjQtwAm+a79sOkhUqACkWY53CPAMOtJXRCSp6oBjfNdeZDpIFKgAAJbjTQFeAsaZziIiIqFaCRzlu/Za00FMK/oV7pbjjQRmosFfRKQY7AY8ZjneCNNBTCvqAmA5XgVwPzDNdBYRESmY/YGHLMerMh3EpKIuAMCtwLGmQ4iISMF9EviT5XhFOw4W7Q9uOd41wJdM5xAREWPOBn5nOoQpRbkI0HK884E7TecQEZFIuNJ37aI786XoCoDleMcR3OtfbjqLiIhEQjdwuu/aj5sOUkhFVQAsx5sGvACMNJ1FREQipQE4vJj2CCiaNQCW440HZqHBX0REPmwEwZ0BRTNGFEUB2OZ2v8mGo4iISHTtBdxrOV6p6SCFUBQFALgBONJ0CBERibx/A35tOkQhJH4NgOV4FwJ/NJ1DRERi5VLftW81HSJMiS4AluMdDDwPFPVuTyIikrUugtMD/2U6SFgSWwAsxxsDzCPY91lERCRbG4FDfddeZTpIGBK5BiC9teOf0eAvIiK52wn4m+V4idw3JpEFAPhv4CTTIUREJPaOAK41HSIMibsEYDnedGAGYJnOIiIiiXGW79oPmA6RT4kqAJbj7Q3MAYabziISR6NqyvjohGrTMbL28spmOruT81omkVQPHOy79nLTQfIlMQXAcryhBIP/NNNZROLqxL2GM+OiPU3HyNrUn7/JhqYu0zEk+eYCR/uu3Wk6SD4kaQ3Ab9HgLyIi4TkU+F/TIfIlEQXAcrzPAReaziEiIonnpMec2It9AbAcbyJwk+kcIiJSNG61HC9+18p2EOsCkL7f/y5glOksIiJSNIYDf7ccr9J0kMGIdQEAvg0cZzqEiIgUnQOBn5gOMRixLQDpff7/23QOEREpWt+2HO8Y0yFyFcsCYDleDcFWv4ncnlFERGKhBLgzfRt67MSyABCc1by36RAiIlL0diemtwbGrgBYjncmcJnpHCIiImlfsRzvVNMhshWrAmA53gTgNtM5REREdnCb5XijTYfIRqwKAHAjMNZ0CBERkR3sTDBGxUZsCoDleGcDZ5nOISIi0odzLMc713SITMWiAFiONxJwTecQEREZwO8sx9vFdIhMxKIAAP9DML0iIiISZaOB35kOkYnIFwDL8Y4FLjadQ0REJEPTLcc7w3SIgUS6AFiOVwXcDFims4iIiGTBtRxviOkQ/Yl0AQCuAaaaDiEiIpKlScCPTIfoT2QLgOV4BwLfMp1DREQkR9+0HG9/0yH6EskCYDleKXArUGY6i4iISI7KgJssx4vkZexIFgDgm8AhpkOIiIgM0pHApaZD9CZyBcByvEnAj03nEBERyZNfWo43znSIHUWuAADXAjWmQ4iIiOTJKCJ4YmCkCoDleEcDsdlGUUREJEPnWY53vOkQ24pMAUgvkrjBdA4REZGQ3JBe5B4JkSkAwAXAoaZDiIiIhGR/IrSzbSQKgOV4Q4FfmM4hIiISsp9ajjfcdAiISAEArgYmmA4hIiISsnEEY55xxguA5XhTgCtN5xARESmQK9Jjn1HGCwDwK6DSdAgREZECqSS45d0oowUgfdTv2SYziIiIGPC59K3vxhgrAJbjlaDb/kREpHhdb/KcAJMzAF8EPmbw+UVEREz6OMFYaISRAmA5XhkRPydZRESkAH5hOV61iSc2NQNwIbCHoecWERGJionAV008ccELgOV4FcAPC/28IiIiEfU9E7MAJmYALgEmGXheERGRKBoPXF7oJy1oAbAcrwr4QSGfU0REJAa+azleTSGfsNAzAF8Ddinwc4qIiETdOODrhXzCghUAy/GGAN8v1POJiIjEzHfSY2VBFHIGwCFoOCIiIvJhOwHfKNSTWb7vh/8kwdGHy4HRoT+ZiOSsotRiVE2Z6RhZ29jcRU/4L2UihbAJmOy7dnPYT1Sof+lXoMFfJPI6u302NHWZjiFSzMYA/wH8POwnCn0GIH09YzUwKtQnEhERSYbNBLMATWE+SSHWAHwZDf4iIiKZGg18JewnCXUGwHK8UmAxMCW0JxEREUme1cDuvmunwnqCsGcAzkKDv4iISLZ2BT4X5hOEXQC+HfLji4iIJNW3wnzw0AqA5XjHAIeH9fgiIiIJd4jleHZYDx7mDECozUVERKQIhDaWhrII0HK8qcBCzJw2KCIikhQ+MM137UX5fuCwBugrQ3xsERGRYmEB3wzlgfM9A2A53lhgFVCd1weWSJsyppLj9xxmOkbW7nhlE90Z7iEb15/x7rmb6OzO7GecOKKCk/cZHnKi/Pvzq5tp6+oxHUMkLG3AJN+16/L5oGFsBXw5GvyLziETa7h++iTTMbL2p3mbMy4Acf0Z75u/hc7u7oy+dp/xVbH8GR95p0EFQJKsmmBs/Uk+HzSv0/SW45VT4POMRUREisDX02Ns3uT7Ov2n0ZG/IiIi+TYOmJ7PB8x3AQh972IREZEidWk+HyxvBcByvCnAifl6PBEREdnOiZbj7Z6vB8vnDMDFBLcriIiISP5ZBGNtXuSlAKRP/bsoH48lIiIifbrIcry83MGXrxmA04Fd8vRYIiIi0rudgU/l44HyVQDyujBBRERE+pSXBfeDLgCW400ETs1DFhERKWIn7DWciw8fy6RRFaajRN3JluMNeseufFxH+DJQmofHERGRIvWZA0Zx8+cnU14arCVfvLGdJ99t5Ml3G3luSVPGO3YWiRKCxYA/GuyD5MxyvK0hREREcnLqtBHccs4Hgz/A1J2quPzocdx/0Z7Mu3Jfzj1oNKUlutFsG19OL8DP2WAvAZwExG/jcBERiYSjJg/lzi9MoayfwX33MZXc/PnJzLliGp/92CjUAwCYCJwwmAcYbAE4f5DfLyIiRWr/nau594I9qCrLbCiaulMVt587hX9+Yxp77VQVcrpY+PfBfHPOBcByvGrgjME8uYiIFKfJoyuZcdGeDK/Kfhb7gJ2r8Zx9OOeg0SEki5WzLMerzPWbBzMDcBowdBDfLyIiRaiqrIS/nr8744flfrjdkIoSbvn8ZH579iSqy/N9rE1sjGAQd+EN5n+1cwbxvSIiUqT++7SPsO/46rw81gUfH8uTX9ubsUPysjleHJ2b6zfmVAAsxxtCsPufiIhIxk6dNoKvHLlTXh/zgJ2rmXnpXuw0tChLwBnpMTlruc4AfAqoyfF7RUSkCE0YVs6Nn9ktlMeeNr6KmZfuxbihuV9WiKka4MxcvjHXAqDpfxERyZhlwU2fn8yYEKfq9xlXxcxLpw5qbUFM5XQ3QNYFwHK8YWjrXxERycI3jhnPcXsOC/159h5Xxb3n70FlWVFtFnCy5Xijsv2mXGYAzgR0A6aIiGTkY7vU8KOTC3dg7EETa7h+elHtUVcBnJ3tN+VSADT9LyIiGfvfT++63Ta/hXDeIWO4+PCxBX1Ow7K+GyCrAmA53gjg5GyfREREitPJ+4zgsEk5LVIftGvP2NXYcxtwXLaXAbKdAZhOMNUgIiLSL8uCH55UuKn/HVWUWtzxhSkMrSyKA2tLyfINerYFIKdbDUREpPhM/+goDtg5Pxv+5GriiAp+ZLCEFNinsvnijAuA5XhlwIlZxxERkaJTWmLxg3/b2XQMAC49cicO3bUoLgWcYjlexuN6NjMARwHDs88jIiLF5pwDR0fmxL4SC3579qSCL0Q0YAxwRKZfnE0BOCX7LCIiUmzKSy2uPjEa7/632m9CNc4x40zHKISMLwOoAIiISF5d8PGxTBoVvfXiVx47Iafjh2Mm43N6MioAluNNAA7MOY6IiBSF6vISvnPcBNMxejWiqpSvHpXfg4gi6ADL8XbN5AsznQE4GUj8xRMRERmcCw8by87Do7sX/9ePHlcMtwWelskXZVoANP0vIiIDuvDj0d59b1RNGZfl+TjiCMpoHcCABSB9S8FJg44jIiKJduBHapg2Phor//vjHDOOIRW5HoYbC8dbjjfg/xGZ/C9wGDB68HlERCTJzjtkjOkIGRkzpIxLj0j0LEAN8ImBviiTAqCjf0VEpF8VpRaf/VjWJ9Ia841PjKe6PNGzAPZAX5DJT6/r/yIi0q9T9hnB6Joy0zEyttPQsqSfFvjJgb6g3wJgOd5w4NC8xRERkUT67IHxu1L8/z6Z6FmAwwZaBzDQT35kBl8jIiJFrLTE4rg9h5mOkbXxw8o5J4bFJUOVwOH9fcFAg/vR+csiIiJJdPDEGkbEdIe9cw9ObAGAAdYBDHTB5pg8BpEEa+vqoba5y3SMrPn4GX9tXH/Gnsx/RDpTfix/xu5sfkjJu+P3jO85cUfuNpRJoypYtaXTdJQw9FsALN/v/R9O+vjfBoLbCURERHr1+GV7ceTkoaZj5OwnT6zlV8+uNx0jDK3ASN+1e231/V0COAgN/iIi0o+hlaV8fNIQ0zEGJcHrAGqAj/f1H/srALr+LyIi/frE7kMpK4n3UTF7j6viY7sk9v1un7cD9lcAdP1fRET6dWBCBs5zD0rsLECf6wA0AyAiIjnbe1z09/7PxGc/NorSmM9k9OHo9Jk+H9LrH1qOtwcQzQOdRUQkMpJSAMYPK8feI357GWRgGLBXb/+hrxkAvfsXEZF+lZZY7Dk2GQUA4PMHxucsgywd0tsf9lUAdP1fRET6NWV0BZVlyZk2P3Gv4VjJ+XG2dXBvf9hXATgyxCAiIpIASZn+32rc0HI+OqHadIwwZFYALMerAPYJPY6IiMTaPuOSN1gePzW+uxr24yDL8T40t9HbDMA0Bt4iWEREityEYeWmI+RdQgvACGCPHf+wt4H+gPCzFJfDdxvC2QfE7x7T7z28OuOv/dguNXzhkDEhpgnHD2auIZXhPvJx/Rmveew92rp6MvravXaq4uIjdgo5Uf799In3aO7I7GfcfUwllx01LuRE+ffLp9aypa3bdIztDI/pAUD9OWryUKrLSzL+NxMjhwBLtv0DFYAC+OiEGr52VPxeVLMpAFN3qorlz/ijx97LuADE9Wf8+ZNracvwfJ9Joypi+TP++rn1GReAj4yI58/4u9kbIlcARlQnrwBUllkcNWUoT7/baDpKvh0M/G3bP+jtEsD+hckiIiJxlsQZAIATknkZ4EMLAXsrAJoBEBGRAY1IaAE4ds9EbgjUfwGwHG8ssHPB4oiISGwltQDsO76amor+dsqPpdGW403e9g92/An17l9ERDKSxDUAACUWST0dcLsxfscCoOv/IiKSkaHJe5f8voM+ksgCsN2ZAJoBEBGRnHR2Z3YHTRwdPFEFQEREpFeZ3noZRwcmcwZg721/8/4+AOnzgvcreBwREYml1uRtlvO+qWOrGFpZSnNHZnsvlJZYDKssYVhlafBRFfy6rMSivauH9pRPW1cPHame9Gef1q4eGtsLurfDdjMA224ENAlI3sbOIiISikwHxziyLDhwl2pmL2+mrMRi11EVTBldyZTRFUwZU8mU0ZVMHl3JuKFlDK8qpbo8t/UQbV09rG/s4r3GLtY1dLK2sYu1jV28V9/J/LWtrNzSmc8fa4LleMN8126C7QvA5Hw+i4iIJFtrZ3JnAAD+7+zdKCuBiSMrKCsJ55zg6vKSoFCMqez1v29sTjF3dQuvrG5h7qoW5q1ppWlwxWsvYB5sXwCmDOYRRUSkuDQnvADsObb3QbmQdhpaxqnTRnDqtBEA9PiwqLY9KAWrWpi7uoUFte10Z7ilOX0UgMn5DC0iIsmW9BmAKCqxYNr4KqaNr+JLhwaHk7V09vDqmhaeXtzEffM3s6r/ywbvLwTUDICIiOSkpTO5awDiZEhFCZ/YfRif2H0Y15y8C3NWtXDv65t54M16aps/dBLY+wsBNQMgIiI5WdeY4TGTUlCHTRrCYZOGcO2nJvLPpU3cO38LD79dv/WOg14LgGYAREQkY0vqOkxHkH6UllgcN3U4x00dzg3TJ/HEogZmvLFl363/vQTAcrwKYBdjKUVEJHaW1LWbjiAZqiyzOGO/kfzx36dU/9dDi3eDD3YC3JXejwYWERHp1eKNmgGIo8pS66PwwaCv6X8REclKbXPXYO9JFwMqy0v2gQ8KwGRzUUREJK6WaBYgdqrKrD1AMwAiIjIIWgcQP9XlJRNBMwAiIjIIi3UnQOwMqSjZGT4oABMMZhERkZjSDED8DK0sHQsfFIAxBrOIiEhMzV3dajqCZGl4VekIUAEQEZFBWLG5g9X1eT2yVkI2srp0CKgAiIjIID23pMl0BMnC2CFl5QAlluNVA9WG84iISEx5S1UA4mRYZan1nw++O7oEvfsXEZFB+KcKQOxUlpbsrwIgIiKDsr6pi0W1uhsgTirLrGkqACIiMmi6DBAvVeUle6gAiIjIoKkAxEtZiaU1ACIiMnj/WtZEj286hWSqvNQargIgIiKDVt/WzWtrWkzHkAyVlVjDVABERCQv7p2/xXQEyVB5qTVEBUBERPLivvmbSek6QCxsLQBDTAcREZH429ic4ul3G03HkAyUl1rVJUCl6SAiIpIMf3lts+kIkoGKdAGoMB1ERESSYdY7DTS2d5uOIQOoKLUqNQMgIiJ5057qYcabWgwYdZVlJSoAIiKSX395VZcBoq6yzCovQ5cAQreusZPZy5K9S9bG5q5Y/ow9WaxYjuvPmM2q7C2tqVj+jJ2pnoy/tqG9O5Y/Y0cqPqvrX1zRzIrNHUwerfeXUVVZVlJm8fXn3gL2Mx1GRESS46oTd+aqE3Y2HUP68F5DZ0qXAEREJO/+oU2BIq26vKREdwGIiEjenbDXcNMRpB+pHt/SDICIiOTVMVOG8l8n7WI6hvShtbOHL96zTJcAREQkf75w8Bj+cdGeDKkoMR1FetHZ7fOFe5bx8soWS3cBiIjIoE0eXcn1n95VU/8R1t3jc/Ffl/PM4kaAkjI0AyAiIjmy9xjGV47cidOmjaC0xDIdR/rxH/ev4sG36rf+tqTMZBgREYmXyjKLwyYN5ZN7DGX6R0ex97gq05FkAN09Pt9+aDV3z9203R+XAR1AjZlYIiISVRWlFpNGVTB5dCUHfaSGT+4xjMN3G0JVma7vx0VzRzcX/GU5Ty760CmNHWVAJwktADsNLaPE0pSUiEipBVXlJdSUl1Bdkf5cXkJNRQlVZcHn0TWlTB5dmf6oYJfhFWhWP77WNHTy+TuW8tb6tt7+c+fWGYBEWvj9/Skv1d9eEREpLq+taeWcu5ayvqmrry/pSGwBGF5VqsFfRESKzj3zNvGtB1fT1tXvGRnvXwJInNE1Wt8oIiLFo7a5i/+YsYpZCxoy+fLkXgIYM0QFQEREisMDb9XzzQdWsakllem3JPcSwOiaUtMRREREQrW5NcV3Hl7D31/fnO236hKAiIhI3HR2+9z0Qi3XPbOehvbunB4isTMAlVoAKCIiCfTAW/X816PvsWLzoIbv5F4C0JaUIiKSJC+saOaax9by0srmfDxcci8BlKkAiIhIzDV1dPPX1zZz+8t1vN37hj65Su4lAM0AiIhIXM1f28ptL9Vx7/zNtHb2ez9/rjrKgJYwHtm0Um1VLSIiMdLW1cM/3tjCbS/XMW916ENzSxmwacAviyFdAhARkThYVNvObS/X8ZdXN+W6oj8XmxJbAHQJQEREoqg91cOLK1p4dnEjzy5pYv7aVhMxklsAdFqliIhEge/DG+taeXZJE88ubuTFFS20p0K5A7ZmNQAAIABJREFUrp+N5BYAzQCIiIgpq7Z08tzSJp5bErzLz2KL3kJJcAGwVABERCQ8PT6s2tLBwtp2FtW2v/95UW07TR0Fu5afq+QWAF0CEBGRXHX3+GxqTbGxOcXGlhR1zSk2NnexsSXFis0dvFvbzuK6joGO3I2yBBcAbQUsIiJ9OO+eZSyua6e7B7p9n1S3T7cfDPztKZ/6thS+bzplqJJbAHQJQEREelPXkuLhd+qTPsAPZFOJ79ptQF73F4wC7QMgIiK9eXZxY7EP/m2+a7dtvVKeuFkA7QQoIiK9eXpxk+kIpm0CSGwBSPUUd70TEZHePbuk0XQE05JdAJo7YrsyU0REQvLOhjbWNXaZjmHadgVgvcEgoWgJ5/QkERGJsWc0/Q/pMX9rAVhhLkc4YrAJg4iIFNjTi4t++h/SY/7WArDcXI5waAZARES21Z7q4YXlzaZjRMFySPAMQItmAEREZBsvrmiJ8859+bQCEjwD0KwZABER2cbT72r6P227GYDVQKJGTN0FICIiW/k+3P/mFtMxoqCHYMwPCoDv2p3AWpOJ8q2lU5cAREQk8PKqZlbXd5qOEQVr02M+2+6Xl6jLALoEICIiW/39db37T3t/rN+2AKwofI7wNLZrBkBERIKdYWdo+n+rFVt/kdgZgM2tKbq6tR2wiEixe2ZxI5taUqZjREXyZwB8H2qb9X+4iEixu1fT/9tasfUXiZ0BANjQVPT7PYuIFLW2rh4eeafedIwoSf4MAMB6FQARkaI2850GWrUofFsrtv5i2wKwCmgreJQQrdeJTyIiRe3e1zebjhAlbQRjPbBNAfBduwd420SisOgSgIhI8drcmtLhP9t7Oz3WA9vPAAC8UeAwodIlABGR4nXX3E26G2x7243xKgAiIpI4qR6fm16oNR0javotAG8WMEjoVABERIrTA2/W816DxoAdbDfGJ3oGYIMWAYqIFCV39gbTEaKo7xkA37XrgHUFjROi2uYUPbr8IyJSVF5c0cyra1pNx4iadekx/n07zgBAgmYBUj2+LgOIiBSZ383Wtf9efGhs760AJGodwKLadtMRRESkQFZu6dTOf7370Nie6BkAgEW1idrbSERE+nHj87W69Nu7jGYAElYANAMgIlIMmjq6uXvuJtMxoiqjArAASMwxeioAIiLF4Y45dTR3dJuOEUUpgrF9Ox8qAL5rdwILC5GoEBZtVAEQEUm61s4ebvinbv3rw8L02L6d3mYAAF4MOUzBbGxOsaU1MRMaIiLSC3d2LRub9Vrfh17H9L4KwOwQgxTcQl0GEBFJrC2tKf7vX3r3349ex/S+CsDzIQYpOF0GEBFJruu9DTS269p/P3od03stAL5rLwXWhxqngLQQUEQkmdY1dnHTixtNx4iy9ekx/UP6mgGABM0CqACIiCTTdc+so62rZ+AvLF59juX9FYDErANQARARSZ7lmzq4S/f9D6TPsbwoZgDWNHTS2qmGKCKSJD97ah1d3dr2bwA5zQC8BiTiOCXfh/lrE/GjiIgI8Pb6Nu6bv9l0jKhrJRjLe9VnAfBdOwW8HEYiE15a2WI6goiI5MkPZr2nPf8H9nJ6LO9VfzMAkKB1AC+uaDYdQURE8uAfb2zhmcWNpmPEQb9j+EAFIDHrAF5a2YyvtigiEmtNHd1c9cga0zHiot8xfKAC8CKQiNVz9W3d2hFQRCTmfvLEWtY3dZmOEQc9DLCtf78FwHftRmBuPhOZpMsAIiLx9fp7rdyiTX8yNTc9hvdpoBkAgMfyFMa4F1eqAIiIxFGPD//vgVVa+Je5AcfuTArAo3kIEgmaARARiadbX9rIa2t0O3cWBhy7MykAc4BE3Gy5aksn6xp17UhEJE7WN3XxkyfWmo4RJ5sJxu5+DVgAfNfuAZ7IR6Io0CyAiEi8XD1zjU77y84T6bG7X5nMAIDWAYiIiAGPL2zgvvlbTMeIm4zG7EwLwONAIpZevLRCOwKKiMRBbXMXl/9jpekYceMTjNkDyqgA+K69Hnh9MImi4q31bTR3aCpJRCTKfB+++veVbGzucydb6d3r6TF7QJnOAEBCLgN09/g6F0BEJOL+8EItT72r7X5zkPFYXXQFAGDmO/WmI4iISB/eWt/Gfz32nukYcRVKAXgBSEQde+SdBm0mISISQW1dPVz81+V0pPQinYNGgrE6IxkXgPSRgk/lkihqNjR18bLuBhARiZz/nPUeCzbo3JYcPdXf8b87ymYGAOChLL8+sh56W5cBRESi5LGFDdzykvb6H4SsxuhsC8ADQGeW3xNJD72lAiAiEhUbmrq4/D7d8jcInQRjdMayKgC+azeQ4f2FUbe6vpP5a7WvtIiIaakeny//dQV1LbrlbxAeT4/RGct2BgDgbzl8TyQ9qFkAERHjvv/IGv61rMl0jLjLemzOpQA8BCRihYYuA4iImHXX3E3c/KKu+w9SOzms0cu6APiu3URCjgh+d2M7i2oT0WVERGJnzqoWrnxglekYSfBoemzOSi4zAJCgywC6G0BEpPDWNnbxxXuW0dmt+/3zIKcxOdcC8AiQiBV0ugwgIlJY7akevnD3UjY0dZmOkgStBGNy1nIqAL5rtwAzc/neqJm/tpVVWxJxZ6OISCz8v/tX8eqaRLyHjIKZ6TE5a7nOAIAuA4iISJZ+N7uWv7y62XSMJMl5LB5MAZgFJGI/3fvm6y+jiEjYnn63kf98VIf85FEzwVick5wLgO/abcDDuX5/lLy6ppW5q3VEsIhIWOatbuGLf1pGt05iy6eH02NxTgYzAwBw1yC/PzJufL7WdAQRkUR6d2M7n7ljKa2dPaajJM2gxuDBFoAngETcxPngW/Wsa9SKVBGRfHqvoYvpty1hc6u2+c2zVQRjcM4GVQB81+4BbhvMY0RFV7fPbS9rNyoRkXzZ3Jpi+u2LWdOgO61CcFt6DM7ZYGcAAG4HuvPwOMbd/nIdHSldnxIRGazWzh4+e8dS7bYajm6CsXdQBl0AfNdeQ0K2Bq5rSfF33REgIjIoXd0+X/zTMi2uDs+j6bF3UPIxAwBwS54ex7g/aDGgiEjOfB8u+/sKnn630XSUJMvLmJuvAjATWJunxzLqjXVtPL88EdsbiIgU3HceXs1987eYjpFka8nTTrx5KQC+a3cDf8zHY0XBH17QLICISDZ8H7714God7Ru+P6bH3EHL1wwABHcDJGIF3SPvNLC6XqtWRUQy0ePDf9y/ilte0uAfMp883nmXtwLgu/Zy4Kl8PZ5J3T2+WqyISAa6e3y++vcV3PlKnekoxeCp9FibF/mcAQC4Oc+PZ8ydr9TR1qVdq0RE+pLq8bnkbyv462u6e6pA8jrG5rsAPAgk4gJ6fVu3TqwSEelDV7fPhX9ezj/e0IK/AqklGGPzJq8FwHftLuB3+XxMk37zrw10didiWYOISN50pHy+eM8yHaVeWL9Lj7F5k+8ZAIAbgZxPJ4qS5Zs6uEl3BIiIvK+tq4dz7lrKYwsbTEcpJm0EY2te5b0A+K5dB9yZ78c15dpn1rOpRYdYiIg0tHfzmT8u4ZnF2uSnwO5Mj615FcYMAMCvgUSsoGts7+ZnT60zHUNExKhVWzo58feLmK2N0gqth2BMzbtQCoDv2ouBh8J4bBP+OKeOBRt0oIWIFKfX1rRy/I2LdLCPGQ+lx9S8C2sGAOB/Q3zsguru8blq5qDPXRARiZ1ZCxo45eZ3qW3O6/ozyVxoY2loBcB37dnAy2E9fqE9s7iRx7XoRUSKyE0vbOQLdy/VnijmvJweS0MR5gwAwK9CfvyC+sGs90j16LZAEUm2Hh+umrmG7zy8Gr3kGRXqGBp2AbgfyNu2haa9u7GdW7XXtYgkWFtXD+f/aRm/m61boA1bTjCGhibUApA+sej6MJ+j0H7x9Hq2tOq2QBFJng1NXZx+y2Jt8BMN1+fr1L++hD0DAHA7kJi9Ire0pvjF0+tNxxARyauXVjbzid8uZO7qFtNRJBgzbw/7SUIvAL5rtwA3hP08hXTrSxtZvFG3w4hIMtz0wkZOv2Ux65u00j8ibkiPnaEqxAwABAUgMSfrpHp8rp71nukYIiKD0tbVwyV/W8F3Hl5Nl849iYrNFOhNc0EKgO/ajcB1hXiuQnl8YQNPvavtMEUknpZv6uCEGxdx7+uJeW+WFNelx8zQFWoGAMAlIUcFb/WNGSupbwt1jYaISN49vrCBT7oLeWt9Is5tS5JagrGyIApWANLXM35ZqOcrhPcauvjmA6tMxxARyUiPDz9/ah2fv2spDe168xJBvyzEtf+tCjkDAPB7YG2BnzNU/3hji6bQRCTy6lpSfO7OJfzy6XX4utwfRWsJxsiCKWgB8F27HfhZIZ+zEK58cDVr6jtNxxAR6dWTixo54oYFPLlI65Yi7GfpMbJgCj0DAHArkKh588b2br5y7wptmSkikdKe6uE7D6/mM3cs0WE+0baKYGwsqIIXAN+1O4GfFvp5wzZ7eTO//dcG0zFERAB4c10btruQm17Q9uUx8NP02FhQJmYAAO4Alhp67tD89Im1vLxSu2iJiDm+D+7sWo6/cSELNmjDshhYSjAmFpyRAuC7dgr4sYnnDlNnt895f1rGukZNtYlI4a1r7GL67Yu5euYaOlK6JhkTP06PiQVnagYA4E/AfIPPH4oNTV188Z5l+scnIgX10Nv1HPGbBTy7pMl0FMncfIKx0AhjBcB37R7gClPPH6a5q1u0P4CIFMTG5hRf/utyzrtnmU4qjZ8r0mOhESZnAPBd+zlghskMYbln3iYtvhGRUP1p3iYOvf4d7pufmANXi8mM9BhojNECkPZtoMN0iDBcNXMN/1qm6TgRya9lmzo449bFfO2+lXrXH08dBGOfUcYLgO/ay4Ffm84RhlSPzwV/Xs6yTYnsNyJSYKken+u9DRz5mwV4S/XmIsZ+nR77jDJeANJ+Dqw3HSIMdS0pzrxtMWt1Z4CIDMKra1qx3YX86LH3aOsydtlYBm89wZhnXCQKgO/azcBVpnOEZdWWTqbftpjNmqoTkSy1dvbw/UfWcMLvF/HmOp3elwBXpcc84yJRANLuBOaaDhGWhbXtfOaOpbR0qrmLSGZmvLGFQ69/hxufr6Vbe40nwVyCsS4SLD9Cx0JZjnc0MNt0jjAdt+cw7r1gTyrLLNNRRCSi5q9t5XsPr+GFFZF4oyj5c4zv2s+bDrFVpAoAgOV4fwHONZ0jTGfuN5I7vzCF0hKVABH5wMbmFD95Yi13z63T4WLJ81fftf/ddIhtRekSwFbfA1pNhwjTQ2/Xc/k/VmpKT0SAYBvx//vXBg781dvc+YoG/wRqJRjbIiVyMwAAluN9G/gf0znCdsZ+I7n93Cm6HCBSxB5d0MDVs9awtE63CyfYd3zX/pXpEDuK4gwAwPXAPNMhwvbw2/V89o4lWhgoUoQW1rYz/fYlnHPXUg3+yTaPYEyLnEjOAABYjncg8ApQZjpL2A6eWMOMi/ZkdE3if1SRorewtp3/eXY9/5i/WVP9yZcCPu679uumg/QmsgUAwHK8XxLB6yZh2GdcFQ9cPJVdhpebjiIiIXh7fRvXPbOeB9/aooG/eFzru/b3TYfoS9QLQBXwBjDVdJZCmDSqgocunsruYypNRxGRPJm/tpXrnlnPI+/UE+GXW8m/xcABvmu3mw7Sl0gXAADL8Y4FngGKYqXcmCFl3PmFKXxy92Gmo4jIILy6ppVrn1nHowsaTEeRwvOB402f9jeQyBcAAMvxbgEuMZ2jUMpKLH522kf42tHjTEcRkSzNWdXCtc+s48lFjaajiDm3+q59qekQA4lLARgJvAPsbDpLIZ170Gh+c9YkqsujerOGiGz1wopmrn16Hc8u0Sl9RW4dsK/v2vWmgwwkFgUAwHK8s4F/mM5RaB/bpYa/fGl3Jo6sMB1FRHrxz2VNXPv0ev61TAO/APAZ37VnmA6RidgUAADL8WYAZ5nOUWhjh5Rxh9YFiETKs4sb+eUz63lR+/XLB+73Xfts0yEyFbe55cuBOtMhCq2uJcX025Zwwz836PYhEcOeXNTICb9fxKdvX6LBX7ZVRzBGxUasZgAALMc7E3jQdA5TDt9tCH/47GT2GKtbBUUKadaCBq59Zh2vrUn0USWSu0/7rv2Q6RDZiF0BALAc7w/AZaZzmFJdXsKPT9mFy44ch1UUN0eKmFHf1s29r2/m9pfreGdDm+k4El03+a79VdMhshXXAlADvArsbTqLSZ/YfRg3fnY3dhulBYIi+fT88mbueKWOB9+spz2lszqkX4uAg33Xjt3UUCwLAIDleAcDLwFFvXfukIoSfnbaRL58+FjTUURibWNzij+/uok7X6ljiQ7nkcx0AUf4rv2q6SC5iG0BALAc77vAtaZzRMFxew7jujN2Ze9xVaajiMRGjx+s5r/zlTpmLmigqzu+r4dixPd8177OdIhcxb0AlABPAceZzhIFZSUWXz58LFefuLNOFhTpx3sNXdwzr467XtnE6vpO03Eknp4FTvRdO7bXiGJdAAAsx5tIcGDQKNNZomJkdSnfP2FnLj1iJ8pLtUpQBCDV4/P4wkbueKWOp95tpFv31EruthAc9LPGdJDBiH0BALAc73PAvaZzRM2eYyv52WkTOXXaCNNRRIxZsbmDO1/ZxJ/mbWJ9U5fpOJIMn/dd+++mQwxWIgoAgOV4fwQuNJ0jio7bcxg/P30i+02oNh1FpCA6Uj4Pv13PXa/U4S1r0jG8kk93+K59kekQ+ZCkAjAUmANMM50liiwLPrXvSK60x3PIrkNMxxEJxZvr2vjzq5v4y6ub2dyaMh1HkmcBcJjv2onYAjIxBQDAcry9CUrAcNNZoszeYxhXHjuB4/bU2QISb13dPrOXNzNrQT2z3mnQgj4JUyPB4L/IdJB8SVQBALAcbzowA9DqtwEcNLGGK+0JnLHfSEr0v5bERH1bN08uamDWggaeWNRIU0e36UiSfD5wtu/aD5gOkk+JKwAAluP9HLjKdI64mLpTFVd8cjznHDSaCt01IBG0YnMHsxY0MOudBl5Y0UxKK/ilsH7hu/bVpkPkW1ILQAnwKHCS6SxxMnZIGeccNJrzDhmjBYNiVI8P81a3BIP+gnoWbGg3HUmK1xPAqXG+378viSwAAJbjjQHmAbuZzhJHB36khvMOGcPnDxzNyOpS03GkCLR19fDskiZmvVPPYwsbqW3WLXti3ErgEN+1N5kOEobEFgB4/7yA5wHtj5ujyjKL0/cdyXmHjOH4qcO1VkDyakNTF48tDK7nP7ekibauxL3JkvhqB46O6z7/mUh0AQCwHO9C4I+mcyTBLsPLOeeg0Xxq35EcsusQlQHJWkfK5/X3WvnnsiYeXdDAvDUtukdfouoi37XvMB0iTIkvAACW490IfM10jiQZO6SMk/YewSnTRnDC1GEMq9RlAvmwNQ2dzFnZwpxVwccba1vp1IE7En2/9137ctMhwlYsBaACeA440nCURCovtTh68lBOmTaCU/YZwe5jKk1HEgM6Uj7z17YGg/3KZuasamFto67jS+y8CBzru3biN5UoigIAYDneeOAlYLLhKIk3dacqTtp7OEdNHsrhuw1h3NBy05EkBGsbu5izqoWX04P9G2tb6UgVx+uJJNYK4AjftTeYDlIIRVMAACzHmwa8AIw0naWYTBlTyRG7DeHwSUM5YvIQ9hlXrfUDMdPZ7fPG1nf3q1qYs7KFNQ2Jf4MkxaUeOMp37QWmgxRKURUAAMvxjgMeB/S21JDhVaUcNmkIh+82hCN2G8rBE2u0hiBCOrt9VmzuYMGG9vSA38zr7+ndvSRaF3Cy79rPmg5SSEVXAAAsxzsfuNN0DvnAriMr2G9CNR/duZp9x1ez34Rqpu5USZmmCkKxdZBftqmDpXXB5yWbOlhW187q+k600Z4UmQt8177LdIhCK8oCAGA53jXAj0znkL5VlFrsPa6KfScEhWC/8dXsObaSXUdVqBhkYOsgv3WAX7r1o66dNRrkRbb6se/a15gOYULRFgAAy/HuAr5kOodkp7TE4iMjypk8qpLJoyvYbXQlU0ZXstuoCiaPrmSnoWWmIxZMR2qbd/Kbtr6jb2fppg4N8iIDu9t37fNNhzCleF4pe3cJsCtwrOEckoXuHp9VWzpZtaWTfy778H+vqShh8qhKxg8vZ+yQMsYOKWNMTfB57NDtfz+qpsz4gsQeH5o6uqlv66a+LZX+3E1D+we/b2jrZktbKv1n3e//WV1LlwZ5kdw8RzAGFK2ingEAsBxvJMGdAdNMZ5HCK7FgVE0ZwypLKS+1KC+xKC+1KC1hu9+XbfPr8lKLsh1+ve3vy0vSX5/+dWtXT3rATm0zsKcH9LZuGju6tRueSGEtIFjxX286iElFXwAALMebQrBHwDjTWUREJFS1BPf6LzcdxLQS0wGiIP0X4TSg0XQWEREJTSNwmgb/gApAmu/a84DTgVbTWUREJO9agdPTr/WCCsB2fNeeDUwHOkxnERGRvOkApqdf4yVNBWAHvms/CZwDpExnERGRQUsB56Rf22UbKgC98F37QeB8oMd0FhERyVkPcH76NV12oALQB9+1/wJcBug2CRGR+PGBy9Kv5dILFYB++K59K3Cl6RwiIpK1K9Ov4dIHFYAB+K59A/BD0zlERCRjP0y/dks/tBFQhizHuxb4rukcIiLSr+t81/6e6RBxoBmADKX/Ql1nOoeIiPRJg38WVACykP6LpcsBIiLR80MN/tnRJYAcWI53BfBrQIfSi4iY5RMs+NM1/yypAOTIcrxLgJvQLIqIiCk9BLf6abV/DlQABsFyvH8H7gLKTGcRESkyKYJNfnSff45UAAbJcrxPA38DKk1nEREpEh0E2/tqh79BUAHIA8vx/g14AKgxnUVEJOFaCQ720d7+g6QCkCeW4x0DzASGm84iIpJQjQRH+upUvzzQArY8Sf+FPB6oNZ1FRCSBaoHjNfjnjwpAHvmuPQ84AlhgOouISIIsAI5Iv8ZKnqgA5Jnv2suBo4DnDEcREUmC54Cj0q+tkkcqACHwXbseOBm423QWEZEYuxs4Of2aKnmmRYAhsxzvGuBHpnOIiMTMj33XvsZ0iCRTASgAy/HOB24Fyk1nERGJuC7gEt+17zIdJOlUAArEcrzjgBnASNNZREQiqh4423ftZ00HKQYqAAVkOd40YBYw2XAUEZGoWQGc5ru27qIqEC0CLKD0X+wjgBdNZxERiZAXCW7z0+BfQCoABea79gbgWOD3hqOIiETB74Fj06+NUkC6BGCQ5XgXEvzlrzIcRUSk0NqBr/mufYfpIMVKBcAwy/EOJlgcuJvpLCIiBbKSYLHfq6aDFDNdAjAs/Q/gEOAJ01lERArgCeAQDf7mqQBEgO/am4BTgV8AmpIRkSTyCV7jTk2/5olhugQQMZbjTQfuRMcKi0hyNAIX+K79gOkg8gEVgAiyHG9v4H5gmuksIiKDtAA4y3ftRaaDyPZ0CSCC0v9QDgPuMBxFRGQw7gAO0+AfTZoBiDjL8T4H3ASMMp1FRCRDW4DLfNf+u+kg0jcVgBiwHG8icBdwnOksIiIDeBY433ftNaaDSP90CSAG0v+QTgS+R3BSlohI1HQRvEadqME/HjQDEDPpjYP+DOxtOouISNoi4Au6tz9eNAMQM+l/YAcTrAsQETHtJuBgDf7xoxmAGLMc70zgNmCs6SwiUnTqgIt9137IdBDJjWYAYiz9D29/gj0DREQK5X5gfw3+8aYZgISwHO9swAV2Np1FRBJrHeD4rj3DdBAZPM0AJET6H+S+wK3oPAERyS+f4LVlXw3+yaEZgASyHO9Y4GZgquEoIhJ/i4Gv+K79nOkgkl+aAUig9D/UA4BrgZTZNCISUymC15ADNPgnk2YAEs5yvAMJpu4OMZ1FRGJjHnCJ79qvmw4i4dEMQMKl/wEfDnwHaDUcR0SirZXgteJwDf7JpxmAImI53iSCKb1zTWcRkcj5K/A937VXmQ4ihaECUIQsxzsauAE41HQWETFuLnCF79rPmw4ihaVLAEUo/Q/9MOAiYL3hOCJixnqC14DDNPgXJ80AFDnL8YYCVwNXApWG44hI+DqAXwM/91272XQYMUcFQACwHG8K8CvgbNNZRCQ0M4Bv+6693HQQMU8FQLaT3kToBuBjhqOISP7MJ7jO/5zpIBIdWgMg20m/QBwMnA8sNZtGRAZpKcG/5YM1+MuONAMgfbIcrwy4EPghMMlsGhHJwirgp8AdvmtrN1DplQqADMhyvArgEuAHwC6G44hI39YCPwNu9V2703QYiTYVAMmY5XhVwNeA7wPjDMcRkQ/UAr8Efu+7drvpMBIPKgCSNcvxhgAO8F1gtOE4IsVsM3Ad4Pqu3WI6jMSLCoDkzHK84cAV6Y9RhuOIFJMtBHfr3OC7dqPpMBJPKgAyaOkZgS8TFIHdDccRSbLlwPXA7XrHL4OlAiB5YzleKXAW8G2CEwhFJD9eJtio637ftbtNh5FkUAGQUFiOdwzwLeBMtN+ESC56gIeA//Vde7bpMJI8KgASKsvxphKcM3ABUG04jkgctAF3Ar/2XXux6TCSXCoAUhCW440FLge+jm4hFOlNLfA74EbftetMh5HkUwGQgrIcrxz4NPAV4ETAMptIxCgfeAq4GXjQd+0uw3mkiKgAiDHpEwgvJjiTXDsMSjFZC/wRuE0n84kpKgBiXPrugdOBS4FTgVKziURC0Q08CtwCzNRqfjFNBUAixXK8iQR7ClyMDiCSZFgF3EZw7/4a02FEtlIBkEiyHK8EOIngKNMzgKFmE4lkpRl4GLgLeMJ37R7DeUQ+RAVAIs9yvGrgNOAcgksFNWYTifSqFZgJ/A2Y5bt2m+E8Iv1SAZBYSW87/CmCMnAqUGU2kRS5doLr+n8DHtH2vBInKgASW5bjDSPYafAc4GSgwmwiKRKdwOMEg/5Dvms3Gc4jkhMVAEkEy/FGANPnn3byAAABrUlEQVQJCsGJwHCziSRhGgnu138IeMB37QbDeUQGTQVAEsdyvDLgKOCU9MeBaMMhyY4PvA48lv54wXftlNlIIvmlAiCJZzneBIJLBKcQ3Fkw2mwiiajNwBMEA/7jvmuvN5xHJFQqAFJU0rcXHkawgPAU4FB0WmGx6gHmEgz4jwJzdLueFBMVAClqluMNB44EjgaOAQ5HtxkmVSvwMjAbeB540XftRrORRMxRARDZRnr9wEF8UAiOBiYYDSW5Wk8w0G8d8F/TdXyRD6gAiAzAcrw9+KAQHAnsA5QZDSU7SgELgRdJD/i+ay81G0kk2lQARLJkOV4FMA04IP2xf/rzziZzFZF1wBvAm+nPbwALfNfuNJpKJGZUAETyxHK8sWxfCA4A9gOqTeaKsTbgbT4Y5N8E3vBdu85oKpGEUAEQCVH6roNJwGRgSi+fd6F470LoAdYCy4EVvXxepVX5IuFRARAxKH05YVc+XA4mAGO2+YjbLEIbsGmbj/V8eJBfrWl7EXNUAERiIH0i4pgBPoYAlQRnIlRm+GuADoL97Tsy/HUL2w/uH/rQSXgi0ff/AbQW0hxsrYR9AAAAAElFTkSuQmCC;" parent="1" vertex="1">
          <mxGeometry x="1328" y="410" width="50" height="50" as="geometry" />
        </mxCell>
        <mxCell id="w6qTvtTmNooETmaVql6n-24" value="" style="shape=image;verticalLabelPosition=bottom;labelBackgroundColor=#ffffff;verticalAlign=top;aspect=fixed;imageAspect=0;image=data:image/png,iVBORw0KGgoAAAANSUhEUgAAAIAAAACACAYAAADDPmHLAAAABHNCSVQICAgIfAhkiAAAAAlwSFlzAAADdgAAA3YBfdWCzAAAABl0RVh0U29mdHdhcmUAd3d3Lmlua3NjYXBlLm9yZ5vuPBoAACAASURBVHic7Z15nFxVte+/e9c5NfbcaQmBJGgoQGRUCSoJEjCiCMJDuAytTxyfAu+pn+tVLnx86PWB033X51NxvIhXC3A2EkEEDJqAMgkRBKThQgiShE567q7hDPv9cU41PZxddU7Vqe7kffh9Pp1Kd1Wds89ea6+99hqFUor/39A/4HYAhwCH+j+rgC6gA2if8wowBozPeR0BngL+5v88UcjLsYV7ioWB2NcZoH/AzQFrgJOB1XgE379Ft9uBxwz3Ar8DthTycrJF91oQ7HMM0D/gJnmR4OuA4wBzkYZjAffhMcMmPIaoLNJYGsI+wwD9A+7rgHcB5wM9izwcHYaAG4EfFPLyT4s9mDDYqxmgf8BdiUf0d+Ht6fsSngB+gMcM2xZ7MDrslQzQP+C+FrgcOAsQizycZqGAXwJXF/Ly/sUezFzsVQzQP+CuBa4ATl3ssbQItwJXFfJy82IPpIq9ggH6B9xTgCuBtYs9lgXCZuAzhby8Y7EHsqgM0D/gHgh8GThn0QaxuPgp8LFCXj63WANYFAboH3AN4CPAp4G2BR/A3oUJvHn4SiEv7YW++YIzQP+Auwb4BnDEgt5478cjwIcLebllIW+6YAzQP+AmgM8Cl7Hva/atggI+D3yqkJfOQtxwQRjA3+tvwLPgvYT62AJcsBC6gWz1DfoH3NOAh3iJ+FGwBnjIn7uWomUSoH/AFcDngE/wkshvFAr4IvDPhbxsCaFawgC+w+b7eHb7l9A8bgTe3QpHU+wM0D/gtgE/B9bHeuGXcBtwdiEvJ+K8aKwM0D/g9gE3A6+N+l1TwKvTNgebDitNl/0MhQIcBSUFz9uS5yzJNjvBI+UE9uIbMGfBEHBEymGl4XCg6bLMcEkLSAhv/9tlC7ZZkietBH8uGViNjf9+4LRCXg7GNe7YGKB/wF2Bx6WRvHY5qVifs1ibscmF3OYmXMFdRYM/TJnscRZXvehNKE7MWpyQsWkLOf5JV7C5aHDbpMmkG3n8TwDrC3n5bNQvBiEWBvBX/hYiEv/gpMP7Ost0JxobgwIeKSf4/ZTJX8sJFkooCOBVKYc3Zi2OSDkNa7jDjuDfR1M8WUlE/eoTwJo4JEHTDODv+ZuIKPbXZm0u6CjHdg7d7Qg2TZlsmjRxY7rmXEhgXc5iXdZiSYNMOxcucMNYis1TRtSv3g+sa1YnaIoBfG1/IxEVvqNSDh/qLrXECPGsJbluNMXzdrxXX2a4XNRZZoUZP3u5wDeH0/ylHFkS3Aac3szpoGEG8M/51xPxqLfMcPlkb5FUHbnp4u31bVJFZhRbwa8nktwagzSQwKk5i7e1VTAiyvooz1BW8IU9mUYY90bgwkbtBJHlzgx8jgbO+ed2VLTELyvYMmVyV9Fgpy1x8bTr/RKeVn2A6bI6bdNTR/waAs5sr3B02ub7oyl2NCgN9jdc3t1Z5qCQq37QkdxTNHjeFuywJYOOxFYeEy01XE7I2KzJWoHPnxLe3HxlKB11mOcD2/B8LJHRkATwTZQbiWjhOzLlcEl3KfC9shJ8dbi+QiTxjoun5CxeHoIwtoKbJpLcFkEaSGB9zuKMkKv+qUqC26ZMtpbqK6IHJx3+e3eZlAj+5NeH0zwcfStQeFvBzVG/GJkBfMfOQ0Bv1Jv9c2+RlQFEC0v8uVhlOrwpZ3N02q4rYp+2JNeOpBh0an+yL+Hy3q5yXeZygYdK3lHuaSuahKnFBNssyef2ZCJdz8ce4JioDqRIDOC7dO+kAcfOyxIu/9JXDHzvmyNpHipF5vppHOAraMvrEG3SFVwzkuIpDaOtSjpc3FWua4/Y7iuaf29C0Twm7fChrmBp+D8HM7xQh1E12AKcFMWVHPUun6VBr97qTPCYhhzB1iaID/B3W/L5PRluqSPmc1Lx0e4Sr0nPD7x5Tdrmo92lmsR3gVsmTT6/J9MU8QG2lhIMaYxYurkKgTV4NAqN0E/hR/I0pGgAHJkKjna6u2jEYsBxgA3jSb60p/bqMQW8v6vMm3PW9N/enLN4f1cZs8Z+/4Ij+dKeDBvGk8QRqaHwnj0IurkKict8WoVCqC3Aj+F7kCbCuL683xSZOXueAq4YzGpXQqNICnhHe4UTs1ZNLbVqfFmb1U+4Av4wZfKz8SSVmE2NPQnFVX1T88ZYVIKP7co2c+lHgGPDxBiGlQAfoQni56SaR3yAJyt6MdgMKgpuGEvy9eE0JaW//tqsXZP4JSX4+nCaG8biJz5421+Q4psRKrRfRIMj8GhWF3UZwNf6P93MaHRm08EWO3IeKSf40p40ww3cZ8gRfHFPmkeiH8kiQTcHMZiaP+3TribCSIAv02To9pJEsGo2sgCevKqCuD3CUe1py/tO3ObkIOjmQDdnEdCGR7uaqPmEfsZO00kbfRpuHo3uCm0Io67gX4fS/DXEan6wZPBvQxnGFnBsQdDNWUSc49NQi3osfmUco9BLgNavsCrKSjAegqg2LGiwiW4OYpAAVdSkoZYCfqJmLLl6vcbiSgCAM9oqvC5T/3h1XNrmrPaFq/GgmwPdnDWAtT4tA1FrCV4R1wh0WCgxuyZj87Y2q/4HfZyaszixxukgTizQHGhpGcgAfn5+bCnaU5qHTGocInHiiJTDhZ3lyN87v6PMkanWJ+fo5kA3Zw3iVJ+m86CTAJfHefdJzXbW3ppQ92msMF0+0KUPPHmwZPBgKdgaJ4H3d5UCnVdxQjcHujlrAoE0nTc3flmWs+K8sy7wMWwQZSNYklBc2l3Sxh48Y0muHU1x7WiKZzRHxJSAS7pLsYV/BUE3Bw0Ei9bDWT5tZyHoyd9FzJk8kxprXFuLDgEpARd3l+jQTO6QI7hmOI2lwFJwzXBaa5HskIqLazBSs9DNgW7OmoDAo+0s6BggViy0BLiwo8wyI1iGlpTga8PpWcrXmOv9TWc2Xma4XNgRXY8IgwWUAFCPAfxSbLFX49IyQAuUwLVZm+M1xz0X+PZIcMDo87bk2yMprTv5+Extv0Gj0M1BixjgEJ/G05g7E7GvfoBJDZ3jlgArTJfz2vUr9YaxFI/WsAY+Wk5ww1hK+/557fFHBWslQOvUjv8685dpBvBDvFuSzKnj5t4YlausVHywq6SN4btt0gwVe795ygvzCoIh4INdJbIxMq5OwWyRBAA4z6c1MFsCrKFFFTj3ODJQtB5ourFomwK4qLOsncyHSgl+Pp4MfC8IPx9PakPUliQUF3WWYxv3gQESxcWbsxahhxlRXTOXxMmtuqOlYKct5ylmaaHoTSh2N+EVlHgh4EdpjDaeQUXwoe4SCbxV7L0qqiR2AFsJ/9X7XSnBlCsCV/tRKYez2ipsmEg2lXfwMsMNDAzdactGk0fD4mS8+sazGGBdK++43ZrPAADLTYfdTm3RnJOKJQnFkoRLn//aayj6Ei49idpJF1mpOCYgBrBZnNpmsb7NYsgRDDqSPbZgtyMZdLzX3Y6oK8aXa04qUVzXDWKa1gZMl1w/rpV33G5Ljg/4+4GGy4Mzfu9NKFb4KeIrDJeVpttsdEzLIMFnTAcCdphJ10sJf9aW3quVmJXNrIti3t76OITj+gfcXCEvJ6tLbw0tLrmu4+ojUg4JUZkm+N5K7EaQk4rDUw6Hz9ieZjLFq5LB29YCSAATj+a3VhmgZft/FTquXmm6Lbe3700IYoq5WAAJAB7Nb63eaXWr7pLASwk7v6OyYPn7+zIUcH5HhSNTDq2NRvRoXpUAh8Z5ZQHkkw7HpW1enXYWVKw/ZUkeLRuUFVSUoKK8pFNLiTl/E9OatikgJRRJ4blnUwJM/3Xm3w5P2qxKtlZaCWB12mZ12mbSFfy5lODeksGTldgLYBwKIC58wukARuO4YlooTsranJS16IrRyFNRXnDnc5akpARvygXH+++wJVftybQspMsQcEVvkf0DtHcF3D5pkhaKA02XAwyXZIy2nGG/AMbvpwzK8TmKOg1isP1npeLkrMXJWbtpK9mII9huS57zCf6cLXnBlig8rfvyJcVA4ivgh2PJlsbz2cq7x8d7SvPGIIBXphyu3p3B9X9/meFyoOGy3HzxtbPB+elOKM5ur3BqzuKOKZNNkwbF5hnhEIMmxH+7VJySszgpa5Nu0rHzy/Ekm4tGzbPzupzFgZqz85YpQ5v0GSeeqiTYMmUEOoYONFzW5SzumDRRwC5bssuWPDAjB7RNKtZlrUghajORk4q3t1VYn7PYNGlwx1RDhaaqOLQhBuiUijfnLNZmrchirqhEYJbQMsOt+SCdUnGGZtJGXRHJ1Nssfj6e5Ki0E7iaz2izuL9oaIM9J1zB/pqAz6KCTMj5zAjFaW0Wp+Rsfj9lcPuk2Uh84aEGXlPFUBDAW9os3paLVi5lzBU8UDK410+G/GTv/DTxo9M2qbEUZY0gObejopUyPxpLxiEOQ6OoBD8aS/LBrvmex7RQnNtR4bsjwV7FtFDa5M//O+TVBVidsXlN2tYGtMxESniLcV3Wmi6EEUEWrzLwOmrWRVYq3ttZ5oiQgZK2ggdKBveUDB4vJ2bZzIccMa/MS0rA0SmbewNi9F6ZdHitxpz7cNkrvLjQ+HPJ4OGyHRg4+tq0zV1Jg8cCtqRj005gFvKQI6YLTTxtJfnJWJLDUg7Hpz1mqLfgTAFnt1c4OOlw3WgqbFBpl+TF9qlarDBdrugthiJ+WQlumzS5YjDL90Y9//vcXfsBDcFWBwRySLxzse5e19fw37ca14+ltBr5+R2VQB9F0DPC/Dlx8eITvjea4orBLLdPmlrpOBNHpRwu7y3WLZbho0Pi9dDVYm3W5hM9xbq++0lXsHEiyeWDGX42nqyZ9KFjgMNTzrwo2bVZi/00it+GcbOhxM8q2qVqKjJ52BFsGA+2oO9nuKzNztZZOqTiUI35Vzcn4Ok4Px1Pcvlgll9PmHVX95KE4hM9RdbUj2BqN9BIAFNAf0e5bjbNqCv8YItwHApeRG7QNiDxKnXcOeVNalooTtcoftssyaapaO6LlabDoUmXg0yHg5KKHukx1pAreaYieMZK8LeKZJsV/jSxacrk+IwdaM4+vc3inqIxHWv4Wk0toyFHaCOTZ2LSFdP7/IlZmzflLK2eYAp4Z0eZVabD9WMpnXu5wyBAAgjgfZ0ljknXFvn3Fg2uH0vWzMHX4YGSwfrcfOKuzrzIAOtzVuAKVXjiN+zaTQnFOe0VbUxfj3TpScOr/efdPGXw0/FkKINLdSyX9c63T7T7dZBvmkhOP1sQaq3+IJSU4Ld+hNM7OyuBJW+qeH3GJiMU3xpJB81Xe6AOcE57pSbxywq+78fUN0J80D/0K0yXJQlFpz95QXiwZLAtpMfssJTLlX2lSAGda7M2V/aVOCwVzuy7zZLaBJP1OYtO6cUu6OoNRmWAKopK8J2RFD8Y1Z+ewCtIdU5wvmOHhNmMcXzGq8Gnw3ZLcvWeDH/U1LcJi2csqY0EWp2xOaO9EmhjcIFfTYQT/WuzNh/pLk6L+ijokS4f6S6GZpxfTQQXqEoKOKO9oi38tDuk+K+Fu4oGV9epgXBKzgqKllYSGKn+lvZFZa0bfWEow66Y3JV/0OzhJ2Rs3qARl3/yq4jWQ1/C5dz2SlOxewI4t71CX4hU7Z225E+aRfGGjM0bMsGLanNEPUaHXbbkC0MZbeEp8CT7HFvKiGSGI+j0tuA9F+CxSoLCaCpWW/tdxeDGCb0JN1BZshVsnKhv8fOCRCuxJJ8mheKiznCMtHEi2BchCY6AtpU3B3HBVvDD0RSPa0zi7XKeUj06zQBpoXhjNphLBx3Jd2okTTSKSVdwf4T97w9FM1RRqVNyFqs0x61GsCrp1NwWqxhyBH8ohl/RD5QMJmIO/3aB74yktI003pi1ZkqB0ekt4GiNhaqkBN8YDm1ZiozfhxSBZQW3hNz7T2pBBk/Ya94yEf44fGdM4n8uJl3BN4bTgZXNTOHR2seLW4DuKHF30WhpsaRnLBlKCbpj0gxV4sWLII4/aGNJIly84rgruEOTWDIT2y0ZucZwFDxXQyeZQesXJYDOzfp4i8ukQf2VMOkbm8JgheY54kDYa4fpBRRW8jWDIF8EzKL1iKz+ExTB4wJPVFofoHh/qXYcwK2TZmhv38tbGLIV9tpFJbi1BsMWlQh0esWNv1Xm+2HAo7VP1REJDOg6WgzasmFDTxTYCnZqlBYFbImgWOn8BnEgyrW3FPVu2UFbtKTy6FxMuYLBgO1bMp2UOiCBrROuCOSUPsNtOtInDAwBSzXOJgGs0ZyhgxCXjaLZa6/J6OsU9yVUrPGCOmSloi+AaautbICtEnjYBTeoYqUEDmlxFCx4TpJaCtapOSswiigIT7dwywp77YxQnFrj2JiRitUtSFebi0OTTqBkH3EErscHD8tCXk4BTz6n4e7DFqBS1kka+0MVuRp+gbkI6yNoBGGvvT5n1T0x6GwuceKVGluIT+snC3k5VX2irTqHxBsytrbcShw4yNQ7SWbiFI1ncC6mlKjbFqYRDDqSqRD6UDVQth6Wm26onkeN4kDD1bryfVpvhRfrA2zdWkoEmmXTQvHh7nKsRRFmIuxKSAl4a8hI2k2T8WvYYa/51rbgrmBBqCf5GkVOKj7cXQrUMyxFtUPLbAYoKaE9j/clXD7QFV+Xz5kD1cX6BeHEjFW3ZRx4QRoDMYaID1QSoYJPehKKEyMorK9Jh+83HBYS+EBXWRvBdeeUWT3ZzWKA+wD16wl9aPErkw79neXIzRNr4YSMHWh+3uMEn0oMAae31a/jq4DvjyapxHCErSjB90eToYJPTte0mdNV/DCENwdxwRDwzs4yh2n2/jFX8GvPnK7waO4xQCEvdwH3lJTgx2N6b9sJGZtP9hRjO2ufqBGBdxVNrVvzdRmbpSHuv9uR/Hg8HOF0UMCPx5PsDqFTLK2x595dNLTPMzdusFHsZ7h8sqeodaMD/PjF6K17fJrPkuobwLPK/baGFWu56XJ5b5HXN8m5B/mRP0G4t2hwk6ZHjwTeHlIX2DJl8JXhDENu9M1ryJV8ZTjDlpBNnd/eZgVukRUFN40nubeorzkUtjOpDq/P2HUjgX87ac70vG6o/mceAwD8okaRJPAUsnd3lnlvZ7lhQ5HO+fSffqTQaA37/7Hp4CDMIDxelnxmMB2pO/fmKYPPDKZ5vByOcVaaLsdqnue2SZNR1zuZ6JxetWL6aiEtvFyNd3eWayqeD5US/GJ25tQ0rWd1DesfcJ8A8tDaqGABXNU3FajQ3TiWnBUV/Nm+YuDxb5vf1iUK+600HQ5JuqwwvKjgqtdwtyPZVhFssxM8ETEqWACXaTqijruCTw1mps3pJ2ct/iEgx2HIEVwxmI0Q5OptHdV4w1r4Y9GYGxU8UMjL6YTguctiA/Bx8I4L142meMpKcF67XvnrlF4Y2VtzFpumTDZN1XbsgCf+g4jvMjtAsqQEGydMLgiYtJWmy7qsxe8ieNW2WQmfuN53qtbFZtLK1mUtrTTaOGHO8qXcXzI4JyBhpMffBuq5h3NSsS5rsy5b39BkKfjReCpoC9sw85e5d9ww53c2Txl8cSijjTCZObjT2ypc3VfkHe2VmpypO/o9Wk7M8/lvnjK1Nvgz2y26m6hDUFSiKeJ3JxRntgfrI7tsOS/eb8wV/E1zPK11HO6Uine0e3N7elulLvF3O4IvDmn1l5oMcDfw/NxvPGt5hRfCtFBLCc9se1XfFO/pLPOq1Gx7tMDr/h2EewM0ZRdvW9Ddq1VFnMPgwg59F/Abx4JrCAY9I3hzMpMVJfCqlMN7Ostc1TfF+pylvddM/KWcqBUh/DwejacxazSFvHT7B9xrgP8195tTrtdE8S1tFqflKjXbrIJ3Jj0+4xVunvBLndxXMnAVgau2rGBrOXhyHqskuL9kBK6SI1MOr07bC54g+up0cGIoeKJeF4zxYCnBhR3Mm7/uhOIVpoMUTJfWiWIkshRhsoOvKeRnx8jPax3bP+D2AtsBbQ/zatLG2mx4s2cVZUXgd+4tGlw7qk/07JSKz/QVA08do67g04OZBUsRzwjFp/uKgdtcSQmuHMzUzI38YFc5UAqWlQi1yud+J2R9gCKwvJCXe2b+cZ6c8D/wH7WuVE1WvGIwyy2TZqSgER3D7LBlzb1t1BXcpAkK7ZRe+ZSFwtk1dJybJsyaxG+Tiuft4PejEL+oBDdPmFw+mOHn48kwxSH+Yy7xQdM8un/APQx4lJCdQ7K+dnpyCO20HsLUCAqKX1TAvw6lW14mZlXSCawRBJ6btVU1gqqYdEUjNYIUcHghLx+f+4a2e3j/gHsz8NYog0sJxRv9Y0oz2vlcvFQlrOkqYbcU8vK0oDdqMcCbgNui3gk87j846bB6MeoEViSPVgwqCv/HqwdYrQ9YUQKLF98DL/snKTzrQPX/SaEwxczf4fCUzaoFrGo67pfWub+U4Knm6gSuL+Tl7UFvaBkAoH/A/RME1ngOjQRe4YfjMjbHzTnqvIT5cPHyH+8rGtqo3oi4p5CXr9O9Wc/Yfak/pobh4NXxuXEs+RLxQ0ACPxtP8lg8xHfxaFjzfloU8vJ+4Nrmx6Gvjb/Nkvxm0uSxSqKVbVL2Gky6gscqCX4zaaKLw9Ql6TSAa30aahHGenI5Xgv5UNXEdNC5Kh8pJ6YraMC+1S+gHur1CxBUAom9wnS1JuMIGCFEB9i6DFDIy8H+AfdTwFebGY1OAsxdBXscwR7H4MEZ1TWb6RjSSrjQVMcQXUEH3VxFxKcKeTlY70Nh7affAD4AHNXoaLTdMUK4XiddMb2a5sILEKnwFk2QyJQreKKSQPg9gqL0DDok6WiDYX8zafKr8eZ6Bun6AoQs8VYLf8GjWV2EYoBCXjr9A+6lwJ3UVxznwRQEhnGVlKjrZawHF9gwkWSZ6QY2jvIIqPjmcGCRpEAI4L/VaA/3l3KCDU2GmwG8YMtA8+9+hospaLRxlAtcWsjLUAkdoYlZyMvNwGcbGZGu4sdzloylBr7Ci13Q1Rw6Ju1EMhWfXaNI1m5HcN1o+ApltaDw5mAuvIoiDUuBz/q0CoWoq/lfgDsifkfr1Wp29c/ElCv41khau2o851X90Ku1WVubhWQp+NZIOtZiGTqmbTBc/A48GoVGJAbwXYn9wI4o39N1yI67PMp2S3JjjdKxF3SUa/bqOTzlcEGN+IIbx1KxN3TSzUEDndV3AP1z3b31EPk2fjjxhXi6UijouHmiBe7bu2qEYEs8V2xQqtsyw+WDNZJf7i4asRZ0qkI3BxElgANcWA31joKG2LmQl3cCV4b9vK5DdtwSoIobxlJaI0taKC7tLs0qsdohvb/pIpyfs2XNptLNQCsBosUFXOnTJDKakWdXExBDGAStBGiRX8VS8PXhtNYv35NQXNxdwhTeCeXi7pI25WzUj4RqVStX3RxEkAAb8GjREBpmgEJeKuA8QiiFegZonel32BF8bTitDVY5yHR5r5/boEvMKCnvGs1UJK8HvQ4QigFuB87zadEQmtJoCnlZBs5kTqDhXOgeJkzVr2aw3ZJ8u0Z9w2PTtjahwwW+PRK/0jcXujkIwQCbgTN9GjSMpp+ukJeTwGnAn3Wf0YWBxZG8WQ+PlhP8sEasoQ4/9JtdtBq6OagTa3kf8Da/uEdTiIW9C3k5CpwK/DXofR2Xh+mJEwfuLhpsDFlkEryEjlo1d+OEbg5qSMetwKmFvByP4/6xybdCXu4G1gNPzH1vRPMwzcbHRcHGiaS2cOJM/KlohKpHHBd0c6CZs0eBNxfycjiu+8e6wRXycgfweuB3M/8+qlGiulpQ0VOHlAjXHiYnVeRQ92agm4OAOfstcEIhL1+I8/6xaziFvBzC2w6mvVGLLQE6peLjPSVeFaLg1ZEph3/sCY75bwVCSoCvAqcV8nIk8MNNoCUqbiEv7UJeXgxcAthBJegguDpp3DjAcLksfBctwAvI+GRvkQNaWByrCt0c+HNmAx8u5OX/COvdi4qWnnEKeXkN8JYxV4wFvd/XYgY4IuXwT72lhkLUexKKf+othe6T2Ch0czDmilE8Ze+brbx/y4NpCnl5R1Jwwg57/pHl4KQTquhTVCQFXNBR4ZIa5l3wOpboupaAZza+pLvEBR3B7WuaRU9CcXBAPZ8dtpxKCtYU8vJ3AV+LFTXDwuPEjTtK6aWG+vUxafvkmafrjRNmrFr3y02X93SVeVkNBVPh9f+tViBZn7M4u057mRccyfdGUrGWeD+9rTKrg4cDPFQyfrfTFm87f/90Sf/N+LBgDFDFL3aWzjsy5Vy3n+GmIXp1DB0SwOl+e/VaJLIUXDuamtfl69i0zXs7yzWznl28yuUbx5PhXaEazK2SssuWpYfLiYv+y9L0j5q8dLRxLDQDANy4o9S2zFC/OTptnyCBb46ka9YkqocDDJeLOst1Fb1x37Gjq9VzkOlySXep7nFxuyW5bjTF35soTH1M2uFDXSVcYGvJuOt5W7zl/P3TEw1fsEEsCgNU8bOdpfUHme6/rzDd5V8bTvFkxFDoVabDm3I2R2s6cs7Ef1qS746k6/Yc6kko3t9V4hV1mMknHLdPGjwVoaYQeLrPpd1lnrXk9mcs+b53LE03lIIXBxaVAar45c7Su5ab7v/+1YTZV48JJF5xhlNyVqhauy5w84TJzRPhI3glcFpbhdM0pd/m4mlLcsekyZ9LRt17HJx0eHubNbjdkv941tL0D0IOqWXYKxigip/sLH3MUuJjQ45Y/mg5wagrSAvFUkOx1HDZ33A5Lm2HPjnsdgTfG0lFXqFVrDId3tNV1tYznIshR3BfyeuxtMuW7LQFJSXoTigOSzr0JtRzhlD/du7S9JcbGlALsFcxQBUbdpU+tMxwL9vfcFd0ysZchvcUDW5osK/xTKSF4oKOSlDXzVAYdYXaYctnn7fl58/cL93SM30j2CsZoIqf7CwdsSSh/k8+6ZzUKVWoZbzDlmyYqF3oshEck3Y4s60SWBsgCKOugosuJAAAAN5JREFUcAYqiTt3O+Kj5y5NPxLrYGLEXs0AVdywo5Rsl/xzb8L9h+Wme2gQMww6kpsmTO4rGrHE7AdBAMdlbM5oswLbyY66wtluyb/tceSPx10+d8H+6YWrW9Mg9gkGmIkbdpRkWnBhd0K9f5nhHpcUKnvzRJI/FusrYHFB4tXnPa2tQkWJqedted+wI75bUlx/wf7phXNxxoB9jgHmon/AXQIcAxw74+cQ4jdzu3ixDg/O+HnIj4PYZ7HPM0AQ+gfcLF4i67HASrzUdt0PeKnUup9teMT+SxwhWHsb/h/LNZtl2C6LxQAAAABJRU5ErkJggg==;" parent="1" vertex="1">
          <mxGeometry x="1096" y="180" width="38" height="38" as="geometry" />
        </mxCell>
        <mxCell id="QAit5p5XeJHZHue9Mot4-1" value="" style="shape=image;verticalLabelPosition=bottom;labelBackgroundColor=#ffffff;verticalAlign=top;aspect=fixed;imageAspect=0;image=data:image/png,iVBORw0KGgoAAAANSUhEUgAAAIAAAACACAYAAADDPmHLAAAACXBIWXMAAAsSAAALEgHS3X78AAAgAElEQVR42u1dB3iURfoPBBTkFO7s/kEEBUQBBQJS5A7Bcmc7EAThDhBFBEFRmhSlYwhdugTpoHTpoUg1IL0jvTcJJKGEtN2Z//xm552d3WyS3ey3m+hlnmeeTdnd7/tm3v7+3ndCQnJHoEYeMfNmMPOomTv+BJucT8xQP78rVM28f+aFClWLlc9YtFC3v5sLYTWHmJuVJwsbnNd4jvQG3nuvmMXFfF7MF8V8WcxXxXxFzH+IWVnMkmIWFjN/Bvca+kfe9FALHyCPjxvnfh8ZcRU2oICYBdXrXT7c94Ni1hGzvZhjxFwp5iExr+fJkycxb968qWJy9yn+ZxMzSbwvTszDYi4Xc4SYH4pZQd2DL8+QY0bedG60sOKGemK2EbOHmN+IOUzM4WIOEbOfmF3UIrwlZiW1wPky4ZA86RCM+yYWErOauj4We4GY0WoDTot5TswzYh4Vc4+YG8VcKOYEMXuJ+b76PLg5XMxNYsZjQ0NDQ+UUm8rF3zxNZsw0/8d35MuXTxOH+NtxMSPFbCBmkUyeK8dsfB63DX9TbexG8VDXxMPZsEh4ULwa3KB/xv+M/4NLbqoNWiTmQDEbi1kqnUUI9SA2cR9NxJwl5nlci+4hg82S03wv3Sc2EK9un8empoqZIiae0V6oUCH7Y489xsqVK8eqVavGateuzerWrStfq1evLv/+6KOPsoIFC9rF99jxOfq8eW11jUtijhfzBQ+qKcfodho1xZyImybOcFtYu7FY6U2bJ04xuCxZ/H5QcUgLMZ/wcF8lFfFd9HAfdH282sRm2u+++257gQIF5Ct+V/dgU+9JNTdH3Zv8/Z577mGVKlViLVu2ZIMHD+YLFy5ku3fvZleuXOEJCQk8OSWF2+2MmwO/Jyen8Nvi/xcvXuRbtmxh06dPZ927d+evvvoqu//++5mxTna3+49StoRJ9NnmSZic9pKYa4hyjc2WCyUeyl6zZk3WrFkzPCgbNmwYi4yM5HjwmTNnsqlTp7Lx48eziIgI1rVrV9aiRQvJMSVLlmTYGGMT7KbYVARxR4njbmJWVeL5jsG1tJH2UqVKsaZNm7KBAwfy2bNnsw0bNrB9+/bx48dP8FOnTvFjx49z/L5p0ya+YMECPmrUKPbFF1/w119/nRUtWhTcz/Ad7du3Z3PnzuXnz59ndrudWzmuX7/Oli1bxtq1a8eKFy9uEgMz1naFUpGe9iKom/+IEq+08SQO5YYPGDCAbdy4kcfFxTHGfF+MxKQkfu7cObZq1SoOogEBlSlThikuTfUkMkmd0H2UL1+e9evXj+3cuZMlJSezrG7MrVu3+KFDh/jt27e9en+qzSbuP4XfupPEY28m8Jj42/y6eL2ZkMTviL/j/15ck82bN4+99tprZD+kQmWo52NKyt0dTCIwgxdviPm7uhm5Iffddx/79NNP2Z49e7DQjAdgJItNFBvBJkyYwN977z32yCOPMIPLiePtQt/ypUuXMpvNZvl9pKSm8lQxiftPXb7OF/1ykH+/YjsfMPNn3u7bRfy9/rP4v778nv/j8/H8xU/H8ppi4vXvHcaLv0+S//901E88fNY6PnvtHr7jyHkefzvRuIrLbbPo6Gj29ttvayYzpAG8jirp2GKWbz6NTgbXQzSzjz/+mJ89e1ZvvDvL30lK5qfFQm05dIYv//U3Pmf9Xj5j9S4+bdVOPmvtbr5g0wG+esdRvv23c/J94Bxb5uKVxcfHM7HRXFyfPfTQQ+yJJ56Q4pnuw85cafHy9Zt8496TfLq47uAfN/Aek1byL8Yu4R3GLOYdxy2Vv4fPXse/W/orXyw2dfexC5KD3Z8H92azOe7vwKnL/LPRi3nJpoP4Yw3782dbDuXlPxjOy384nD/XagR//iPnxO8VxN+fbTmMP91iCH/qvxG8dLPB8n91On7HPxf38eO6vfxizA3ntZzSgkVFRbEKFSpoW8RgwNbp7JXlBNBfbb7kPKGn+fr16/Uq2wRn0Dh05gqftHybpPTXuk7iVduOlg/6zPtDeZnmg3kp8fCl1AJgMcp9MIxX/Ggkf+GT0XIx/jvwB97z+yjJWZv3n+JX4265cYbrpsTExPDY2Fgtgmmc/T1OfscHg+fyGu3Hyg3AdZ/6zyDHtZsPkdfHa2lxX9iUJ8X/yr4/hFdqPVJybcuIuXzk/M08+uAZniBEuGnUmc/bQRACnuO5VsPlc1T++Ns0Mwyzzbe8SptRYk1G8Spi4u8gDqwLJiRGlwnL+dZDZ10kj3y21FTWs2dPMpRNaTDEzTOzXOd3U5svxaywWnm80O/YCaFf1cLb+eLoQ7zFoDnyoUo1i5CLi0XH5lZ2e3haAPwephYI78NigJOwQdgQfP7Fz8bJjfh2wWZJENCnxCGpBuHZ1eYfuxAjCah6uzHyPsoKwgMB4hru19azrXFf4ncQwPOtHESL+wBXv9Htez74h/WS851c6pRWq3cc46+L9+De8ax4LnyPJ2Jw/zvdB+4ThFBeENNHQ+fzbYfPaaJ3SDXO1q5dCxUoJYCwi8hLmWq1JKDNb2Bwvr1BgwbEgowW/5cDp3mjvjPljWPB8HBV3TbXlykJRW0GfifpgY0Ah9X+YgLvPWU1T0pJdeGQlFSb5FZcF5sAgqL7yGjxM/p7WBvnfYAIQFAVxfs+GblQSIXTBpc6iA/E2Xvqak10REyZPbP5Hjw71q2sYCAQAtTT1TiHEZqUJBmOXbhwgYWFhUmVIIiA7KAZVhEBiRH42vFK1NheeeUVp/xlDsofOmej1Gvg2ipui+3Ng3uzILQRJFpxLdgO5sLDIHuv3yxJJESAVt9HmJIg+JlU1ycjF/GDp69wp93hGEu2HOLVxP2WE2uDz/hyD/ReYiAQc12hGtfuOu545hSHKkpMTGQvv/yyOxGMtYIA6MNLlbGRUqJECenW0eZD5MMAgj4l0Y4b92exM5u4Brjih5/3uGz+zqPnea0O4+T/YG/4u+ne3gueG/YDrjV83iYtkZJTHPf129nfhdqYLInFVyIwnwGfhSqEFBy9KNpF3QmPhIEx3Yigiz8uIn3oHcO9YuvWrXMR+zB6wG3BWHDiaHBC32lrHIusNn/X0QvyHiCes7LI/kqGKuqaMC4b9p6hpUGyIgbEAZoOmC3VY1bvD58hmwLXgUpw8KFdu8gvvPCCtAmUqsbPr/lDBJAAu0n0t27dmpsGH6g9mJsP8Q9R+k6vaTwx2Wn0nbp0ndcSBiI2v0oQNz89LgWHYqNIPaUqAxHeA4xYf4mAroO17yhcWIcEcDDClStXWLFixeR+Kal9QiXCfFIH2vCjcCqCPMrPlwP+PHRfmAX61ZcJEfjrYYdrBN8c4rZR3xnS2KqaTZvvvkFQCzA8IfJhjJruIggXHpKVRNAjcqVpEyD6Styfol6/8FUKEKVEKe5P7dChAyfRjyAIDC1QurfWrd+LqkT/15NXueh9BG1KKSmU3ZufRlS3cYhqeAOmcQgPoWHv6Y71s4AIcI1RC39xeAcO6SwTVCo7if3b7wv30xufFjNZJV7Y/v37NffDzwcFB1PcVhSuVI32Y2RQh8b2I+ekRMgJm56RbYAN+ur7KB1BxLgQEy+DXbj/sDb+EQGkMIhp476Tem2QZXTLqlb1NkBEYqIzJVXq1KnDHLaG4+abffND0LifFhHcP0hwuxl0aR7+oxT9wboPf7n0m1nrXKTXtt/OyRgBvS+rRID1geeDSKeZM0HiTCWQuArfh2QAsEkzVpH4HzFihP7ivScu6mhasCYCLvD9YezRWLntiNSx7sGdHCsJVFAKIWkpqpV3MDVqhyXSlNbo7JVYvUbNmjUzQ8XTvJEAJP4fEDOWxP++ffu0+Ieucejc4Cw8FgYL1GXCMvJ3s0UKWUEEmDCc1+054ZKvaD/qJ/GMQ/wiAqgBRAvX7DymCQDpeAV6AQFs9iXy9zJBoACASFZ5dFjdELsONyc4Cw9DChHGDXsN/XbwjHzYsBy86em5sdD5SBHDBqBx6doN+TfkP8KyqApIzSDLSQNAG0IVideTBnYgQ0gzRkcS/40bN9bcfyX2psymBUsFhKm4+5s9JksQBQ0EQCBOq7Qd9YchADOQhajhR8Pmu8QI5q7f51AFWVBp9L3IYJI3II31xYu5gaKCRP+LtxJgghIbKX369NFfuHn/aUmlwVowoupwZfxRRK325xNkhu6PtPmeopnTV+9yIYKWEXOybNRSTGDIjxv0WgFJZXgCt5Rq9yogtEqJDRtwe/SFAG4gCxYszgtTOtMU/0u3HJYWb043/jJUBSqziZz/OcOtRS4DWc6sMgsIYLBBAGvXrjUJ4LaYD3tDAPkU6laKDwX20Bk/iJlgRdwgbV76YgKPu3VHP1RPQ/zndOPPGynw5XfLXQzCzsLY9dUrMFXAiPmbnJ7SypXuEuB+bwgAceOr+FD+/PntAELS6Ba5Qt9cMMKpcPOAr6OBWDpwdjJ48gfc+PRC28AD0gDIpGIWjUAQAKBsNObPny+ZWBn01zOzAYgqHlLiggP3funSJf2FAD8ES/ySSBu/eKu+/r6TlwKeag52zgBE3nbEQpcA1+djlvhsEFKw7Id1e/V6TZo0iRtewGlV+pYpAZREXRsIoHDhwiw+/ob2v98fNEe7gEHxAIT+/3n3cf1AyP//Ea3/zJ4TUgBgWNPYRtYzLAv2EoC1NMLDw804wC5vg0BlVfUNf/DBBxnw8KSjkM8GCge+eeBj/2kjW/2mr9FBKF/CpzkhQ2gimkzcIfCKYKruQr1SrAVr3bDPDAcRtPHtGfccv6jX67PPPjMJYIW3SaByggBkGhGY+1u3bmsCaNJ/lgzKBJoAiCug7xOTU3QmzZMEwr1gISkwBcIhCDaJWRKlwSYEF0gXgJ4KXAopBn1dUkwgqUo0CZd/P34hRm/e2J+2+BRxfV4ly36PvaW/o379+mYoODKzUDARwDNEANklAbBgWJBWQ+dpPP7txGT+cqeJ0k0i9C4WGPcDWwH+Mz5bTXAU3KvqYjHwO8GsiRiCiRQi+DfsJkDMCV6O9PC3C37hkcu2ydwADLeBM392MQZ3HbvgdcCN1OW/v5qqEUhI21eoUMGsHfgqs2QQEUApVbsubYAbN4JvA7jn/jHOCFUAcVlZPWzpZhFycf8jiBLuKeIDe09c4ueuxknk7MVrN/h+YTQClYPCD2yImTsIBnrpOcXxgHWjGOZafOZlZYQZQGEMAKCZxQVMYxLwPLNGAiAeIxLYNDNQCBFAURRXkhdw+coVjUeHtRpoL8AlrLnAGdZE6lRykpj1e02TXHPsfIwLAjejAYweEkiUQQwUAdDmI4T94qfj+LKth30qOyOJl5ScKmsLvHF5ab1QL0EjOjrajAHYVVcSr/AA96nOFTIOcPDgwaDH4CkEPEOFSikCCCzgqu1HNdrW20GhVsCygGAOFBGQ2AfnA6N48PTlNFVKsGlQsAJLf5Ww2CEZ1u46JmFuALsQASQIlVdXqTxvEmaQNPguGhMmTDATQddUrwSvwsBomXKEKGf16tWaxUBhwYgEgoOg04E8onFViM8kBQR153rgBBZtPihVQdfvlst4BcT+iPmbJVrYxOQhD9+g93SfLGyfw9ctne4Y5f0hraDSYJ/AZin+3je8WKOBkhixyZBsLQb9qBFDIIA6XqgAwgJgT04aeIm2bdv6nAo2x1rKBUyaNEmv9rwNWc9YZSUHAM5w4WDmWuSJwlKkp6sqREyJpuFyUfEzFvb/3h0gCbbPtDXys7S4KCvz1c/2JbCDIhET+QM1UF7h+VEnieAWpBsqg5EGJg5urTKEGChIRTVxZoYgGYD1DAMQUqRq1arcMABHewsKJf0QqSgntUePHvqmth46E7RUMHTfJrFR7nV3SJ7AYoaIhTqiEjR8BkUh/aevlQmRiB/W8wEzfuYfDpnHH288kA+avd4FkxcIXANJLlMUoygExPzPLyfxExevpVFPw+ZulAWpuJeeCuePAW5GHITqKTOyl5Cg+3pylP7shQsXeKFChZjR1aSltwRALkI3Kv1u1KiRZjtY1rDEKwaBCKBHUWuo26oI6p647Fdd6Cnr7VQJmkysiEVEneCUlTskXGz1zmN8zvp9sgwdBIPFMv1suF9WI5twT7g/s7QbBSwgQHhQZmm57AZyI4HX/3qaXE+oBdPohU3gDbPh+SGV5wrpTGPBggWM+hmpvgnPeqv/iUIaUt35c889x1KVKMMmvN1zSlDQOJAAZhoYGwuRXtmoyzMh2M+0HMrfj5jDp0bt1MWaWOgJS7bymWt2y+/Dzyai2EppRuCVN7pPdikNg+GKa0MKQPxDItxISJQb3LjvTCkxwOnYxPkb9+v7WyjcV28wjxUVKNQhXRy82qlTJ6Yqhrmy5/L7Cgl/ljpu3Hvvvez333/XN4ZERaBdKQcMbChfIThZJzaWb5Mci8XyWL2rikW7TVwh3wuCmSwm8gfww59oEi4bQJg6FoEZqwAuBF1DtJRsFvjyGuqlAkLUb4CaROgSdEGMVPCCMXrhL9rgzqj2AN/RuN9MrSah/1W1cKpi4klZ6RdQSLUnk1IAzZRMUGhGN2ZVJBBEtmCTkyPQNSNdA7S182foUhRdwBvoPH6Z9KWxSLCmJXeSJyHUyn+/+cGyyKYnAkABiElktNn0OwXUoOdRQYwgFo0vJ67IFBdAGVPYETSOHj3K7rrrLlP/t8hqbeBaqgkcO3asJoAVwsAJdDjYUxwALmHZDKKQukiijcODeFp5ArJeUJVqQXqcMZJLcMusApc4rPHh/K0eU7QKQBkYiK58OsEcuiakwcudJ0rXj4gTRqo364zvjj7g7E8wbtw4ZnQUSzDa6PlcFziScIHo/0MDhhQWrGIA4wAU2UKsXOPbhF9dzstEVJjRaSMjuwLfb6U0Q7IHXUxg3NGAa0c4v/QkRzklxilghGBRZsAXZ8JsksyTkP6vV68eN0rCNvlTFv4hxQLQ7ZIiVLi5N7oFDpXjcG1Gy4ZL437aohcSWPryfpSBVVHuEgxCGnDXqJLXqnvHNFOyg3/YoCqoR6Xf6+D9Ifzj4Qv0ZwCBAyFlBHwl94/K5FVlMC9SpIhZDdQzK+KfjIXKlEhAUuHq1av6Qh3HLtX6OBCGoCeIM+resloHaOYXEC00QZgVLUwMyeofsS5wPc0KpoyIjOwdGNfaj4+Jz9Tddhi9roBZNN2E+Df6CFbOigFIA/ixy2QIoiERXWji0l8zpGqrCOBbwy9GUMifQlDylwmEiXH6cmymwZasVDD3/N4ZlEF+HkGr9FxOx30N4Z0MDwUgmGoZ3BeJfxi4Uvwr6dywYUNT/O+2oknUSjIEIyIiDMjSqYBV5ZrcSm1QMEDp/hJAWbdwqzeiNqtAFjLoJDIHCajmnl1nkgCfGalcVAoBz5Ae0ZD4R7RTf+bSJUbiXzFtX386g1BEcABFBN99911mFmfUsnDh0j6gwwYwAzdojORPAMqTm4Zqo1eE9W01MeM+TcscHkx6QR0CvyBkTXYWAkWZxSjwP4BGtFSeONFd/Ff0R/wT1dRTxoQdHTjv3LlDSWtZxRKoGkHyb6dE7bDMYMPnZNLk62k6aYKYANw2uG9hVrqwgjv7z1ir7x0tYF/pHOnRcCa3FRlKSh7BjfR0X4Q1wDoAnQWCIaKpW7eu2RZmq1VdQYsSRBxVwqoHsKM/0NxNAbMDSF//aECcESb1pxzcxU9PTtWhbWTRpGRpY11IGEEnSJZ4o6AF4hr2gaf1ogIYRA4pmgfomCf0FdkZZowEzTtUU6jUrLaEyWhsJzsAQQbdDXPnsYABRCkUbGbVEOP3h+AobYpcBgVq8PrvnlMtz20QAS9UTaJkhO781XTxBzoSaJSJIZLpKfIJuwDqAYW65Pt369bNDP7cUucV+d0jkKjnW7IDmjdv7qwUvn5TghsClR4GV6Avr1VgFBK17/aZoUXtneQUmaa1MqZBuABwbwuVAaTsHyx9T+Fdih/ALaUxZM6GNM9L3I+sJ43bt2+zEiVKmL7/HKt6BRMBNKFOYU8++SRLTEzSGMH3A2QHVFSLePScM/aAh/YHjpZVY8vf0LDZ7Bkb7MngJAN1pZH8Sk/iwfA2A02zZs0i44/An29YJf5JfBQnkChOzNi1a5dLYigQdsDzClMXe9OpQ/0FpFKnkS8nLjf87bgM/W1/pQCuRwEeyta1G7koTTZV5z7WuGIgTaOXuqMis2l2SqlTp45p/B0I1MER28gOMPsFAbBR3mIXyqmrnRAndAN9p9d0R1/CNn5GF92QxlZvvif9Dni6xiH8lrazmY57LIx2CXyZeECKY6ATuYdOYGT8dbb69BD6oiFkB9SvX5+Z7k3dTt9ZKkLJAASEm3Qnol0vdfTvOoS7M2Ha8CwChXGkyCC+v7Pqb0TxBwR9yhiBIXJ7zUYYOKiCbAO8DyoC9gu+gw6QgE2m2sJS9e+jVh8YQQTwFsUDcCpHbGysJoKO6Rg2/uDqsFFwg5jRWNHfwFNFlWRCN3EaaNv2lFutYSAmDGUUrWi3TUgEU/JQ7KCPkdgBpDzMiIxijRcYiCHk/QsUKGBy/5hAnB1ElHS/wpZLIli5ciXzCqjhhwTAaSEmRNohaYZniRPpOxEFJHg4XgNd66iRws0R6v3JpUYAjSPJqK3iIbMnCaCNM7II9xWZWOoO/vnnn5uuH4igXCBOCjGJYAkhhTt16qQ9AWDyq1qID9CNoQxsHdw29APOqg1ARtbYn6JdULdVA4xrcIe5m24tlboRUAWSaJAR29+lVICnoBiOqytcuDAPhOuXUV6gA3UOBVBUH2QUgNZxjkrXsS6Vrl2y0DrFHXlzxHAr0aApGFVOZlwA62TaAmgkDc4HIbh391i/54S0ecAMKPo0ud8I/FDpV41AEkAaoCjcQTMsjKSN1RBriHszoYIiEF83rNLHZrHGQpfikhaq0DVo7W7VfSzZctgApt6ROQLYNpAQy7f+5oKBhNuHezR1/8WLF9lf//pXk/uXBfKkMPexk9zB8PBww6i5bCmwgqzicYudiCDAnrNirJFRScesYCCQEsw2c2SHlFMl3OBmMnBJElVrN9qlcATFLUUbDdTZSzqNrUuXLsT9FPj5RyC5390b6E9qoFatWsw8MQuHRT1rQb2dabS5Z7yAq3/ay5aqJmya3CcyAE0waHZ0BgNkXYdy7yTLaGSDXtP1c+IVEqpk03AXwj19+jT7y1/+ki3cT9RVgw5QBvT4yJEjmgjGLIq2XA0gYGLGx9FAobwPcXsyoGars4WkAXU1XtoXFT8KfqNJAoy82iXS5ZRQwNToYAnHPcZJy5/AKynKGG7dunVQdX96BuEhpQbsQ4cOdbotpy5b2niBNg/YfrPQEq7SUxkUiHhKs1674WzMIAk1iM0u02t+gaabxO0gBhNJDAkBZqJzh6TaEjaXcSYyXucGe/NJDUS4qwESXdTB28rkkNlBC9dBTADgiafVyWDpXYcWutcUZ5cRfNbE6WdHzyACpqD/sXkCqTlgGPbSJ6NI7mdvvvmmu99fPtgEkEYNuLeSRwbLKt1K6BfYArAvEEAhQoOIfK1rpCQCOkMwzfmCyvf+xfAkULNfNkht7rwBj1IPREg3cg0B9AAeMBZgEnUm4+LFi5nyvtKL+uVR+xOqpDTN0EC5hXvJG+jdu7cOCl2wWL+aizVAQaxIFUCXgzDMAyLD3OBfsLgpmCTbsI5fFpROp16nvMV9oFjUjA1A71PtAmzW5ORk/swzz5gNH2+IWczHsG9eq9XA16QGxM2xlJQUfbh2IBY5TPnQk5X1TIsFdwpQKzqjmLJscKngLZg1AGgokRE8Ozu6hEJdoiLIbHmDA7JB5OT29e/fnyvRT7V+zTww5F/FrC5mKzF7ixkuZneFDShgJRG4HChFh0qYuYGN+05ZGl83RTvUAUXLUo2mEYjwAYQJ6xqhVdktpEm4S+h13ob9CpM3Wnsq2dlA0kzy9HE7VYyirEePHuUFChTgRq0/uL+rOsR7uAoB78BZAPg/pDLC9ZjGieI4KOLfgSACqhlIbdKkiT7GFDEB+N3PWtSDxwRNYANxWKWZVDHbxgBUCbcRmw1damLz0UKtrDrFHN9DBll2EYHZt/Cxhv21V0C9GNDn7+9//7vcxLvvvhubymhzaSopbE6bOiuQpk0RDuZ7lkPF6KJoJ3fy5Em9E7Mt6unrgphp5syXE4fExsa6HBufUZcwRP/QiRt9h76aHCUXH0Zidpw5ZKoAuKkogHHaAuoQ7FOneJkyZWjzWDqbDKPQVqhQIXv58uWZYETWo0cPNnDgQN6qVSuG3g54n9Et/GErA0foIXCaYgK9evXS59jCr4U49hdsafbA6aZ66dpsqboPzpNPPimbIc2cOVM2RkzTdNFuT5coDp25Io1Eedp5kDuIEroHySHYJu49Agk+BgMQhz4MGzaMde7cmX/yySesXbt2rGvXrgyVWjNmzGCbN2+WHd09MALbunUrE8xpniDa3tej4zKTAn2pD02xYsVYfHy8a4KoWYRfx6OS2G+j2qnTIclxcXG8XLlyLuLvb3/7G//Xv/7F0dQKsLV169ZpIqAQMA3yJLD4mlCDoA7c4wA3VDSQ7gcEcP1mAvdnQA2DcOgYWVR0Gf2CJ1mlBkiEoPnAbfXlbMyYMfpY+Ws3EjSIIyyLmw/L/73+s9SBUUxzRY0aNeSmkx70oAv5nDlzzECKjKkDWUzVtLToa2R9Q3A6oOtOYjIreMhF5AOe1uybH6WngrDw73G3fGyGaZO9G+h0FbIlVACJCGCqlcYgSYFIcglLly7NExMTGTGc7OvjoxQgEYmmCWh+QJgAMvbeeustvfnmhuMeYCzh50GDBilicUTafvrloBS5CK/C6qbDGwlx9J+BzibYgZYCYAj0ADZzAZCW6GEEwxlZStwjCAGIYjSxWLHtN3lUHppewshFcAv9kxAvALHg3EFIshHCQIa9k5qaos/Nf0AAAAxNSURBVCuGYDwaKuArq1SASUUVjJJkRu1kIIrAuYAyEZLHuwzeKLlICChRXQBx64cffuiy+eT6GC4Pb9GihevxrIfPyUVF4AWdxGV7OXEN8xRSNKJ4KgiHYRK0u43RDAKeSx0FeKXr4324TwBHn/pPhCROPAPlWhBog9oCiOSh+n0loAREbtpISUlJrHLlymbBqF3tlaWBIfqi6YYtwE1bIGr7Ua/w/NRnV3bMMnoEJiku/vrrr7VL5EnkC0uYd+/eXUfQqMwai0t9gkzf2+wUssLiTiGZJYLM/ASsf4Sz6bRx93MQ8D9H7GK0fgYwFEmJYXM3abGf7Dg5nN+4cYMJF1J6DoI5ktUaTQxE7iCvgRZKISkAyBKUNongLhOW68JIT1LAbPAEvT9PNT1MTEqm0uc0Gw4pULJkSY4YxLhx4/i5c+dcAkSIrgFPUFYmjZwt4rGg4Bzyu4lIywXhIAzCJqKDqYn9w9pARUHygfjlgRetHFyO+8IzyDMRFCMhzoIDJXQtobC5KByyfft2edqr2+YfMg6Mshw7QLbAKHUxSQh79+5llCMA9An6HA9T1UNdnOnrU6AnSW1+VFSU3nRsuHCF4P5wnGYm7A2Pbh+sa1TQIBxsbj5+hp5FZw0z/epehRPIyB8IAJ1LyeoH5B0VVgCAvNZ1kmxYgR7B4G7odTST/EzoeCCEUGyKIlNn61ymPRzYXr1796aIIULHpPfPGJ3CAooZfFDMKxQXqF69urxDm7pBYOGxAKBqd10rUbGCKzuNX6qjYPIItQMHJKcXLFiQR0ZG8oSEjF0k2BzYTGyw5Ba3zadr71MYfYrBo9N4ME5Dowqgsar5lUNaOVFAuP/423ckcYKI7wgmIFsmvWGz2RjiAUbQyGbUCW4X87FA1AukJwVaKtGDCJUMWODZiJvRbBoGC/QXpWxh0GBRcD4gFoR8/WvXrvHixYvLh/r111/N+IYLx8NdwsliSArBt5a9AT9w6nzSpejEhWtTsaajwsbu7D3QPPAEQDYAQbwz29yMxrFjx9jQoUOZOhaGKoRSDTU51mgRG9DNd5cEi5SFLkXQtGnTJBEkJiXpPoMQz9QxEyXmcGWkm8ec7U5feuklF6veYeAw2UAJG4ZW66hOprarWFjicJoy6CL+BrGLrBvEpwmxInsBXb2C2QZ/zS5nfd/u3bvl6R63b9+WwRvS5XiFJERXlsuXL/OtW7fyKVOmMBSEvPDCC1x1A2WK41MNwxinvv4zEKlgbw1CHDx5wehUzRcuXOgwCo3cPEKxG/ee1KFQM5TZoEEDrfdbtWrlYuEu3HxAEk2xxgMlahabi0WF4QQjCj+T0QT3CQigaVE7NbdR4AXfR3GAYJ1H6OloN4Xz448++qjk5lq1aoH42YsvvsgqVqzIEWFFrgVQfOJ0ta4yuGNsPHR9B4Pr8wYLKu5JFdQ0/E+Zx1ZRQhcImbtQj4uLY6+//jpZ+fKBH3zwQXAAM4kASFoQDyp9YDegjAytX6D7ARdrM2KBNJrWCdVAsCubQWCIo0+ePJmbh2IHgwCg7qrJdvLx+trvvPOOea5PSjrTRuvplgXE/34Rs42Y93rYh2wZuuU8BWtIErz99tsu/QW08XbnDkOTQ6XzNfhBGTOsWrVqsg2akTVxM4TsMl4AgIhDyphvtbt00oRKwXfDddQNFtcE51T0tD2B7RzinLB+FNY2p5HO5apPw29izlKJnWfSWftsHyYRyMOLxcOkKCpnNWrU0FktlDgL986TIZOiiMBGkmDkyJEsJiaG+WowXbx4kQ8YMIA/8MADejFxrm4wCYBqFBCbIDWUIPR70aJF7YpRTonXPmKOVJi/bxWyBwCQ5mK+pJp25U9nvfOE5LBBRFBNzGPKOyBpkKrEGk2cbWOCF9aLWVrMn9TnbOozIATkvfmoUaPY+vXrZQAIBhSMTHgbMJpiYq4hIMK/++47hhNPcP4hEZgynuBWsmASgD7bb8xigzAv4Wg+Kreb46O9lS8nbnp6RADswEAxYyhxY0KXjI2HIfOpWx3CeFIlQCEbOlFKE9TIP/zww6x06dKsbNmy7PHHH5dACMNoslFwSn2HFLmILpo2QCAJwFMQiKJ25C2J13Hqme9S6xbqhu7N+0fY8IyIgIJFH4o5WXH5NjHXqk1urAglxEPG6hX1fk8JILKKXVAypFfNRJGY+wQByFNRIR2sRjB5EwSaaLTAh3dkIHaG5DQ9bnWMIDSD2EF6BJPHzY+tivpEMdephhWkP12mseGJ2HSlV6uK/z0uCCJBGYHOJhdBIADKBFLWTh4LM3o0N3Io/a1M1eZ0QsjrYdNDvZQiNHASZmVlaH4i5pchjv74nZWUeU3FwPW1BAE8JBZbdj4Vi68JYG6QAkGIVZht42AEgwBUervb/wIBWBFsyoqIzKcIoIggAECr+fDhw5mvJ3T52y0MOQ8Th9C0aVMTrdM+lwB8lyaeyqE8GU15FAEUEtwmex1FRETYg5kNpEJVZP8olIHayhBnj79mf2YbIKeMgvnz578AAujfv7/diQc4EtBmUfpcINQ4qpA0UtnFixc3D3h8K5cAAj/uFgRwAgTQs2dPTQDrdp+QGcTgxgAuIgZAYWC8Vg928uZ/ceQTBLAfi96pUydNAOhF9FyAWsak1wgS2T0VqwABwDV9MlCIndxhDEEAOEwBx6vbzCbOVja38OYADMDWKUwe4qjauS93d4IhAvLlWw0CaN68uc1MTQcSEk42AM4+1E2gBg8227zuz7X+g+M1gADmgwDq16+v04anL1+37PSwjBDPqE3U3c/btpUuoIoBLMndnuDEEEAAkSCAunXragLAIViBPPwC3wug57V4Z68ilLGFOJJgeB2R6wEEQforAogAAVSqVCmFUEiyF3HHrPUi9vakEhwjT6gkAFvKlCljnvLRJjcIFCQCEDq3IwhA+OCpAKLQ4VHYoHIfWB8L8OQCAuFUqFAhs+S7Zq4LGPghxasQubKvwb333mu/du2ahqi1GjJPt44NRBbQPOIdJd0hKpEV4kiRF8l1AYNkAwgJgC5nstvGwUOHdD4A/QcC0UCKDofG4ZHGIY8SGKP0/8rcrQmuF/BIiDoLMSoqSgNVcU6xlUfJux5UMYqfvKT7AEs4nOEB9MjV/0EcQvcKIRAqo4Fjx47VpTmyhNzijKDZ85jK2+12O+DeUv8rCRCWq/+DrAbuuuuuKdiA9u3bp/rbjdyb9jaRBgoI5W5Gy7dduVuSDYZg/vz5P8AGCE60gSOZkgJoReN+pJs/gR9U+OpTPh3wdNavXz8TA9A11//PHjsA8GoJDImOjtZ2AE7p8NcTIMJxFLxG6G4kdsYZKnhLlSplV+I/Trz+X671n01EIKTAYmxEy5YtU81eQrKs3OgpkBXORzMHGJQ438BRi+ho2CRsDhMDODyX+7M3HiArmYU9YDt8+LCWAsfOxzhatLQakakqMP9HVchIKyPz9/mYxbJPsapMkq3cHnjgAQKxBuSMv9zhgwQQ4wHBiVexIe+++67d7GiCpkxACJWX1cajPXYXx4bTkW8gBLwfBl/tLybI842MtnaSuOrWrcsM7m+Xy/05QAqIMVLF4lPQbFKWsavDsdFzAP2FqMpYNpr6aKScdMgToOSYIAjAvSYt386vqoQPiX3MRo0a4RrJavNzM385SAqUEAQgg0IFCxa079ixg5u9DJC9Q3NqVB+jZQsOmsZEGxecZfzlxBXy0KdDp6/oUnPZr0f9dPbsWV67dm1z89Grp3Cu6M9ZUqCHCsik4Dg2xOnlNhoNK/Bz7M0EedgjJn7OoLsHS0hIYMOHD+dFihSxG2L/SEiQ2rXkDt/HGkUE4FSGRpPJycnMpc484yHfK4xJ3rdvX1aiRAndnFFtPsrf7s/d/BwaGQxxZOP2kCQQ0/7000+jITM7cOAAVEIaQgCBnL9wgS1ZsoR/9dVXrGbNmkgwURUzFb2inr+HB6mTO3IoEURR8WmIsw2LHRxdp04dVr9+fVavXj35c+nSpe333HMPtW6n0C5t/C3xM5BHT3m4Tu7IwUSA8ZmYlyAN3CqL3fv263a1qm0LoN3RYnYRs3gu1/9xPQMMnMHzcYjjZM4rOK2LCEK1ckFJ93UxATFHO7b3Q5y4fpOocrn+D+wd0EDzJfTiqS3mqyGOs3qfDXGieDx9PtfF+xNIA283MjR30/83CCKvMfP8WTb8/wH7XaQjBd8FOQAAAABJRU5ErkJggg==;" vertex="1" parent="1">
          <mxGeometry x="420" y="-270" width="128" height="128" as="geometry" />
        </mxCell>
        <mxCell id="QAit5p5XeJHZHue9Mot4-2" value="" style="shape=image;verticalLabelPosition=bottom;labelBackgroundColor=#ffffff;verticalAlign=top;aspect=fixed;imageAspect=0;image=data:image/png,iVBORw0KGgoAAAANSUhEUgAAAIAAAACACAYAAADDPmHLAAAACXBIWXMAAAsSAAALEgHS3X78AAASFUlEQVR42u1dCZCcRRWemd0k5A4IQgBFSWKgO5eCSfrfjYRCqqzywATkkMNwWJQIhQbUikqhoCIiIHKVUB4IlJSASllWoSUeMUjhUVFASAgWApYhCUcuINmdmfX169fdr/+Z2Z3dnV12t96revUf8x/9d3/9+l3dUygICQkJCQkJCQkJCQkJCQkJCQkJCQkJCQkJCQkJCQkJCQkJCQkJCQkJCQkJCQkJCQkJCQkJCQkJCQkJCQkJCQkJCQkJjQYyqlDItNu3W8v+nPDoY9t2hh37dl2q6jW+vUj5/RLc3CY9Yix1bt0GjV9yICBgBEp7fRs73wZAmALbqcKjkI2aSu3XlgDBN34NCDJVpB9mw/G1wOvhAS/DdodjtSPuC49cpnYysDX6JdeO+jpsVycBiqHxsfO78aJIJ84FfqOwbH5PoWNeD+wLj3a27Wjb00C7Gn1eAgKrJ4Tx3ja+vdDd2AVcht8qsK06VtW4LzxyWcWta78y7Hdhu7r2PTcMB2xsmI093zV+GbcmPFR60Whl24ZGVWnft+sbYTgwpBjCD9cROrroZmn8scNV6sw9KAnccHAtmf5tXjNcj2MFokRJ449FEDguk263PloHmTUVUNu3CKm0oPGrcZvTG0xyHAtm+DXJWNYjYGwlCKB9O3B/C+xP9uM/2ItoQvREUTHYsUdV+wGUwT5HuHmukATYBDzeS4CpZDv2sF7Xisa3213A24ONaoIvocyu2VnHnt0ZASIgGAIAPM0AoBkAWiIB/DP2QIMvgmePB54Ox9PgeDJs90cEdmJBABzqYNhOBOkzDdnuu3M7ZQgYNgDoIQKAfmeNX7pjXgl+20gAeBUbPE8IiJaCUvhNAUCm59A7bKN7b+OEBAC217vzxXCNkwQCgFEJgKgDWADMZo3r3zdeACAAkCFgTACAu4uDjY++BPsbAED1BYCBKIE5H4GK/obo9qw2aT2k9xh6lmHes8GYxvwZ/vmBdbN+jsY+k/77SloCgFhprrIqcNwNx90YfDAYRLKF2w3nZjUAwNNUkDK9e3uOdyQfXlORukLv63bvwzK4cxmWpRIAaXLgiM+jQAk+p4sCJvZ5/hld7vn4TbVlaext62EOsDI9r4ueGdm+07Hd54G3CGzDPHju2jJ2MCyTcufcO+p955AAIA0uWO6gKJNl26vtCzpp36i55HNuBABXoHpcUx78+O4kxPk+9k5/DkPZvnxJZVRDZeMztLsXn7PAsb/fn/PPwnd730WNqzwFV0agzHLP58/Ov7OTh97zz4Jj+3soD/tWew7vRbCUm5AqgwJAlY3z3aGhjX4eju8AvgR++zgUZiVszwReA/zWJMdwwBKAKsEFMmyPfAz4dvjtUnjfGcAnwv4psL0Q+DbY34xlc708lh0rm56R6a3AD8P+XcBXA38B3mPv/xTsfxb4G3B8H/ALAWQePKG35QBqz8cGtd/wZ7jmB8BXAq+G3y9wbJ+vLge+Efh+4L8Dv4LDpglu8zJ9g+VHgL8F/En4/STYnoT7mbLlfsSBbb4rX+8gGCAAEhEIL3GRw02uodWUPpNN09Sz/ukAhnSKTD0Bv18GvDCGMRtQpqfDfT+kd/gwqBXF34P9s2H/KPSALl/QTD7dZOCT4foNJNXKtR5P6BChF6tfAJ8K+wc1nbOXqXGFpcrm7d0aGtI975fAi5so4xLgBx1gVD7WMlgAJAEcj8qfAE9iFV6CArRjhMlxO3xEe2j8NOO4f1aAC148Czw5V2ltWHGZHofvczmM7ViOWDEPMvG6owFAYXjC+8bh/Rk9A/fJLHVlsl7MtfT95TodYh3cu7hO45awnP75nrNQXyUqx3S47jk2/K1OknaNonrVdK+i+xWvt8sdSHnwLRkGByQBvGLTTR96N/u4dlc4TZmnqphUbDMA6MsP4Aq8ERvaVcIErNQ8LTmCv2McPeeEUKFG2aFlRiGb78vqcyFt+Uq5HmUBXQwZtP55mT4QjjeTjlEJYtqom5N7EZy+UyzMgzuVjMY/W13FUvFW0zWl0MgOSMWk04XULlb3GQxnOFSSvmQGD4CeEEc2+ilsAJ81HFPKecFcj2xuCHgV31+rJ0zNAWBTjaSwFZep/eD84cCHpAmuweu4CLV5J0W2o9hPyqLyjTM+NIh7R/pd7p7LqIL30Pb7Sdatb5xUykymmEu+LihVG8pvy+d0nAdY4xdDDl8sxxS4ZiLrhMXQgdDVjqBdT5KgPNghgCkkeOPJdE977NkBySdg4TP9BPBTKCn8S2qVwP4C4Cl6x9uALwL+qXsHDhO7SSTfECrC92hrhdiG6ggSIL4rpkdbwN5EypQt97+AfwTHMxMQhGfqThSxrlwbQocwIe/eN+ok2P883LcO+CX4/QVM0/b15q83+j3Aj9LzbH0fnXYwn62tDoPrfg7n4Vnqf5jpGyVTMWmXTJ8edIm0TfsJAG9zu97/DJzbJ/Qcl03sP2JNNMG8dYAOj2lN6AB9AADL8l9gq03viuamjmzNoUxvY9LJN8IczHXs8Aonf5fvOWpasBA66LnLF9rvvS8xYQMQEIS7qPevonPtaWPBNZl+PJhpTnncCjyJ1Qfdo79UOGahN13XRoAqDtKJaPkcsyC2jb0nU7ewyTwcCPuildOhuSU0wCHAas/uY2+LCl+C4EXs2i6mIL3SoHH7BwD/AdEkin4GZydbc+4x4NtDr4kAmN0QALFy7bteZgmx3bS/JSieKQBsaPt12Fqzbd8gJXyjuePfECj3oLPGSaBngCfE2TkhG/u7wcTN9FcJIO30PD/Mnke/72EOLHu8N3G2pTO8HiSTtzwIAKACQcqfujig3fUgL26uIIB05Z6xo0UAqAanjquEbbD/Yzh3DpRhEUoZPuYazcXmbOA3yIbf3ue7EheyHV68zpBIsEnkePl1Kg2ZSPfpdd7j6Cr9OSZBiwFQmbobG8pJ2VPZVK4oYTN9J317dyijrRPXCc6KVpHmwLqJQNg1OB3A2uHuplPD2OS04/gBDiDdLOevhQBQZRJle8gPcEAdU65EJlIhNyY2lgCNweY9nTtQOkRQRRPVleemkFnLp9Vl+hPMX0AAwOu3MolSZGP8tdhQzpN3LLNCuML7EFPqvF7WRQ28Joz/DgC+Y145eAAYn0iIL1+ZzC+LU8nuJe21O5fw2SQAqJelekLMU3SmjAXK0pyZNr5Giy/UzHQCAKj+AaCv8hvoxa4+vh5M4SULmLhW5wdfQW8dwjeUUZ8JHShTHUGRTAGwNgLAxwgIALZTeMm8+EiuoH/F/a4GAwBFzh9E9JkJ4qOouSWdU6D6BwDey+oBwL2bRKNNL9PMv4BAmO/cwPrTdZTAoQDARALAVQEASxMJcCJzG7PYiZ2rx8Hu60+dFH0V+njmWOPj+QNJJzPkfXTnLkqG5tgu17RAAmDhCWlqTV0FJVMnU0H2koJSCY4XU7d3Nx4CuGJm4DenxDyBIn7ZfNKMQ+9eCe/eiJUSvX3Thh4AaiJ9X6oUx2HnECjT7qBAmxAej0qxSXSGpe4bsBOtyukAvjGvok62N4kVuKHlWOYY4kPzPVGytMQK0PdH1yYbE+ce7rReb8p4293o11iD1AcAatJJr4iZynZmshNxd7D3+kreH2MF0RKwFbKFPWsoATCZxPvDNSZbFsxiJ359z3blrKDJGefo+yH0EJR22FvV9REAiaW1MJjELqJJM3zU49HvoJgVgom4m9z7VWWQOkBI+LCetJl1vU9ucsn1cPwCmkgu3v0sVlZvEsCA+WX0FNYruAQgAJCtm5F71v0+E8dDb7vHSa3DIAG0/dZdaPIafVjOWcRjABeheWqjfJl6Ef0KhiqdK5XWOWR1nM7gaU2dZ8HBpC9En0zwK+jNwIuT741m43LqjPn8hQFZAdEUNOqq4D0LWnHi/7fi8TC0TX1jdOgGAECpshWjbbUAmI5+BDeG3RVjC4nyuQp+ewjO/xH2fwV8DeyPG3oJgC7dV0g6XZG4iWtAgMODvZ67bvPu4Bj3cA17Wup6TvwLR8DxecBnoBRMwc6HjJ8x8V9tXTjYbY8PZocJykqxJqBiadmiQmHx3PwHTwgAcBJjUo32bqyPHySOE52PA4hKuLYNrnEDfNyc3kLB3CPXegDg8ATPcooeDHNqfgjpZmxdnmT6NXWUOMRxT+QM4J1s6PwPPHdGqOOj53nPZanOt5aY+9sD5jQm+lsQDYxabIXcla8Br8jZ4T4E3Eb2qA/PusiYD4FGe3UDie0NOZHnh5aDyMfvK2UFCwC1kR3d7ipV+0hZO5lPJRa4mYvToT0AmstAjgBoeL3icYp/w7lZ6dI6WLa2sO+/nUuAOJwdgK5lvy6Dk4y/Z06jEpneRUqv96Fg+lbFw9/HxWn+qlKnTQctAcrsw+/ExIqFR/VvwSIbzbIFcIrlusIStmZNBMAstl6B9/4tG8DiSAflJEAzGcjRbGt4vfccUiKIXYrF2NVVyNXbKOkj9noOgHcgSGPsxVsE/0x8H73XqZXGl4QUPZ+0UpsYOxgAhIdVcN8rXkb/FbZWATwfXvxh2B4D3IFboz6A2TFGXQzH38axyaiNiHSeW2CCZeGVmffGTCD6KJcMeSdsT0Gxa2PzbvycAecPxF6YKRtZez+NkZfC/t2Uz0civakMZP+dO/vOVsJ6ceVzATAbtr4Z08oy9TFK3ToH+EbgB2KvTszAd7PFG6oJsNw5W2enw3YOJaVMwJiC0fsBG+AvwrknWXtUelnjYRA5gSY3rdtQ0CRJWKxzXz4x0o2dPrnkAiY2uXNkBYl+n91biTl983oog3d3mEhq1G7Xi1S5pkxpaLuJiahJqnX966OHr8Iq3eVM5JM3bVlsdNHm9WGDH5EqbEZ9KGrsiieYpjmGzs+yBXMj0MJCicbrtBwav/HqLq1KC9c8f77sTKIajdNfS+naaDa5a50uAXY7abKGvHvRjfnl6MZUvHG66yQ51KawucroojzAalO5/Txzpu9p6dVol2uWmh7St7tDxpBNj3fD3ZWJKz26glfHQI+qzfd33xAzmdOsae8dLNfMHximmUHVXMJonQUhElQ7kLgPPieJYiVL1ak/JAmYSaWo+gtPmHwuvaqmjamaXYyir+srcYgAW9xnGqfgqIRnOlPW5jPMTOZIRFP13gCARvMMTPLuSpirwIfm5tZ0GpbJoY2VyBDH12tq5guYkGLWwSadjMTlaiohSynTh2IqudG/o7hGNfRS992vo48iU+9Ks4aC4+hgNHfrzzcYtbODG1kQFuF/CgGPtPFZPF+ta5DPNvJW2eiYx3P13oKeOaM+CPxRNMmMfnsSwYzf6JNWvxlD6XrMAsArJq9iAKdmDdvEjv0Oi3qN1ImhvBL3obTyYi/mX5HlCRaYw2ZJzcSVMbI+QGMp4F7+KE60yPeITN9Gw0MlneQ5ogEAJuKRMU7hF9oOHMb7Is1jKLF1GZ9ns6OG61vrAAB91cMyBLjsos6QNGrz+M4CBnGpyI7lU5tG7NpAsRLr9XYTvJGl4JJOr1mJ2UGdw974vQDAe8KGZlWu/FToMja0j2p5Wznku43Ynp+fI2n9Djegh9LHDOp76SwQDsWEGqN+GzKa04Wy3swhoMWrhDUDBMOA4KeUj67laats7V3LL8J3rIXy34NDWaZuxQkjGebx/wMdVUHyob+g8iY0frWBBMCZJtvidKchL1Bq32Y1foTR0fhu2x1Mv855tVPA+dRvP53e9MtubyErPsfjyTgDaqkds9TfcpmssixLUyAITilasMEvAKG6w6IZITlU5Z06w71KaAw02TkDydQ4o65OcvuNqo7wcVh4YDoYBeHU59Il4+16fj7+ns4qFRCM+uXimSPOJYpsZtlERR6VWhVDiqqLFLNKjX9feDQxBaT03hBEMvojud6veFLh2cCv49o78pcxY+DvYlho3M1lXJHMYA6TTxIQ6Fk4XcngmvIvsQWehUfTn0Zl+KdR24D/Avtfw8ATb/yQp5mu4tGW+6+5KeQpnEqzaIVH/N/F+X1stym5RS7akkm0df811LCJi0Jj548jY6Z0mroe0XEky8vn6c0qTtuSv2QdHX8Z69c+Cu3G0tGXa+kQQkJCQkJCQkJCQkJCQkJCQkJCQkJCQkJCQkJCQkJCQkJCQkJCQkJCQkJCQkJCQkJCQkJCQkJCQkJCQkJCQkJCQkJCo4b+D13QMDku4c9ZAAAAAElFTkSuQmCC;" vertex="1" parent="1">
          <mxGeometry x="250" y="-280" width="128" height="128" as="geometry" />
        </mxCell>
      </root>
    </mxGraphModel>
  </diagram>
</mxfile>
